NotoSansSymbols-NO-CONFLICT.sfdir
StartChar: zero
Encoding: 48 48 318
Width: 572
GlyphClass: 2
Flags: W
LayerCount: 2
Fore
SplineSet
285 -10 m 0,0,1
 164 -10 164 -10 106.5 87.5 c 128,-1,2
 49 185 49 185 49 358 c 0,3,4
 49 474 49 474 72.5 556 c 128,-1,5
 96 638 96 638 148 681.5 c 128,-1,6
 200 725 200 725 285 725 c 0,7,8
 405 725 405 725 464 628.5 c 128,-1,9
 523 532 523 532 523 358 c 0,10,11
 523 243 523 243 499 160.5 c 128,-1,12
 475 78 475 78 423 34 c 128,-1,13
 371 -10 371 -10 285 -10 c 0,0,1
285 65 m 0,14,15
 365 65 365 65 399.5 137.5 c 128,-1,16
 434 210 434 210 434 358 c 0,17,18
 434 504 434 504 399.5 577 c 128,-1,19
 365 650 365 650 285 650 c 0,20,21
 204 650 204 650 170.5 577 c 128,-1,22
 137 504 137 504 137 358 c 0,23,24
 137 211 137 211 170.5 138 c 128,-1,25
 204 65 204 65 285 65 c 0,14,15
EndSplineSet
EndChar
StartChar: one
Encoding: 49 49 319
Width: 572
GlyphClass: 2
Flags: W
LayerCount: 2
Fore
SplineSet
269 0 m 1,0,-1
 269 499 l 2,1,2
 269 542 269 542 270 568 c 128,-1,3
 271 594 271 594 273 622 c 1,4,5
 257 606 257 606 244 595 c 128,-1,6
 231 584 231 584 211 567 c 2,7,-1
 135 505 l 1,8,-1
 89 564 l 1,9,-1
 282 714 l 1,10,-1
 355 714 l 1,11,-1
 355 0 l 1,12,-1
 269 0 l 1,0,-1
EndSplineSet
EndChar
StartChar: two
Encoding: 50 50 320
Width: 572
GlyphClass: 2
Flags: W
LayerCount: 2
Fore
SplineSet
48 0 m 1,0,-1
 48 73 l 1,1,-1
 235 262 l 2,2,3
 289 316 289 316 326 358 c 128,-1,4
 363 400 363 400 382 440.5 c 128,-1,5
 401 481 401 481 401 529 c 0,6,7
 401 588 401 588 366 618.5 c 128,-1,8
 331 649 331 649 275 649 c 0,9,10
 223 649 223 649 183.5 631 c 128,-1,11
 144 613 144 613 103 581 c 1,12,-1
 56 640 l 1,13,14
 98 675 98 675 152.5 699.5 c 128,-1,15
 207 724 207 724 275 724 c 0,16,17
 375 724 375 724 433 673.5 c 128,-1,18
 491 623 491 623 491 534 c 0,19,20
 491 478 491 478 468 429.5 c 128,-1,21
 445 381 445 381 404 333 c 128,-1,22
 363 285 363 285 308 231 c 2,23,-1
 159 84 l 1,24,-1
 159 80 l 1,25,-1
 520 80 l 1,26,-1
 520 0 l 1,27,-1
 48 0 l 1,0,-1
EndSplineSet
EndChar
StartChar: three
Encoding: 51 51 321
Width: 572
GlyphClass: 2
Flags: W
LayerCount: 2
Fore
SplineSet
241 -10 m 0,0,1
 185 -10 185 -10 137 -1.5 c 128,-1,2
 89 7 89 7 45 29 c 1,3,-1
 45 111 l 1,4,5
 90 89 90 89 142 76.5 c 128,-1,6
 194 64 194 64 242 64 c 0,7,8
 338 64 338 64 380.5 101.5 c 128,-1,9
 423 139 423 139 423 205 c 0,10,11
 423 272 423 272 370.5 301.5 c 128,-1,12
 318 331 318 331 223 331 c 2,13,-1
 154 331 l 1,14,-1
 154 406 l 1,15,-1
 224 406 l 2,16,17
 312 406 312 406 357.5 443 c 128,-1,18
 403 480 403 480 403 541 c 0,19,20
 403 593 403 593 368 621.5 c 128,-1,21
 333 650 333 650 273 650 c 0,22,23
 215 650 215 650 174 633 c 128,-1,24
 133 616 133 616 93 590 c 1,25,-1
 49 650 l 1,26,27
 87 680 87 680 143.5 702 c 128,-1,28
 200 724 200 724 272 724 c 0,29,30
 384 724 384 724 438.5 674 c 128,-1,31
 493 624 493 624 493 547 c 0,32,33
 493 475 493 475 453 432.5 c 128,-1,34
 413 390 413 390 345 376 c 1,35,-1
 345 372 l 1,36,37
 431 362 431 362 473 318 c 128,-1,38
 515 274 515 274 515 203 c 0,39,40
 515 141 515 141 486 92.5 c 128,-1,41
 457 44 457 44 396.5 17 c 128,-1,42
 336 -10 336 -10 241 -10 c 0,0,1
EndSplineSet
EndChar
StartChar: four
Encoding: 52 52 322
Width: 572
GlyphClass: 2
Flags: W
LayerCount: 2
Fore
SplineSet
363 0 m 1,0,-1
 363 162 l 1,1,-1
 21 162 l 1,2,-1
 21 237 l 1,3,-1
 357 718 l 1,4,-1
 448 718 l 1,5,-1
 448 241 l 1,6,-1
 552 241 l 1,7,-1
 552 162 l 1,8,-1
 448 162 l 1,9,-1
 448 0 l 1,10,-1
 363 0 l 1,0,-1
107 241 m 1,11,-1
 363 241 l 1,12,-1
 363 466 l 2,13,14
 363 518 363 518 365 554.5 c 128,-1,15
 367 591 367 591 368 624 c 1,16,-1
 364 624 l 1,17,18
 356 605 356 605 344 583 c 128,-1,19
 332 561 332 561 321 546 c 2,20,-1
 107 241 l 1,11,-1
EndSplineSet
EndChar
StartChar: five
Encoding: 53 53 323
Width: 572
GlyphClass: 2
Flags: W
LayerCount: 2
Fore
SplineSet
248 -10 m 0,0,1
 193 -10 193 -10 144.5 0 c 128,-1,2
 96 10 96 10 63 29 c 1,3,-1
 63 112 l 1,4,5
 99 90 99 90 150.5 77.5 c 128,-1,6
 202 65 202 65 249 65 c 0,7,8
 328 65 328 65 376.5 102.5 c 128,-1,9
 425 140 425 140 425 219 c 0,10,11
 425 289 425 289 382 326.5 c 128,-1,12
 339 364 339 364 246 364 c 0,13,14
 218 364 218 364 182 359 c 128,-1,15
 146 354 146 354 124 349 c 1,16,-1
 80 377 l 1,17,-1
 107 714 l 1,18,-1
 465 714 l 1,19,-1
 465 634 l 1,20,-1
 182 634 l 1,21,-1
 165 427 l 1,22,23
 182 430 182 430 211 434 c 128,-1,24
 240 438 240 438 275 438 c 0,25,26
 385 438 385 438 450 383 c 128,-1,27
 515 328 515 328 515 228 c 0,28,29
 515 117 515 117 444.5 53.5 c 128,-1,30
 374 -10 374 -10 248 -10 c 0,0,1
EndSplineSet
EndChar
StartChar: six
Encoding: 54 54 324
Width: 572
GlyphClass: 2
Flags: W
LayerCount: 2
Fore
SplineSet
298 -10 m 0,0,1
 230 -10 230 -10 175 24 c 128,-1,2
 120 58 120 58 87.5 128 c 128,-1,3
 55 198 55 198 55 305 c 0,4,5
 55 382 55 382 68.5 456.5 c 128,-1,6
 82 531 82 531 117.5 591.5 c 128,-1,7
 153 652 153 652 217 688 c 128,-1,8
 281 724 281 724 382 724 c 0,9,10
 403 724 403 724 428.5 722 c 128,-1,11
 454 720 454 720 470 715 c 1,12,-1
 470 640 l 1,13,14
 452 646 452 646 429.5 649 c 128,-1,15
 407 652 407 652 384 652 c 0,16,17
 315 652 315 652 269 629 c 128,-1,18
 223 606 223 606 196.5 566 c 128,-1,19
 170 526 170 526 158 474 c 128,-1,20
 146 422 146 422 143 363 c 1,21,-1
 149 363 l 1,22,23
 172 398 172 398 213 422.5 c 128,-1,24
 254 447 254 447 318 447 c 0,25,26
 411 447 411 447 468 390.5 c 128,-1,27
 525 334 525 334 525 230 c 0,28,29
 525 118 525 118 463.5 54 c 128,-1,30
 402 -10 402 -10 298 -10 c 0,0,1
297 64 m 0,31,32
 360 64 360 64 399 104.5 c 128,-1,33
 438 145 438 145 438 230 c 0,34,35
 438 298 438 298 403.5 338 c 128,-1,36
 369 378 369 378 300 378 c 0,37,38
 253 378 253 378 218 358.5 c 128,-1,39
 183 339 183 339 163.5 309 c 128,-1,40
 144 279 144 279 144 247 c 0,41,42
 144 204 144 204 161 161.5 c 128,-1,43
 178 119 178 119 212 91.5 c 128,-1,44
 246 64 246 64 297 64 c 0,31,32
EndSplineSet
EndChar
StartChar: seven
Encoding: 55 55 325
Width: 572
GlyphClass: 2
Flags: W
LayerCount: 2
Fore
SplineSet
136 0 m 1,0,-1
 429 634 l 1,1,-1
 44 634 l 1,2,-1
 44 714 l 1,3,-1
 523 714 l 1,4,-1
 523 646 l 1,5,-1
 233 0 l 1,6,-1
 136 0 l 1,0,-1
EndSplineSet
EndChar
StartChar: eight
Encoding: 56 56 326
Width: 572
GlyphClass: 2
Flags: W
LayerCount: 2
Fore
SplineSet
288 -10 m 0,0,1
 173 -10 173 -10 111 40.5 c 128,-1,2
 49 91 49 91 49 182 c 0,3,4
 49 231 49 231 69.5 267 c 128,-1,5
 90 303 90 303 124 329 c 128,-1,6
 158 355 158 355 197 373 c 1,7,8
 145 403 145 403 108.5 445.5 c 128,-1,9
 72 488 72 488 72 554 c 0,10,11
 72 609 72 609 100 646.5 c 128,-1,12
 128 684 128 684 176 704 c 128,-1,13
 224 724 224 724 285 724 c 0,14,15
 379 724 379 724 439 680 c 128,-1,16
 499 636 499 636 499 553 c 0,17,18
 499 510 499 510 480.5 478 c 128,-1,19
 462 446 462 446 431 421.5 c 128,-1,20
 400 397 400 397 363 378 c 1,21,22
 407 357 407 357 443 330.5 c 128,-1,23
 479 304 479 304 500.5 269 c 128,-1,24
 522 234 522 234 522 185 c 0,25,26
 522 95 522 95 458.5 42.5 c 128,-1,27
 395 -10 395 -10 288 -10 c 0,0,1
289 412 m 1,28,29
 341 434 341 434 376.5 465 c 128,-1,30
 412 496 412 496 412 550 c 0,31,32
 412 600 412 600 377 626.5 c 128,-1,33
 342 653 342 653 284 653 c 0,34,35
 229 653 229 653 193.5 626.5 c 128,-1,36
 158 600 158 600 158 550 c 0,37,38
 158 513 158 513 175.5 488 c 128,-1,39
 193 463 193 463 223 445.5 c 128,-1,40
 253 428 253 428 289 412 c 1,28,29
286 60 m 0,41,42
 359 60 359 60 397.5 94.5 c 128,-1,43
 436 129 436 129 436 184 c 0,44,45
 436 236 436 236 395 270.5 c 128,-1,46
 354 305 354 305 286 331 c 2,47,-1
 270 337 l 1,48,49
 204 309 204 309 169.5 272.5 c 128,-1,50
 135 236 135 236 135 181 c 0,51,52
 135 129 135 129 172 94.5 c 128,-1,53
 209 60 209 60 286 60 c 0,41,42
EndSplineSet
EndChar
StartChar: nine
Encoding: 57 57 327
Width: 572
GlyphClass: 2
Flags: W
LayerCount: 2
Fore
SplineSet
192 -10 m 0,0,1
 172 -10 172 -10 145.5 -7.5 c 128,-1,2
 119 -5 119 -5 102 0 c 1,3,-1
 102 75 l 1,4,5
 141 62 141 62 190 62 c 0,6,7
 260 62 260 62 305.5 85 c 128,-1,8
 351 108 351 108 378 147.5 c 128,-1,9
 405 187 405 187 417 239.5 c 128,-1,10
 429 292 429 292 431 350 c 1,11,-1
 425 350 l 1,12,13
 403 316 403 316 361.5 291.5 c 128,-1,14
 320 267 320 267 255 267 c 0,15,16
 163 267 163 267 106.5 323.5 c 128,-1,17
 50 380 50 380 50 483 c 0,18,19
 50 558 50 558 78.5 612 c 128,-1,20
 107 666 107 666 158 695 c 128,-1,21
 209 724 209 724 278 724 c 0,22,23
 346 724 346 724 401 689.5 c 128,-1,24
 456 655 456 655 488 585.5 c 128,-1,25
 520 516 520 516 520 409 c 0,26,27
 520 332 520 332 506.5 257.5 c 128,-1,28
 493 183 493 183 457.5 122.5 c 128,-1,29
 422 62 422 62 357.5 26 c 128,-1,30
 293 -10 293 -10 192 -10 c 0,0,1
274 336 m 0,31,32
 322 336 322 336 357 355.5 c 128,-1,33
 392 375 392 375 411.5 405 c 128,-1,34
 431 435 431 435 431 467 c 0,35,36
 431 510 431 510 414 552 c 128,-1,37
 397 594 397 594 363 622 c 128,-1,38
 329 650 329 650 278 650 c 0,39,40
 216 650 216 650 176.5 609 c 128,-1,41
 137 568 137 568 137 484 c 0,42,43
 137 415 137 415 170.5 375.5 c 128,-1,44
 204 336 204 336 274 336 c 0,31,32
EndSplineSet
EndChar
StartChar: D
Encoding: 68 68 8
Width: 730
GlyphClass: 2
Flags: W
LayerCount: 2
Fore
SplineSet
97 0 m 1,0,-1
 97 714 l 1,1,-1
 317 714 l 2,2,3
 425 714 425 714 504 674 c 128,-1,4
 583 634 583 634 626 556.5 c 128,-1,5
 669 479 669 479 669 364 c 0,6,7
 669 183 669 183 570.5 91.5 c 128,-1,8
 472 0 472 0 296 0 c 2,9,-1
 97 0 l 1,0,-1
187 77 m 1,10,-1
 284 77 l 2,11,12
 574 77 574 77 574 361 c 0,13,14
 574 504 574 504 503.5 570.5 c 128,-1,15
 433 637 433 637 304 637 c 2,16,-1
 187 637 l 1,17,-1
 187 77 l 1,10,-1
EndSplineSet
EndChar
StartChar: F
Encoding: 70 70 10
Width: 519
GlyphClass: 2
Flags: W
LayerCount: 2
Fore
SplineSet
97 0 m 1,0,-1
 97 714 l 1,1,-1
 496 714 l 1,2,-1
 496 635 l 1,3,-1
 187 635 l 1,4,-1
 187 382 l 1,5,-1
 477 382 l 1,6,-1
 477 303 l 1,7,-1
 187 303 l 1,8,-1
 187 0 l 1,9,-1
 97 0 l 1,0,-1
EndSplineSet
EndChar
StartChar: G
Encoding: 71 71 11
Width: 728
GlyphClass: 2
Flags: W
LayerCount: 2
Fore
SplineSet
403 -10 m 0,0,1
 292 -10 292 -10 216 34.5 c 128,-1,2
 140 79 140 79 100.5 161.5 c 128,-1,3
 61 244 61 244 61 357 c 0,4,5
 61 469 61 469 105 551 c 128,-1,6
 149 633 149 633 231.5 678.5 c 128,-1,7
 314 724 314 724 431 724 c 0,8,9
 491 724 491 724 544.5 713 c 128,-1,10
 598 702 598 702 644 682 c 1,11,-1
 610 604 l 1,12,13
 572 621 572 621 524.5 633 c 128,-1,14
 477 645 477 645 426 645 c 0,15,16
 298 645 298 645 226.5 568 c 128,-1,17
 155 491 155 491 155 357 c 0,18,19
 155 272 155 272 182.5 206.5 c 128,-1,20
 210 141 210 141 269 104.5 c 128,-1,21
 328 68 328 68 424 68 c 0,22,23
 471 68 471 68 504 73 c 128,-1,24
 537 78 537 78 564 85 c 1,25,-1
 564 297 l 1,26,-1
 407 297 l 1,27,-1
 407 377 l 1,28,-1
 654 377 l 1,29,-1
 654 27 l 1,30,31
 596 8 596 8 537 -1 c 128,-1,32
 478 -10 478 -10 403 -10 c 0,0,1
EndSplineSet
EndChar
StartChar: H
Encoding: 72 72 12
Width: 741
GlyphClass: 2
Flags: W
LayerCount: 2
Fore
SplineSet
97 0 m 1,0,-1
 97 714 l 1,1,-1
 187 714 l 1,2,-1
 187 412 l 1,3,-1
 553 412 l 1,4,-1
 553 714 l 1,5,-1
 643 714 l 1,6,-1
 643 0 l 1,7,-1
 553 0 l 1,8,-1
 553 333 l 1,9,-1
 187 333 l 1,10,-1
 187 0 l 1,11,-1
 97 0 l 1,0,-1
EndSplineSet
EndChar
StartChar: M
Encoding: 77 77 17
Width: 907
GlyphClass: 2
Flags: W
LayerCount: 2
Fore
SplineSet
97 0 m 1,0,-1
 97 714 l 1,1,-1
 230 714 l 1,2,-1
 450 129 l 1,3,-1
 454 129 l 1,4,-1
 678 714 l 1,5,-1
 810 714 l 1,6,-1
 810 0 l 1,7,-1
 721 0 l 1,8,-1
 721 439 l 2,9,10
 721 491 721 491 723.5 542 c 128,-1,11
 726 593 726 593 728 625 c 1,12,-1
 724 625 l 1,13,-1
 486 0 l 1,14,-1
 412 0 l 1,15,-1
 177 626 l 1,16,-1
 173 626 l 1,17,18
 176 595 176 595 178 542.5 c 128,-1,19
 180 490 180 490 180 433 c 2,20,-1
 180 0 l 1,21,-1
 97 0 l 1,0,-1
EndSplineSet
EndChar
StartChar: O
Encoding: 79 79 19
Width: 781
GlyphClass: 2
Flags: W
LayerCount: 2
Fore
SplineSet
391 -10 m 0,0,1
 280 -10 280 -10 206.5 36 c 128,-1,2
 133 82 133 82 97 165 c 128,-1,3
 61 248 61 248 61 359 c 0,4,5
 61 469 61 469 97 551 c 128,-1,6
 133 633 133 633 206.5 679 c 128,-1,7
 280 725 280 725 392 725 c 0,8,9
 499 725 499 725 572 679.5 c 128,-1,10
 645 634 645 634 682.5 551.5 c 128,-1,11
 720 469 720 469 720 358 c 256,12,13
 720 247 720 247 682.5 164.5 c 128,-1,14
 645 82 645 82 572 36 c 128,-1,15
 499 -10 499 -10 391 -10 c 0,0,1
391 68 m 0,16,17
 513 68 513 68 569 145.5 c 128,-1,18
 625 223 625 223 625 358 c 256,19,20
 625 493 625 493 569 569.5 c 128,-1,21
 513 646 513 646 392 646 c 256,22,23
 271 646 271 646 213.5 569.5 c 128,-1,24
 156 493 156 493 156 358 c 256,25,26
 156 223 156 223 213 145.5 c 128,-1,27
 270 68 270 68 391 68 c 0,16,17
EndSplineSet
EndChar
StartChar: R
Encoding: 82 82 22
Width: 622
GlyphClass: 2
Flags: W
LayerCount: 2
Fore
SplineSet
97 0 m 1,0,-1
 97 714 l 1,1,-1
 294 714 l 2,2,3
 427 714 427 714 490.5 663.5 c 128,-1,4
 554 613 554 613 554 511 c 0,5,6
 554 454 554 454 533 416 c 128,-1,7
 512 378 512 378 479.5 355.5 c 128,-1,8
 447 333 447 333 411 320 c 1,9,-1
 607 0 l 1,10,-1
 502 0 l 1,11,-1
 329 295 l 1,12,-1
 187 295 l 1,13,-1
 187 0 l 1,14,-1
 97 0 l 1,0,-1
187 371 m 1,15,-1
 294 371 l 2,16,17
 381 371 381 371 421 405.5 c 128,-1,18
 461 440 461 440 461 507 c 0,19,20
 461 577 461 577 419 606.5 c 128,-1,21
 377 636 377 636 289 636 c 2,22,-1
 187 636 l 1,23,-1
 187 371 l 1,15,-1
EndSplineSet
EndChar
StartChar: S
Encoding: 83 83 23
Width: 549
GlyphClass: 2
Flags: W
LayerCount: 2
Fore
SplineSet
247 -10 m 0,0,1
 187 -10 187 -10 136 -1 c 128,-1,2
 85 8 85 8 51 24 c 1,3,-1
 51 110 l 1,4,5
 87 94 87 94 140.5 81 c 128,-1,6
 194 68 194 68 251 68 c 0,7,8
 331 68 331 68 371.5 99 c 128,-1,9
 412 130 412 130 412 183 c 0,10,11
 412 218 412 218 397 242 c 128,-1,12
 382 266 382 266 345.5 286.5 c 128,-1,13
 309 307 309 307 244 330 c 0,14,15
 153 363 153 363 106.5 411 c 128,-1,16
 60 459 60 459 60 542 c 0,17,18
 60 599 60 599 89 639.5 c 128,-1,19
 118 680 118 680 169.5 702 c 128,-1,20
 221 724 221 724 288 724 c 0,21,22
 347 724 347 724 396 713 c 128,-1,23
 445 702 445 702 485 684 c 1,24,-1
 457 607 l 1,25,26
 420 623 420 623 376.5 634 c 128,-1,27
 333 645 333 645 286 645 c 0,28,29
 219 645 219 645 185 616.5 c 128,-1,30
 151 588 151 588 151 541 c 0,31,32
 151 505 151 505 166 481 c 128,-1,33
 181 457 181 457 215 438 c 128,-1,34
 249 419 249 419 307 397 c 0,35,36
 370 374 370 374 413.5 347.5 c 128,-1,37
 457 321 457 321 479.5 284 c 128,-1,38
 502 247 502 247 502 191 c 0,39,40
 502 96 502 96 433 43 c 128,-1,41
 364 -10 364 -10 247 -10 c 0,0,1
EndSplineSet
EndChar
StartChar: T
Encoding: 84 84 24
Width: 556
GlyphClass: 2
Flags: W
LayerCount: 2
Fore
SplineSet
233 0 m 1,0,-1
 233 635 l 1,1,-1
 10 635 l 1,2,-1
 10 714 l 1,3,-1
 545 714 l 1,4,-1
 545 635 l 1,5,-1
 323 635 l 1,6,-1
 323 0 l 1,7,-1
 233 0 l 1,0,-1
EndSplineSet
EndChar
StartChar: W
Encoding: 87 87 27
Width: 930
GlyphClass: 2
Flags: W
LayerCount: 2
Fore
SplineSet
201 0 m 1,0,-1
 12 714 l 1,1,-1
 106 714 l 1,2,-1
 217 278 l 2,3,4
 229 232 229 232 237.5 189 c 128,-1,5
 246 146 246 146 251 108 c 1,6,7
 256 147 256 147 266 193 c 128,-1,8
 276 239 276 239 289 283 c 2,9,-1
 415 714 l 1,10,-1
 508 714 l 1,11,-1
 639 280 l 2,12,13
 653 234 653 234 663 188.5 c 128,-1,14
 673 143 673 143 678 108 c 1,15,16
 683 145 683 145 692 188.5 c 128,-1,17
 701 232 701 232 713 279 c 2,18,-1
 823 714 l 1,19,-1
 917 714 l 1,20,-1
 727 0 l 1,21,-1
 636 0 l 1,22,-1
 497 468 l 2,23,24
 489 497 489 497 481 526 c 128,-1,25
 473 555 473 555 468 577.5 c 128,-1,26
 463 600 463 600 461 609 c 1,27,28
 460 596 460 596 450.5 553.5 c 128,-1,29
 441 511 441 511 427 465 c 2,30,-1
 292 0 l 1,31,-1
 201 0 l 1,0,-1
EndSplineSet
EndChar
StartChar: X
Encoding: 88 88 28
Width: 586
GlyphClass: 2
Flags: W
LayerCount: 2
Fore
SplineSet
4 0 m 1,0,-1
 241 372 l 1,1,-1
 19 714 l 1,2,-1
 119 714 l 1,3,-1
 294 434 l 1,4,-1
 470 714 l 1,5,-1
 565 714 l 1,6,-1
 344 374 l 1,7,-1
 582 0 l 1,8,-1
 480 0 l 1,9,-1
 291 310 l 1,10,-1
 99 0 l 1,11,-1
 4 0 l 1,0,-1
EndSplineSet
EndChar
StartChar: Y
Encoding: 89 89 29
Width: 566
GlyphClass: 2
Flags: W
LayerCount: 2
Fore
SplineSet
238 0 m 1,0,-1
 238 273 l 1,1,-1
 0 714 l 1,2,-1
 98 714 l 1,3,-1
 283 363 l 1,4,-1
 469 714 l 1,5,-1
 566 714 l 1,6,-1
 328 277 l 1,7,-1
 328 0 l 1,8,-1
 238 0 l 1,0,-1
EndSplineSet
EndChar
StartChar: b
Encoding: 98 98 162
Width: 615
GlyphClass: 2
Flags: W
LayerCount: 2
Fore
SplineSet
339 -10 m 0,0,1
 276 -10 276 -10 236 13 c 128,-1,2
 196 36 196 36 173 68 c 1,3,-1
 166 68 l 1,4,-1
 148 0 l 1,5,-1
 85 0 l 1,6,-1
 85 760 l 1,7,-1
 173 760 l 1,8,-1
 173 575 l 2,9,10
 173 541 173 541 171.5 511.5 c 128,-1,11
 170 482 170 482 168 465 c 1,12,-1
 173 465 l 1,13,14
 196 499 196 499 236 522 c 128,-1,15
 276 545 276 545 339 545 c 0,16,17
 439 545 439 545 499.5 475.5 c 128,-1,18
 560 406 560 406 560 268 c 256,19,20
 560 130 560 130 499 60 c 128,-1,21
 438 -10 438 -10 339 -10 c 0,0,1
326 63 m 0,22,23
 398 63 398 63 433.5 116 c 128,-1,24
 469 169 469 169 469 269 c 0,25,26
 469 472 469 472 324 472 c 0,27,28
 239 472 239 472 206 423 c 128,-1,29
 173 374 173 374 173 271 c 2,30,-1
 173 267 l 2,31,32
 173 168 173 168 205.5 115.5 c 128,-1,33
 238 63 238 63 326 63 c 0,22,23
EndSplineSet
EndChar
StartChar: c
Encoding: 99 99 163
Width: 480
GlyphClass: 2
Flags: W
LayerCount: 2
Fore
SplineSet
300 -10 m 0,0,1
 229 -10 229 -10 173.5 19 c 128,-1,2
 118 48 118 48 86.5 109 c 128,-1,3
 55 170 55 170 55 265 c 0,4,5
 55 364 55 364 88 426 c 128,-1,6
 121 488 121 488 177.5 517 c 128,-1,7
 234 546 234 546 306 546 c 0,8,9
 347 546 347 546 385 537.5 c 128,-1,10
 423 529 423 529 447 517 c 1,11,-1
 420 444 l 1,12,13
 396 453 396 453 364 461 c 128,-1,14
 332 469 332 469 304 469 c 0,15,16
 146 469 146 469 146 266 c 0,17,18
 146 169 146 169 184.5 117.5 c 128,-1,19
 223 66 223 66 299 66 c 0,20,21
 343 66 343 66 376.5 75 c 128,-1,22
 410 84 410 84 438 97 c 1,23,-1
 438 19 l 1,24,25
 411 5 411 5 378.5 -2.5 c 128,-1,26
 346 -10 346 -10 300 -10 c 0,0,1
EndSplineSet
EndChar
StartChar: e
Encoding: 101 101 165
Width: 564
GlyphClass: 2
Flags: W
LayerCount: 2
Fore
SplineSet
313 -10 m 0,0,1
 237 -10 237 -10 178.5 21 c 128,-1,2
 120 52 120 52 87.5 113.5 c 128,-1,3
 55 175 55 175 55 264 c 0,4,5
 55 352 55 352 84.5 415 c 128,-1,6
 114 478 114 478 167.5 512 c 128,-1,7
 221 546 221 546 292 546 c 0,8,9
 361 546 361 546 410.5 516 c 128,-1,10
 460 486 460 486 486.5 431.5 c 128,-1,11
 513 377 513 377 513 304 c 2,12,-1
 513 251 l 1,13,-1
 146 251 l 1,14,15
 148 160 148 160 192.5 112.5 c 128,-1,16
 237 65 237 65 317 65 c 0,17,18
 368 65 368 65 407.5 74.5 c 128,-1,19
 447 84 447 84 489 102 c 1,20,-1
 489 25 l 1,21,22
 448 7 448 7 408 -1.5 c 128,-1,23
 368 -10 368 -10 313 -10 c 0,0,1
148 321 m 1,24,-1
 421 321 l 1,25,26
 421 389 421 389 389.5 431.5 c 128,-1,27
 358 474 358 474 291 474 c 0,28,29
 228 474 228 474 191.5 433.5 c 128,-1,30
 155 393 155 393 148 321 c 1,24,-1
EndSplineSet
EndChar
StartChar: i
Encoding: 105 105 169
Width: 258
GlyphClass: 2
Flags: W
LayerCount: 2
Fore
SplineSet
130 625 m 0,0,1
 108 625 108 625 93 639 c 128,-1,2
 78 653 78 653 78 681 c 0,3,4
 78 710 78 710 93 723.5 c 128,-1,5
 108 737 108 737 130 737 c 0,6,7
 150 737 150 737 165.5 723.5 c 128,-1,8
 181 710 181 710 181 681 c 0,9,10
 181 653 181 653 165.5 639 c 128,-1,11
 150 625 150 625 130 625 c 0,0,1
85 0 m 1,12,-1
 85 536 l 1,13,-1
 173 536 l 1,14,-1
 173 0 l 1,15,-1
 85 0 l 1,12,-1
EndSplineSet
EndChar
StartChar: n
Encoding: 110 110 174
Width: 618
GlyphClass: 2
Flags: W
LayerCount: 2
Fore
SplineSet
85 0 m 1,0,-1
 85 536 l 1,1,-1
 156 536 l 1,2,-1
 169 463 l 1,3,-1
 174 463 l 1,4,5
 200 505 200 505 246 525.5 c 128,-1,6
 292 546 292 546 343 546 c 0,7,8
 439 546 439 546 488 499.5 c 128,-1,9
 537 453 537 453 537 349 c 2,10,-1
 537 0 l 1,11,-1
 450 0 l 1,12,-1
 450 343 l 2,13,14
 450 472 450 472 330 472 c 0,15,16
 241 472 241 472 207 422 c 128,-1,17
 173 372 173 372 173 278 c 2,18,-1
 173 0 l 1,19,-1
 85 0 l 1,0,-1
EndSplineSet
EndChar
StartChar: p
Encoding: 112 112 176
Width: 615
GlyphClass: 2
Flags: W
LayerCount: 2
Fore
SplineSet
85 -240 m 1,0,-1
 85 536 l 1,1,-1
 157 536 l 1,2,-1
 169 463 l 1,3,-1
 173 463 l 1,4,5
 197 498 197 498 236 522 c 128,-1,6
 275 546 275 546 340 546 c 0,7,8
 439 546 439 546 499.5 477 c 128,-1,9
 560 408 560 408 560 269 c 0,10,11
 560 132 560 132 499.5 61 c 128,-1,12
 439 -10 439 -10 339 -10 c 0,13,14
 277 -10 277 -10 236.5 13.5 c 128,-1,15
 196 37 196 37 173 68 c 1,16,-1
 167 68 l 1,17,18
 169 51 169 51 171 25 c 128,-1,19
 173 -1 173 -1 173 -20 c 2,20,-1
 173 -240 l 1,21,-1
 85 -240 l 1,0,-1
326 63 m 0,22,23
 375 63 375 63 406.5 90 c 128,-1,24
 438 117 438 117 453.5 163.5 c 128,-1,25
 469 210 469 210 469 270 c 0,26,27
 469 362 469 362 433.5 417 c 128,-1,28
 398 472 398 472 324 472 c 0,29,30
 242 472 242 472 208.5 426 c 128,-1,31
 175 380 175 380 173 286 c 2,32,-1
 173 269 l 2,33,34
 173 170 173 170 205.5 116.5 c 128,-1,35
 238 63 238 63 326 63 c 0,22,23
EndSplineSet
EndChar
StartChar: q
Encoding: 113 113 177
Width: 615
GlyphClass: 2
Flags: W
LayerCount: 2
Fore
SplineSet
442 -240 m 1,0,-1
 442 -11 l 2,1,2
 442 7 442 7 443 31 c 128,-1,3
 444 55 444 55 447 72 c 1,4,-1
 441 72 l 1,5,6
 418 38 418 38 377.5 14 c 128,-1,7
 337 -10 337 -10 273 -10 c 0,8,9
 176 -10 176 -10 115.5 59.5 c 128,-1,10
 55 129 55 129 55 267 c 256,11,12
 55 405 55 405 116.5 475.5 c 128,-1,13
 178 546 178 546 276 546 c 0,14,15
 339 546 339 546 379 522 c 128,-1,16
 419 498 419 498 443 463 c 1,17,-1
 447 463 l 1,18,-1
 460 536 l 1,19,-1
 530 536 l 1,20,-1
 530 -240 l 1,21,-1
 442 -240 l 1,0,-1
290 63 m 0,22,23
 373 63 373 63 407.5 108.5 c 128,-1,24
 442 154 442 154 443 248 c 2,25,-1
 443 266 l 2,26,27
 443 368 443 368 409 420.5 c 128,-1,28
 375 473 375 473 288 473 c 0,29,30
 216 473 216 473 181 416.5 c 128,-1,31
 146 360 146 360 146 265 c 256,32,33
 146 170 146 170 181.5 116.5 c 128,-1,34
 217 63 217 63 290 63 c 0,22,23
EndSplineSet
EndChar
StartChar: t
Encoding: 116 116 180
Width: 361
GlyphClass: 2
Flags: W
LayerCount: 2
Fore
SplineSet
249 -10 m 0,0,1
 207 -10 207 -10 171.5 4.5 c 128,-1,2
 136 19 136 19 114 55 c 128,-1,3
 92 91 92 91 92 156 c 2,4,-1
 92 468 l 1,5,-1
 16 468 l 1,6,-1
 16 510 l 1,7,-1
 93 545 l 1,8,-1
 128 659 l 1,9,-1
 180 659 l 1,10,-1
 180 536 l 1,11,-1
 335 536 l 1,12,-1
 335 468 l 1,13,-1
 180 468 l 1,14,-1
 180 158 l 2,15,16
 180 109 180 109 203.5 85.5 c 128,-1,17
 227 62 227 62 264 62 c 0,18,19
 284 62 284 62 305 65.5 c 128,-1,20
 326 69 326 69 339 73 c 1,21,-1
 339 6 l 1,22,23
 325 -1 325 -1 299 -5.5 c 128,-1,24
 273 -10 273 -10 249 -10 c 0,0,1
EndSplineSet
EndChar
StartChar: u
Encoding: 117 117 181
Width: 618
GlyphClass: 2
Flags: W
LayerCount: 2
Fore
SplineSet
274 -10 m 0,0,1
 177 -10 177 -10 128 36.5 c 128,-1,2
 79 83 79 83 79 185 c 2,3,-1
 79 536 l 1,4,-1
 168 536 l 1,5,-1
 168 191 l 2,6,7
 168 63 168 63 287 63 c 0,8,9
 376 63 376 63 410.5 113 c 128,-1,10
 445 163 445 163 445 257 c 2,11,-1
 445 536 l 1,12,-1
 533 536 l 1,13,-1
 533 0 l 1,14,-1
 461 0 l 1,15,-1
 448 71 l 1,16,-1
 444 71 l 1,17,18
 418 29 418 29 372 9.5 c 128,-1,19
 326 -10 326 -10 274 -10 c 0,0,1
EndSplineSet
EndChar
StartChar: w
Encoding: 119 119 183
Width: 786
GlyphClass: 2
Flags: W
LayerCount: 2
Fore
SplineSet
158 1 m 1,0,-1
 11 537 l 1,1,-1
 102 537 l 1,2,-1
 176 251 l 2,3,4
 187 208 187 208 197 164 c 128,-1,5
 207 120 207 120 211 91 c 1,6,-1
 215 91 l 1,7,8
 219 108 219 108 224.5 133 c 128,-1,9
 230 158 230 158 237 185.5 c 128,-1,10
 244 213 244 213 251 235 c 2,11,-1
 346 537 l 1,12,-1
 442 537 l 1,13,-1
 534 235 l 2,14,15
 545 201 545 201 555.5 161 c 128,-1,16
 566 121 566 121 570 92 c 1,17,-1
 574 92 l 1,18,19
 577 117 577 117 587.5 161 c 128,-1,20
 598 205 598 205 610 251 c 2,21,-1
 685 537 l 1,22,-1
 775 537 l 1,23,-1
 626 1 l 1,24,-1
 523 1 l 1,25,-1
 431 303 l 2,26,27
 418 344 418 344 408.5 383.5 c 128,-1,28
 399 423 399 423 394 445 c 1,29,-1
 390 445 l 1,30,31
 386 423 386 423 377 383.5 c 128,-1,32
 368 344 368 344 354 302 c 2,33,-1
 258 1 l 1,34,-1
 158 1 l 1,0,-1
EndSplineSet
EndChar
StartChar: y
Encoding: 121 121 185
Width: 510
GlyphClass: 2
Flags: W
LayerCount: 2
Fore
SplineSet
84 -240 m 0,0,1
 60 -240 60 -240 42 -237.5 c 128,-1,2
 24 -235 24 -235 11 -232 c 1,3,-1
 11 -162 l 1,4,5
 22 -164 22 -164 37.5 -166 c 128,-1,6
 53 -168 53 -168 70 -168 c 0,7,8
 116 -168 116 -168 144 -142 c 128,-1,9
 172 -116 172 -116 189 -73 c 2,10,-1
 217 -2 l 1,11,-1
 1 536 l 1,12,-1
 95 536 l 1,13,-1
 211 231 l 2,14,15
 226 191 226 191 238 154.5 c 128,-1,16
 250 118 250 118 256 85 c 1,17,-1
 260 85 l 1,18,19
 266 110 266 110 278.5 150.5 c 128,-1,20
 291 191 291 191 306 232 c 2,21,-1
 415 536 l 1,22,-1
 510 536 l 1,23,-1
 279 -74 l 2,24,25
 251 -150 251 -150 206.5 -195 c 128,-1,26
 162 -240 162 -240 84 -240 c 0,0,1
EndSplineSet
EndChar
StartChar: enclosingcirclebackslashcomb
Encoding: 8416 8416 1111
Width: 0
Flags: W
LayerCount: 2
Fore
SplineSet
0 -292 m 256,0,1
 -108 -292 -108 -292 -205.5 -259 c 128,-1,2
 -303 -226 -303 -226 -384 -166.5 c 128,-1,3
 -465 -107 -465 -107 -524.5 -26 c 128,-1,4
 -584 55 -584 55 -617 152.5 c 128,-1,5
 -650 250 -650 250 -650 358 c 256,6,7
 -650 466 -650 466 -617 563.5 c 128,-1,8
 -584 661 -584 661 -524.5 742 c 128,-1,9
 -465 823 -465 823 -384 882.5 c 128,-1,10
 -303 942 -303 942 -205.5 975 c 128,-1,11
 -108 1008 -108 1008 0 1008 c 256,12,13
 108 1008 108 1008 205.5 975 c 128,-1,14
 303 942 303 942 384 882.5 c 128,-1,15
 465 823 465 823 524.5 742 c 128,-1,16
 584 661 584 661 617 563.5 c 128,-1,17
 650 466 650 466 650 358 c 256,18,19
 650 250 650 250 617 152.5 c 128,-1,20
 584 55 584 55 524.5 -26 c 128,-1,21
 465 -107 465 -107 384 -166.5 c 128,-1,22
 303 -226 303 -226 205.5 -259 c 128,-1,23
 108 -292 108 -292 0 -292 c 256,0,1
0 946 m 0,24,25
 -113 946 -113 946 -214 906 c 128,-1,26
 -315 866 -315 866 -393 796 c 1,27,-1
 438 -34 l 1,28,29
 508 44 508 44 548 144.5 c 128,-1,30
 588 245 588 245 588 358 c 0,31,32
 588 456 588 456 558.5 544 c 128,-1,33
 529 632 529 632 475 705.5 c 128,-1,34
 421 779 421 779 347.5 833 c 128,-1,35
 274 887 274 887 185.5 916.5 c 128,-1,36
 97 946 97 946 0 946 c 0,24,25
0 -230 m 0,37,38
 113 -230 113 -230 214 -190 c 128,-1,39
 315 -150 315 -150 393 -79 c 1,40,-1
 -438 751 l 1,41,42
 -508 673 -508 673 -548 572 c 128,-1,43
 -588 471 -588 471 -588 358 c 0,44,45
 -588 261 -588 261 -558.5 172.5 c 128,-1,46
 -529 84 -529 84 -475 10.5 c 128,-1,47
 -421 -63 -421 -63 -347.5 -117 c 128,-1,48
 -274 -171 -274 -171 -186 -200.5 c 128,-1,49
 -98 -230 -98 -230 0 -230 c 0,37,38
EndSplineSet
EndChar
StartChar: One-roman
Encoding: 8544 8544 503
Width: 339
Flags: W
LayerCount: 2
Fore
SplineSet
40 0 m 1,0,-1
 40 52 l 1,1,-1
 124 71 l 1,2,-1
 124 642 l 1,3,-1
 40 662 l 1,4,-1
 40 714 l 1,5,-1
 298 714 l 1,6,-1
 298 662 l 1,7,-1
 214 642 l 1,8,-1
 214 71 l 1,9,-1
 298 52 l 1,10,-1
 298 0 l 1,11,-1
 40 0 l 1,0,-1
EndSplineSet
EndChar
StartChar: Two-roman
Encoding: 8545 8545 504
Width: 678
Flags: W
LayerCount: 2
Fore
SplineSet
40 0 m 1,0,-1
 40 52 l 1,1,-1
 124 71 l 1,2,-1
 124 642 l 1,3,-1
 40 662 l 1,4,-1
 40 714 l 1,5,-1
 298 714 l 1,6,-1
 298 662 l 1,7,-1
 214 642 l 1,8,-1
 214 71 l 1,9,-1
 298 52 l 1,10,-1
 298 0 l 1,11,-1
 40 0 l 1,0,-1
379 0 m 1,12,-1
 379 52 l 1,13,-1
 463 71 l 1,14,-1
 463 642 l 1,15,-1
 379 662 l 1,16,-1
 379 714 l 1,17,-1
 637 714 l 1,18,-1
 637 662 l 1,19,-1
 553 642 l 1,20,-1
 553 71 l 1,21,-1
 637 52 l 1,22,-1
 637 0 l 1,23,-1
 379 0 l 1,12,-1
EndSplineSet
EndChar
StartChar: Six-roman
Encoding: 8549 8549 508
Width: 939
Flags: W
LayerCount: 2
Fore
SplineSet
255 0 m 1,0,-1
 0 714 l 1,1,-1
 94 714 l 1,2,-1
 255 256 l 2,3,4
 271 212 271 212 282 173.5 c 128,-1,5
 293 135 293 135 300 100 c 1,6,7
 307 135 307 135 318 174 c 128,-1,8
 329 213 329 213 345 258 c 2,9,-1
 505 714 l 1,10,-1
 600 714 l 1,11,-1
 345 0 l 1,12,-1
 255 0 l 1,0,-1
640 0 m 1,13,-1
 640 52 l 1,14,-1
 724 71 l 1,15,-1
 724 642 l 1,16,-1
 640 662 l 1,17,-1
 640 714 l 1,18,-1
 898 714 l 1,19,-1
 898 662 l 1,20,-1
 814 642 l 1,21,-1
 814 71 l 1,22,-1
 898 52 l 1,23,-1
 898 0 l 1,24,-1
 640 0 l 1,13,-1
EndSplineSet
EndChar
StartChar: Eight-roman
Encoding: 8551 8551 510
Width: 1617
Flags: W
LayerCount: 2
Fore
SplineSet
255 0 m 1,0,-1
 0 714 l 1,1,-1
 94 714 l 1,2,-1
 255 256 l 2,3,4
 271 212 271 212 282 173.5 c 128,-1,5
 293 135 293 135 300 100 c 1,6,7
 307 135 307 135 318 174 c 128,-1,8
 329 213 329 213 345 258 c 2,9,-1
 505 714 l 1,10,-1
 600 714 l 1,11,-1
 345 0 l 1,12,-1
 255 0 l 1,0,-1
640 0 m 1,13,-1
 640 52 l 1,14,-1
 724 71 l 1,15,-1
 724 642 l 1,16,-1
 640 662 l 1,17,-1
 640 714 l 1,18,-1
 898 714 l 1,19,-1
 898 662 l 1,20,-1
 814 642 l 1,21,-1
 814 71 l 1,22,-1
 898 52 l 1,23,-1
 898 0 l 1,24,-1
 640 0 l 1,13,-1
979 0 m 1,25,-1
 979 52 l 1,26,-1
 1063 71 l 1,27,-1
 1063 642 l 1,28,-1
 979 662 l 1,29,-1
 979 714 l 1,30,-1
 1237 714 l 1,31,-1
 1237 662 l 1,32,-1
 1153 642 l 1,33,-1
 1153 71 l 1,34,-1
 1237 52 l 1,35,-1
 1237 0 l 1,36,-1
 979 0 l 1,25,-1
1318 0 m 1,37,-1
 1318 52 l 1,38,-1
 1402 71 l 1,39,-1
 1402 642 l 1,40,-1
 1318 662 l 1,41,-1
 1318 714 l 1,42,-1
 1576 714 l 1,43,-1
 1576 662 l 1,44,-1
 1492 642 l 1,45,-1
 1492 71 l 1,46,-1
 1576 52 l 1,47,-1
 1576 0 l 1,48,-1
 1318 0 l 1,37,-1
EndSplineSet
EndChar
StartChar: Nine-roman
Encoding: 8552 8552 511
Width: 925
Flags: W
LayerCount: 2
Fore
SplineSet
343 0 m 1,0,-1
 580 372 l 1,1,-1
 358 714 l 1,2,-1
 458 714 l 1,3,-1
 633 434 l 1,4,-1
 809 714 l 1,5,-1
 904 714 l 1,6,-1
 683 374 l 1,7,-1
 921 0 l 1,8,-1
 819 0 l 1,9,-1
 630 310 l 1,10,-1
 438 0 l 1,11,-1
 343 0 l 1,0,-1
40 0 m 1,12,-1
 40 52 l 1,13,-1
 124 71 l 1,14,-1
 124 642 l 1,15,-1
 40 662 l 1,16,-1
 40 714 l 1,17,-1
 298 714 l 1,18,-1
 298 662 l 1,19,-1
 214 642 l 1,20,-1
 214 71 l 1,21,-1
 298 52 l 1,22,-1
 298 0 l 1,23,-1
 40 0 l 1,12,-1
EndSplineSet
EndChar
StartChar: Eleven-roman
Encoding: 8554 8554 513
Width: 925
Flags: W
LayerCount: 2
Fore
SplineSet
4 0 m 1,0,-1
 241 372 l 1,1,-1
 19 714 l 1,2,-1
 119 714 l 1,3,-1
 294 434 l 1,4,-1
 470 714 l 1,5,-1
 565 714 l 1,6,-1
 344 374 l 1,7,-1
 582 0 l 1,8,-1
 480 0 l 1,9,-1
 291 310 l 1,10,-1
 99 0 l 1,11,-1
 4 0 l 1,0,-1
626 0 m 1,12,-1
 626 52 l 1,13,-1
 710 71 l 1,14,-1
 710 642 l 1,15,-1
 626 662 l 1,16,-1
 626 714 l 1,17,-1
 884 714 l 1,18,-1
 884 662 l 1,19,-1
 800 642 l 1,20,-1
 800 71 l 1,21,-1
 884 52 l 1,22,-1
 884 0 l 1,23,-1
 626 0 l 1,12,-1
EndSplineSet
EndChar
StartChar: Fifty-roman
Encoding: 8556 8556 515
Width: 524
Flags: W
LayerCount: 2
Fore
SplineSet
97 0 m 1,0,-1
 97 714 l 1,1,-1
 187 714 l 1,2,-1
 187 80 l 1,3,-1
 499 80 l 1,4,-1
 499 0 l 1,5,-1
 97 0 l 1,0,-1
EndSplineSet
EndChar
StartChar: three-roman
Encoding: 8562 8562 521
Width: 774
Flags: W
LayerCount: 2
Fore
SplineSet
130 614 m 0,0,1
 108 614 108 614 93 628 c 128,-1,2
 78 642 78 642 78 670 c 0,3,4
 78 699 78 699 93 712.5 c 128,-1,5
 108 726 108 726 130 726 c 0,6,7
 150 726 150 726 165.5 712.5 c 128,-1,8
 181 699 181 699 181 670 c 0,9,10
 181 642 181 642 165.5 628 c 128,-1,11
 150 614 150 614 130 614 c 0,0,1
388 614 m 0,12,13
 366 614 366 614 351 628 c 128,-1,14
 336 642 336 642 336 670 c 0,15,16
 336 699 336 699 351 712.5 c 128,-1,17
 366 726 366 726 388 726 c 0,18,19
 408 726 408 726 423.5 712.5 c 128,-1,20
 439 699 439 699 439 670 c 0,21,22
 439 642 439 642 423.5 628 c 128,-1,23
 408 614 408 614 388 614 c 0,12,13
646 614 m 0,24,25
 624 614 624 614 609 628 c 128,-1,26
 594 642 594 642 594 670 c 0,27,28
 594 699 594 699 609 712.5 c 128,-1,29
 624 726 624 726 646 726 c 0,30,31
 666 726 666 726 681.5 712.5 c 128,-1,32
 697 699 697 699 697 670 c 0,33,34
 697 642 697 642 681.5 628 c 128,-1,35
 666 614 666 614 646 614 c 0,24,25
601 0 m 1,36,-1
 601 536 l 1,37,-1
 688 536 l 1,38,-1
 688 0 l 1,39,-1
 601 0 l 1,36,-1
85 0 m 1,40,-1
 85 536 l 1,41,-1
 173 536 l 1,42,-1
 173 0 l 1,43,-1
 85 0 l 1,40,-1
343 0 m 1,44,-1
 343 536 l 1,45,-1
 431 536 l 1,46,-1
 431 0 l 1,47,-1
 343 0 l 1,44,-1
EndSplineSet
EndChar
StartChar: four-roman
Encoding: 8563 8563 522
Width: 766
Flags: W
LayerCount: 2
Fore
SplineSet
130 614 m 0,0,1
 108 614 108 614 93 628 c 128,-1,2
 78 642 78 642 78 670 c 0,3,4
 78 699 78 699 93 712.5 c 128,-1,5
 108 726 108 726 130 726 c 0,6,7
 150 726 150 726 165.5 712.5 c 128,-1,8
 181 699 181 699 181 670 c 0,9,10
 181 642 181 642 165.5 628 c 128,-1,11
 150 614 150 614 130 614 c 0,0,1
461 0 m 1,12,-1
 258 536 l 1,13,-1
 352 536 l 1,14,-1
 466 220 l 2,15,16
 474 198 474 198 483 171 c 128,-1,17
 492 144 492 144 499 119.5 c 128,-1,18
 506 95 506 95 509 78 c 1,19,-1
 513 78 l 1,20,21
 517 95 517 95 524.5 120 c 128,-1,22
 532 145 532 145 541.5 172 c 128,-1,23
 551 199 551 199 558 220 c 2,24,-1
 672 536 l 1,25,-1
 766 536 l 1,26,-1
 562 0 l 1,27,-1
 461 0 l 1,12,-1
85 0 m 1,28,-1
 85 536 l 1,29,-1
 173 536 l 1,30,-1
 173 0 l 1,31,-1
 85 0 l 1,28,-1
EndSplineSet
EndChar
StartChar: six-roman
Encoding: 8565 8565 524
Width: 766
Flags: W
LayerCount: 2
Fore
SplineSet
638 614 m 0,0,1
 616 614 616 614 601 628 c 128,-1,2
 586 642 586 642 586 670 c 0,3,4
 586 699 586 699 601 712.5 c 128,-1,5
 616 726 616 726 638 726 c 0,6,7
 658 726 658 726 673.5 712.5 c 128,-1,8
 689 699 689 699 689 670 c 0,9,10
 689 642 689 642 673.5 628 c 128,-1,11
 658 614 658 614 638 614 c 0,0,1
203 0 m 1,12,-1
 0 536 l 1,13,-1
 94 536 l 1,14,-1
 208 220 l 2,15,16
 216 198 216 198 225 171 c 128,-1,17
 234 144 234 144 241 119.5 c 128,-1,18
 248 95 248 95 251 78 c 1,19,-1
 255 78 l 1,20,21
 259 95 259 95 266.5 120 c 128,-1,22
 274 145 274 145 283.5 172 c 128,-1,23
 293 199 293 199 300 220 c 2,24,-1
 414 536 l 1,25,-1
 508 536 l 1,26,-1
 304 0 l 1,27,-1
 203 0 l 1,12,-1
593 0 m 1,28,-1
 593 536 l 1,29,-1
 681 536 l 1,30,-1
 681 0 l 1,31,-1
 593 0 l 1,28,-1
EndSplineSet
EndChar
StartChar: eight-roman
Encoding: 8567 8567 526
Width: 1282
Flags: W
LayerCount: 2
Fore
SplineSet
638 614 m 0,0,1
 616 614 616 614 601 628 c 128,-1,2
 586 642 586 642 586 670 c 0,3,4
 586 699 586 699 601 712.5 c 128,-1,5
 616 726 616 726 638 726 c 0,6,7
 658 726 658 726 673.5 712.5 c 128,-1,8
 689 699 689 699 689 670 c 0,9,10
 689 642 689 642 673.5 628 c 128,-1,11
 658 614 658 614 638 614 c 0,0,1
896 614 m 0,12,13
 874 614 874 614 859 628 c 128,-1,14
 844 642 844 642 844 670 c 0,15,16
 844 699 844 699 859 712.5 c 128,-1,17
 874 726 874 726 896 726 c 0,18,19
 916 726 916 726 931.5 712.5 c 128,-1,20
 947 699 947 699 947 670 c 0,21,22
 947 642 947 642 931.5 628 c 128,-1,23
 916 614 916 614 896 614 c 0,12,13
1153 614 m 256,24,25
 1132 614 1132 614 1117 628 c 128,-1,26
 1102 642 1102 642 1102 670 c 0,27,28
 1102 699 1102 699 1117 712.5 c 128,-1,29
 1132 726 1132 726 1153 726 c 256,30,31
 1174 726 1174 726 1189.5 712.5 c 128,-1,32
 1205 699 1205 699 1205 670 c 0,33,34
 1205 642 1205 642 1189.5 628 c 128,-1,35
 1174 614 1174 614 1153 614 c 256,24,25
203 0 m 1,36,-1
 0 536 l 1,37,-1
 94 536 l 1,38,-1
 208 220 l 2,39,40
 216 198 216 198 225 171 c 128,-1,41
 234 144 234 144 241 119.5 c 128,-1,42
 248 95 248 95 251 78 c 1,43,-1
 255 78 l 1,44,45
 259 95 259 95 267 120 c 128,-1,46
 275 145 275 145 284 172 c 128,-1,47
 293 199 293 199 300 220 c 2,48,-1
 414 536 l 1,49,-1
 508 536 l 1,50,-1
 304 0 l 1,51,-1
 203 0 l 1,36,-1
593 0 m 1,52,-1
 593 536 l 1,53,-1
 681 536 l 1,54,-1
 681 0 l 1,55,-1
 593 0 l 1,52,-1
851 0 m 1,56,-1
 851 536 l 1,57,-1
 938 536 l 1,58,-1
 938 0 l 1,59,-1
 851 0 l 1,56,-1
1108 0 m 1,60,-1
 1108 536 l 1,61,-1
 1196 536 l 1,62,-1
 1196 0 l 1,63,-1
 1108 0 l 1,60,-1
EndSplineSet
EndChar
StartChar: nine-roman
Encoding: 8568 8568 527
Width: 787
Flags: W
LayerCount: 2
Fore
SplineSet
130 614 m 0,0,1
 108 614 108 614 93 628 c 128,-1,2
 78 642 78 642 78 670 c 0,3,4
 78 699 78 699 93 712.5 c 128,-1,5
 108 726 108 726 130 726 c 0,6,7
 150 726 150 726 165.5 712.5 c 128,-1,8
 181 699 181 699 181 670 c 0,9,10
 181 642 181 642 165.5 628 c 128,-1,11
 150 614 150 614 130 614 c 0,0,1
276 0 m 1,12,-1
 470 274 l 1,13,-1
 285 536 l 1,14,-1
 385 536 l 1,15,-1
 523 334 l 1,16,-1
 660 536 l 1,17,-1
 759 536 l 1,18,-1
 574 274 l 1,19,-1
 769 0 l 1,20,-1
 669 0 l 1,21,-1
 523 214 l 1,22,-1
 375 0 l 1,23,-1
 276 0 l 1,12,-1
85 0 m 1,24,-1
 85 536 l 1,25,-1
 173 536 l 1,26,-1
 173 0 l 1,27,-1
 85 0 l 1,24,-1
EndSplineSet
EndChar
StartChar: eleven-roman
Encoding: 8570 8570 529
Width: 787
Flags: W
LayerCount: 2
Fore
SplineSet
659 614 m 0,0,1
 637 614 637 614 622 628 c 128,-1,2
 607 642 607 642 607 670 c 0,3,4
 607 699 607 699 622 712.5 c 128,-1,5
 637 726 637 726 659 726 c 0,6,7
 679 726 679 726 694.5 712.5 c 128,-1,8
 710 699 710 699 710 670 c 0,9,10
 710 642 710 642 694.5 628 c 128,-1,11
 679 614 679 614 659 614 c 0,0,1
18 0 m 1,12,-1
 212 274 l 1,13,-1
 27 536 l 1,14,-1
 127 536 l 1,15,-1
 265 334 l 1,16,-1
 402 536 l 1,17,-1
 501 536 l 1,18,-1
 316 274 l 1,19,-1
 511 0 l 1,20,-1
 411 0 l 1,21,-1
 265 214 l 1,22,-1
 117 0 l 1,23,-1
 18 0 l 1,12,-1
614 0 m 1,24,-1
 614 536 l 1,25,-1
 702 536 l 1,26,-1
 702 0 l 1,27,-1
 614 0 l 1,24,-1
EndSplineSet
EndChar
StartChar: twelve-roman
Encoding: 8571 8571 530
Width: 1045
Flags: W
LayerCount: 2
Fore
SplineSet
659 614 m 0,0,1
 637 614 637 614 622 628 c 128,-1,2
 607 642 607 642 607 670 c 0,3,4
 607 699 607 699 622 712.5 c 128,-1,5
 637 726 637 726 659 726 c 0,6,7
 679 726 679 726 694.5 712.5 c 128,-1,8
 710 699 710 699 710 670 c 0,9,10
 710 642 710 642 694.5 628 c 128,-1,11
 679 614 679 614 659 614 c 0,0,1
917 614 m 0,12,13
 895 614 895 614 880 628 c 128,-1,14
 865 642 865 642 865 670 c 0,15,16
 865 699 865 699 880 712.5 c 128,-1,17
 895 726 895 726 917 726 c 0,18,19
 937 726 937 726 952.5 712.5 c 128,-1,20
 968 699 968 699 968 670 c 0,21,22
 968 642 968 642 952.5 628 c 128,-1,23
 937 614 937 614 917 614 c 0,12,13
18 0 m 1,24,-1
 212 274 l 1,25,-1
 27 536 l 1,26,-1
 127 536 l 1,27,-1
 265 334 l 1,28,-1
 402 536 l 1,29,-1
 501 536 l 1,30,-1
 316 274 l 1,31,-1
 511 0 l 1,32,-1
 411 0 l 1,33,-1
 265 214 l 1,34,-1
 117 0 l 1,35,-1
 18 0 l 1,24,-1
614 0 m 1,36,-1
 614 536 l 1,37,-1
 702 536 l 1,38,-1
 702 0 l 1,39,-1
 614 0 l 1,36,-1
872 0 m 1,40,-1
 872 536 l 1,41,-1
 959 536 l 1,42,-1
 959 0 l 1,43,-1
 872 0 l 1,40,-1
EndSplineSet
EndChar
StartChar: fivehundred-roman
Encoding: 8574 8574 533
Width: 615
Flags: W
LayerCount: 2
Fore
SplineSet
275 -10 m 0,0,1
 175 -10 175 -10 115 59.5 c 128,-1,2
 55 129 55 129 55 267 c 256,3,4
 55 405 55 405 115.5 475.5 c 128,-1,5
 176 546 176 546 276 546 c 0,6,7
 338 546 338 546 377.5 523 c 128,-1,8
 417 500 417 500 442 467 c 1,9,-1
 448 467 l 1,10,11
 447 480 447 480 444.5 505.5 c 128,-1,12
 442 531 442 531 442 546 c 2,13,-1
 442 760 l 1,14,-1
 530 760 l 1,15,-1
 530 0 l 1,16,-1
 459 0 l 1,17,-1
 446 72 l 1,18,-1
 442 72 l 1,19,20
 418 38 418 38 378 14 c 128,-1,21
 338 -10 338 -10 275 -10 c 0,0,1
289 63 m 0,22,23
 374 63 374 63 408.5 109.5 c 128,-1,24
 443 156 443 156 443 250 c 2,25,-1
 443 266 l 2,26,27
 443 366 443 366 410 419.5 c 128,-1,28
 377 473 377 473 288 473 c 0,29,30
 217 473 217 473 181.5 416.5 c 128,-1,31
 146 360 146 360 146 265 c 0,32,33
 146 169 146 169 181.5 116 c 128,-1,34
 217 63 217 63 289 63 c 0,22,23
EndSplineSet
EndChar
StartChar: Tenthousand-roman
Encoding: 8578 8578 537
Width: 1161
Flags: W
LayerCount: 2
Fore
SplineSet
423 0 m 2,0,1
 246 0 246 0 147 92.5 c 128,-1,2
 48 185 48 185 48 367 c 0,3,4
 48 482 48 482 91.5 560.5 c 128,-1,5
 135 639 135 639 214.5 679 c 128,-1,6
 294 719 294 719 402 719 c 2,7,-1
 759 719 l 2,8,9
 867 719 867 719 946.5 679 c 128,-1,10
 1026 639 1026 639 1069.5 560.5 c 128,-1,11
 1113 482 1113 482 1113 367 c 0,12,13
 1113 185 1113 185 1014 92.5 c 128,-1,14
 915 0 915 0 738 0 c 2,15,-1
 423 0 l 2,0,1
431 87 m 2,16,-1
 532 87 l 1,17,-1
 532 155 l 1,18,-1
 464 155 l 2,19,20
 361 155 361 155 304 208 c 128,-1,21
 247 261 247 261 247 364 c 0,22,23
 247 462 247 462 302.5 513.5 c 128,-1,24
 358 565 358 565 452 565 c 2,25,-1
 532 565 l 1,26,-1
 532 632 l 1,27,-1
 412 632 l 2,28,29
 287 632 287 632 218 567 c 128,-1,30
 149 502 149 502 149 364 c 0,31,32
 149 87 149 87 431 87 c 2,16,-1
629 87 m 1,33,-1
 730 87 l 2,34,35
 1012 87 1012 87 1012 364 c 0,36,37
 1012 502 1012 502 943.5 567 c 128,-1,38
 875 632 875 632 749 632 c 2,39,-1
 629 632 l 1,40,-1
 629 565 l 1,41,-1
 709 565 l 2,42,43
 803 565 803 565 859 513.5 c 128,-1,44
 915 462 915 462 915 364 c 0,45,46
 915 261 915 261 857.5 208 c 128,-1,47
 800 155 800 155 697 155 c 2,48,-1
 629 155 l 1,49,-1
 629 87 l 1,33,-1
483 204 m 2,50,-1
 532 204 l 1,51,-1
 532 515 l 1,52,-1
 473 515 l 2,53,54
 400 515 400 515 360 478 c 128,-1,55
 320 441 320 441 320 362 c 0,56,57
 320 204 320 204 483 204 c 2,50,-1
629 204 m 1,58,-1
 678 204 l 2,59,60
 841 204 841 204 841 362 c 0,61,62
 841 441 841 441 801.5 478 c 128,-1,63
 762 515 762 515 688 515 c 2,64,-1
 629 515 l 1,65,-1
 629 204 l 1,58,-1
EndSplineSet
EndChar
StartChar: Onehundredreversed-roman
Encoding: 8579 8579 538
Width: 642
Flags: W
LayerCount: 2
Fore
SplineSet
257 -20 m 0,0,1
 196 -20 196 -20 152 -13 c 128,-1,2
 108 -6 108 -6 67 10 c 1,3,-1
 67 94 l 1,4,5
 110 81 110 81 152.5 73 c 128,-1,6
 195 65 195 65 242 65 c 0,7,8
 320 65 320 65 377 100.5 c 128,-1,9
 434 136 434 136 464.5 202 c 128,-1,10
 495 268 495 268 495 359 c 0,11,12
 495 495 495 495 431.5 574 c 128,-1,13
 368 653 368 653 242 653 c 0,14,15
 193 653 193 653 152 641 c 128,-1,16
 111 629 111 629 76 613 c 1,17,-1
 38 694 l 1,18,19
 79 715 79 715 134.5 726.5 c 128,-1,20
 190 738 190 738 257 738 c 0,21,22
 370 738 370 738 445.5 691.5 c 128,-1,23
 521 645 521 645 558.5 559.5 c 128,-1,24
 596 474 596 474 596 358 c 0,25,26
 596 246 596 246 555.5 161 c 128,-1,27
 515 76 515 76 439.5 28 c 128,-1,28
 364 -20 364 -20 257 -20 c 0,0,1
EndSplineSet
EndChar
StartChar: sixlateform-roman
Encoding: 8581 8581 542
Width: 642
Flags: W
LayerCount: 2
Fore
SplineSet
403 -258 m 1,0,-1
 403 -20 l 1,1,2
 275 -20 275 -20 196.5 29 c 128,-1,3
 118 78 118 78 82 163.5 c 128,-1,4
 46 249 46 249 46 359 c 0,5,6
 46 471 46 471 89 556 c 128,-1,7
 132 641 132 641 213.5 689.5 c 128,-1,8
 295 738 295 738 410 738 c 0,9,10
 468 738 468 738 521.5 726 c 128,-1,11
 575 714 575 714 618 694 c 1,12,-1
 578 613 l 1,13,14
 543 629 543 629 501 641 c 128,-1,15
 459 653 459 653 407 653 c 0,16,17
 286 653 286 653 216.5 574.5 c 128,-1,18
 147 496 147 496 147 358 c 0,19,20
 147 222 147 222 207.5 144 c 128,-1,21
 268 66 268 66 404 66 c 0,22,23
 430 66 430 66 452.5 69 c 128,-1,24
 475 72 475 72 496 79 c 1,25,-1
 496 -258 l 1,26,-1
 403 -258 l 1,0,-1
EndSplineSet
EndChar
StartChar: fiftyearlyform-roman
Encoding: 8582 8582 540
Width: 547
Flags: W
LayerCount: 2
Fore
SplineSet
268 -69 m 1,0,-1
 29 148 l 1,1,-1
 29 261 l 1,2,-1
 225 85 l 1,3,-1
 225 719 l 1,4,-1
 322 719 l 1,5,-1
 322 85 l 1,6,-1
 518 261 l 1,7,-1
 518 148 l 1,8,-1
 279 -69 l 1,9,-1
 268 -69 l 1,0,-1
EndSplineSet
EndChar
StartChar: threeTurned
Encoding: 8587 8587 1009
Width: 639
Flags: W
LayerCount: 2
Fore
SplineSet
321 -30 m 0,0,1
 207 -30 207 -30 150.5 21.5 c 128,-1,2
 94 73 94 73 94 151 c 0,3,4
 94 225 94 225 137.5 274.5 c 128,-1,5
 181 324 181 324 244 339 c 1,6,-1
 244 343 l 1,7,8
 158 354 158 354 115 405.5 c 128,-1,9
 72 457 72 457 72 528 c 0,10,11
 72 588 72 588 101.5 638 c 128,-1,12
 131 688 131 688 194.5 718 c 128,-1,13
 258 748 258 748 358 748 c 0,14,15
 410 748 410 748 463 739.5 c 128,-1,16
 516 731 516 731 562 708 c 1,17,-1
 561 619 l 1,18,19
 515 642 515 642 462 654 c 128,-1,20
 409 666 409 666 356 666 c 0,21,22
 261 666 261 666 217 627 c 128,-1,23
 173 588 173 588 173 525 c 0,24,25
 173 452 173 452 227 421 c 128,-1,26
 281 390 281 390 378 390 c 2,27,-1
 449 390 l 1,28,-1
 448 304 l 1,29,-1
 376 304 l 2,30,31
 288 304 288 304 241.5 265 c 128,-1,32
 195 226 195 226 195 166 c 0,33,34
 195 113 195 113 230 83 c 128,-1,35
 265 53 265 53 332 53 c 0,36,37
 385 53 385 53 427.5 69 c 128,-1,38
 470 85 470 85 510 112 c 1,39,-1
 554 50 l 1,40,41
 515 20 515 20 459 -5 c 128,-1,42
 403 -30 403 -30 321 -30 c 0,0,1
EndSplineSet
EndChar
StartChar: rightArrow
Encoding: 8594 8594 556
Width: 1000
Flags: W
LayerCount: 2
Fore
SplineSet
679 225 m 1,0,1
 710 289 710 289 737 321 c 1,2,-1
 154 321 l 1,3,-1
 154 363 l 1,4,-1
 737 363 l 1,5,6
 710 395 710 395 679 459 c 1,7,-1
 714 459 l 1,8,9
 777 386 777 386 846 351 c 1,10,-1
 846 333 l 1,11,12
 777 299 777 299 714 225 c 1,13,-1
 679 225 l 1,0,1
EndSplineSet
EndChar
StartChar: leftRightArrow
Encoding: 8596 8596 562
Width: 1000
Flags: W
LayerCount: 2
Fore
SplineSet
286 225 m 1,0,1
 223 299 223 299 154 333 c 1,2,-1
 154 351 l 1,3,4
 223 386 223 386 286 459 c 1,5,-1
 321 459 l 1,6,7
 290 395 290 395 263 363 c 1,8,-1
 737 363 l 1,9,10
 710 395 710 395 679 459 c 1,11,-1
 714 459 l 1,12,13
 777 386 777 386 846 351 c 1,14,-1
 846 333 l 1,15,16
 777 299 777 299 714 225 c 1,17,-1
 679 225 l 1,18,19
 710 289 710 289 737 321 c 1,20,-1
 263 321 l 1,21,22
 290 289 290 289 321 225 c 1,23,-1
 286 225 l 1,0,1
EndSplineSet
EndChar
StartChar: northEastArrow
Encoding: 8599 8599 555
Width: 750
Flags: W
LayerCount: 2
Fore
SplineSet
150 86 m 1,0,-1
 120 116 l 1,1,-1
 532 528 l 1,2,3
 489 532 489 532 423 555 c 1,4,-1
 448 580 l 1,5,6
 543 573 543 573 618 597 c 1,7,-1
 631 584 l 1,8,9
 618 548 618 548 614 505.5 c 128,-1,10
 610 463 610 463 614 415 c 1,11,-1
 589 390 l 1,12,13
 565 456 565 456 562 499 c 1,14,-1
 150 86 l 1,0,-1
EndSplineSet
EndChar
StartChar: diameterSign
Encoding: 8960 8960 786
Width: 571
Flags: W
LayerCount: 2
Fore
SplineSet
97 116 m 1,0,-1
 58 158 l 1,1,-1
 105 205 l 1,2,3
 51 270 51 270 51 354 c 0,4,5
 51 418 51 418 82.5 470.5 c 128,-1,6
 114 523 114 523 167 554.5 c 128,-1,7
 220 586 220 586 283 586 c 0,8,9
 367 586 367 586 431 532 c 1,10,-1
 482 583 l 1,11,-1
 520 540 l 1,12,-1
 470 490 l 1,13,14
 515 429 515 429 515 354 c 0,15,16
 515 291 515 291 483.5 238 c 128,-1,17
 452 185 452 185 399.5 153.5 c 128,-1,18
 347 122 347 122 283 122 c 0,19,20
 208 122 208 122 147 166 c 1,21,-1
 97 116 l 1,0,-1
149 249 m 1,22,-1
 387 487 l 1,23,24
 339 523 339 523 283 523 c 0,25,26
 236 523 236 523 197.5 500.5 c 128,-1,27
 159 478 159 478 136.5 439.5 c 128,-1,28
 114 401 114 401 114 354 c 0,29,30
 114 294 114 294 149 249 c 1,22,-1
283 185 m 0,31,32
 329 185 329 185 367.5 207.5 c 128,-1,33
 406 230 406 230 429 268.5 c 128,-1,34
 452 307 452 307 452 354 c 0,35,36
 452 402 452 402 426 445 c 1,37,-1
 192 211 l 1,38,39
 232 185 232 185 283 185 c 0,31,32
EndSplineSet
EndChar
StartChar: electricArrow
Encoding: 8961 8961 852
Width: 579
Flags: W
LayerCount: 2
Fore
SplineSet
316 201 m 1,0,-1
 51 388 l 1,1,-1
 51 460 l 1,2,-1
 263 311 l 1,3,-1
 263 500 l 1,4,-1
 528 315 l 1,5,-1
 528 243 l 1,6,-1
 316 392 l 1,7,-1
 316 201 l 1,0,-1
EndSplineSet
EndChar
StartChar: downArrowHead
Encoding: 8964 8964 564
Width: 512
Flags: W
LayerCount: 2
Fore
SplineSet
246 -94 m 1,0,-1
 51 282 l 1,1,-1
 132 282 l 1,2,-1
 256 36 l 1,3,-1
 380 282 l 1,4,-1
 461 282 l 1,5,-1
 266 -94 l 1,6,-1
 246 -94 l 1,0,-1
EndSplineSet
EndChar
StartChar: perspective
Encoding: 8966 8966 953
Width: 560
Flags: W
LayerCount: 2
Fore
SplineSet
51 608 m 1,0,-1
 51 679 l 1,1,-1
 509 679 l 1,2,-1
 509 608 l 1,3,-1
 51 608 l 1,0,-1
51 449 m 1,4,-1
 51 520 l 1,5,-1
 509 520 l 1,6,-1
 509 449 l 1,7,-1
 51 449 l 1,4,-1
76 0 m 1,8,-1
 271 376 l 1,9,-1
 291 376 l 1,10,-1
 486 0 l 1,11,-1
 405 0 l 1,12,-1
 281 246 l 1,13,-1
 157 0 l 1,14,-1
 76 0 l 1,8,-1
EndSplineSet
EndChar
StartChar: rightCeiling
Encoding: 8969 8969 547
Width: 404
Flags: W
LayerCount: 2
Fore
SplineSet
282 -80 m 1,0,-1
 282 730 l 1,1,-1
 51 730 l 1,2,-1
 51 794 l 1,3,-1
 353 794 l 1,4,-1
 353 -80 l 1,5,-1
 282 -80 l 1,0,-1
EndSplineSet
EndChar
StartChar: leftFloor
Encoding: 8970 8970 546
Width: 404
Flags: W
LayerCount: 2
Fore
SplineSet
51 -80 m 1,0,-1
 51 794 l 1,1,-1
 123 794 l 1,2,-1
 123 -16 l 1,3,-1
 353 -16 l 1,4,-1
 353 -80 l 1,5,-1
 51 -80 l 1,0,-1
EndSplineSet
EndChar
StartChar: rightFloor
Encoding: 8971 8971 548
Width: 404
Flags: W
LayerCount: 2
Fore
SplineSet
51 -80 m 1,0,-1
 51 -16 l 1,1,-1
 281 -16 l 1,2,-1
 281 794 l 1,3,-1
 353 794 l 1,4,-1
 353 -80 l 1,5,-1
 51 -80 l 1,0,-1
EndSplineSet
EndChar
StartChar: bottomLeftCrop
Encoding: 8973 8973 565
Width: 482
Flags: W
LayerCount: 2
Fore
SplineSet
71 0 m 1,0,-1
 71 71 l 1,1,-1
 320 71 l 1,2,-1
 320 0 l 1,3,-1
 71 0 l 1,0,-1
340 -297 m 1,4,-1
 340 -48 l 1,5,-1
 411 -48 l 1,6,-1
 411 -297 l 1,7,-1
 340 -297 l 1,4,-1
EndSplineSet
EndChar
StartChar: topRightCrop
Encoding: 8974 8974 568
Width: 522
Flags: W
LayerCount: 2
Fore
SplineSet
91 762 m 1,0,-1
 91 1011 l 1,1,-1
 162 1011 l 1,2,-1
 162 762 l 1,3,-1
 91 762 l 1,0,-1
182 643 m 1,4,-1
 182 714 l 1,5,-1
 431 714 l 1,6,-1
 431 643 l 1,7,-1
 182 643 l 1,4,-1
EndSplineSet
EndChar
StartChar: topLeftCrop
Encoding: 8975 8975 567
Width: 522
Flags: W
LayerCount: 2
Fore
SplineSet
360 762 m 1,0,-1
 360 1011 l 1,1,-1
 431 1011 l 1,2,-1
 431 762 l 1,3,-1
 360 762 l 1,0,-1
91 643 m 1,4,-1
 91 714 l 1,5,-1
 340 714 l 1,6,-1
 340 643 l 1,7,-1
 91 643 l 1,4,-1
EndSplineSet
EndChar
StartChar: squareLozenge
Encoding: 8977 8977 993
Width: 516
Flags: W
LayerCount: 2
Fore
SplineSet
51 133 m 1,0,1
 63 159 63 159 73.5 197.5 c 128,-1,2
 84 236 84 236 91 278 c 128,-1,3
 98 320 98 320 98 355 c 0,4,5
 98 389 98 389 91.5 430 c 128,-1,6
 85 471 85 471 74.5 510 c 128,-1,7
 64 549 64 549 51 577 c 1,8,9
 103 548 103 548 156.5 531.5 c 128,-1,10
 210 515 210 515 258 515 c 256,11,12
 306 515 306 515 360.5 531.5 c 128,-1,13
 415 548 415 548 465 577 c 1,14,15
 453 551 453 551 442 512 c 128,-1,16
 431 473 431 473 424.5 431 c 128,-1,17
 418 389 418 389 418 355 c 0,18,19
 418 320 418 320 425 277.5 c 128,-1,20
 432 235 432 235 443 196.5 c 128,-1,21
 454 158 454 158 465 133 c 1,22,23
 350 195 350 195 258 195 c 256,24,25
 166 195 166 195 51 133 c 1,0,1
141 237 m 1,26,27
 159 245 159 245 190.5 251.5 c 128,-1,28
 222 258 222 258 258 258 c 256,29,30
 294 258 294 258 325.5 251.5 c 128,-1,31
 357 245 357 245 375 237 c 1,32,33
 368 251 368 251 361.5 285.5 c 128,-1,34
 355 320 355 320 355 355 c 0,35,36
 355 393 355 393 361.5 426 c 128,-1,37
 368 459 368 459 375 473 c 1,38,39
 357 466 357 466 325.5 459 c 128,-1,40
 294 452 294 452 258 452 c 256,41,42
 222 452 222 452 190.5 459 c 128,-1,43
 159 466 159 466 141 473 c 1,44,45
 161 431 161 431 161 355 c 0,46,47
 161 320 161 320 155.5 287.5 c 128,-1,48
 150 255 150 255 141 237 c 1,26,27
EndSplineSet
EndChar
StartChar: arc
Encoding: 8978 8978 782
Width: 844
Flags: W
LayerCount: 2
Fore
SplineSet
51 112 m 1,0,1
 51 189 51 189 79.5 256 c 128,-1,2
 108 323 108 323 159 374 c 128,-1,3
 210 425 210 425 277.5 454 c 128,-1,4
 345 483 345 483 422 483 c 256,5,6
 499 483 499 483 566 454.5 c 128,-1,7
 633 426 633 426 684 375 c 128,-1,8
 735 324 735 324 764 256.5 c 128,-1,9
 793 189 793 189 793 112 c 1,10,-1
 722 112 l 1,11,12
 722 174 722 174 699 228.5 c 128,-1,13
 676 283 676 283 635 324 c 128,-1,14
 594 365 594 365 539.5 388.5 c 128,-1,15
 485 412 485 412 422 412 c 0,16,17
 360 412 360 412 305.5 388.5 c 128,-1,18
 251 365 251 365 210 324 c 128,-1,19
 169 283 169 283 145.5 228.5 c 128,-1,20
 122 174 122 174 122 112 c 1,21,-1
 51 112 l 1,0,1
EndSplineSet
EndChar
StartChar: segment
Encoding: 8979 8979 986
Width: 844
Flags: W
LayerCount: 2
Fore
SplineSet
51 112 m 1,0,1
 51 189 51 189 79.5 256 c 128,-1,2
 108 323 108 323 159 374 c 128,-1,3
 210 425 210 425 277.5 454 c 128,-1,4
 345 483 345 483 422 483 c 256,5,6
 499 483 499 483 566 454.5 c 128,-1,7
 633 426 633 426 684 375 c 128,-1,8
 735 324 735 324 764 256.5 c 128,-1,9
 793 189 793 189 793 112 c 1,10,-1
 51 112 l 1,0,1
128 175 m 1,11,-1
 715 175 l 1,12,13
 701 244 701 244 658 297.5 c 128,-1,14
 615 351 615 351 553.5 381.5 c 128,-1,15
 492 412 492 412 422 412 c 0,16,17
 351 412 351 412 289.5 381 c 128,-1,18
 228 350 228 350 185.5 296.5 c 128,-1,19
 143 243 143 243 128 175 c 1,11,-1
EndSplineSet
EndChar
StartChar: topLeftCorner
Encoding: 8988 8988 813
Width: 442
Flags: W
LayerCount: 2
Fore
SplineSet
51 346 m 1,0,-1
 51 714 l 1,1,-1
 391 714 l 1,2,-1
 391 643 l 1,3,-1
 122 643 l 1,4,-1
 122 346 l 1,5,-1
 51 346 l 1,0,-1
EndSplineSet
EndChar
StartChar: topRightcorner
Encoding: 8989 8989 812
Width: 442
Flags: W
LayerCount: 2
Fore
SplineSet
320 346 m 1,0,-1
 320 643 l 1,1,-1
 51 643 l 1,2,-1
 51 714 l 1,3,-1
 391 714 l 1,4,-1
 391 346 l 1,5,-1
 320 346 l 1,0,-1
EndSplineSet
EndChar
StartChar: bottomLeftCorner
Encoding: 8990 8990 810
Width: 442
Flags: W
LayerCount: 2
Fore
SplineSet
51 0 m 1,0,-1
 51 368 l 1,1,-1
 122 368 l 1,2,-1
 122 71 l 1,3,-1
 391 71 l 1,4,-1
 391 0 l 1,5,-1
 51 0 l 1,0,-1
EndSplineSet
EndChar
StartChar: frown
Encoding: 8994 8994 858
Width: 951
Flags: W
LayerCount: 2
Fore
SplineSet
51 208 m 1,0,1
 102 273 102 273 169 319 c 128,-1,2
 236 365 236 365 314 390 c 128,-1,3
 392 415 392 415 475 415 c 0,4,5
 601 415 601 415 712.5 360 c 128,-1,6
 824 305 824 305 900 208 c 1,7,-1
 806 208 l 1,8,9
 739 274 739 274 653 309 c 128,-1,10
 567 344 567 344 475 344 c 256,11,12
 383 344 383 344 296.5 309 c 128,-1,13
 210 274 210 274 144 208 c 1,14,-1
 51 208 l 1,0,1
EndSplineSet
EndChar
StartChar: allAroundProfile
Encoding: 9006 9006 772
Width: 710
Flags: W
LayerCount: 2
Fore
SplineSet
208 49 m 1,0,-1
 59 55 l 1,1,-1
 51 202 l 1,2,-1
 114 141 l 1,3,-1
 174 202 l 1,4,5
 117 265 117 265 117 349 c 0,6,7
 117 409 117 409 146.5 458.5 c 128,-1,8
 176 508 176 508 226 537.5 c 128,-1,9
 276 567 276 567 335 567 c 0,10,11
 391 567 391 567 438.5 540.5 c 128,-1,12
 486 514 486 514 516.5 470 c 128,-1,13
 547 426 547 426 552 371 c 1,14,-1
 659 371 l 1,15,-1
 659 328 l 1,16,-1
 552 328 l 1,17,18
 547 274 547 274 516.5 229 c 128,-1,19
 486 184 486 184 438.5 157.5 c 128,-1,20
 391 131 391 131 335 131 c 0,21,22
 265 131 265 131 206 173 c 1,23,-1
 145 111 l 1,24,-1
 208 49 l 1,0,-1
209 237 m 1,25,-1
 341 371 l 1,26,-1
 502 371 l 1,27,28
 497 412 497 412 473 445 c 128,-1,29
 449 478 449 478 413 497.5 c 128,-1,30
 377 517 377 517 335 517 c 0,31,32
 289 517 289 517 250.5 494 c 128,-1,33
 212 471 212 471 189.5 433 c 128,-1,34
 167 395 167 395 167 349 c 0,35,36
 167 287 167 287 209 237 c 1,25,-1
335 181 m 0,37,38
 378 181 378 181 414 200.5 c 128,-1,39
 450 220 450 220 473.5 253.5 c 128,-1,40
 497 287 497 287 502 328 c 1,41,-1
 358 328 l 1,42,-1
 241 209 l 1,43,44
 282 181 282 181 335 181 c 0,37,38
EndSplineSet
EndChar
StartChar: symmetry
Encoding: 9007 9007 1005
Width: 572
Flags: W
LayerCount: 2
Fore
SplineSet
140 457 m 1,0,-1
 140 528 l 1,1,-1
 431 528 l 1,2,-1
 431 457 l 1,3,-1
 140 457 l 1,0,-1
50 317 m 1,4,-1
 50 388 l 1,5,-1
 521 388 l 1,6,-1
 521 317 l 1,7,-1
 50 317 l 1,4,-1
140 177 m 1,8,-1
 140 248 l 1,9,-1
 431 248 l 1,10,-1
 431 177 l 1,11,-1
 140 177 l 1,8,-1
EndSplineSet
EndChar
StartChar: totalRunout
Encoding: 9008 9008 1012
Width: 809
Flags: W
LayerCount: 2
Fore
SplineSet
51 0 m 1,0,-1
 237 631 l 1,1,-1
 163 656 l 1,2,-1
 303 710 l 1,3,-1
 380 581 l 1,4,-1
 304 607 l 1,5,-1
 145 71 l 1,6,-1
 450 71 l 1,7,-1
 615 631 l 1,8,-1
 541 656 l 1,9,-1
 681 710 l 1,10,-1
 758 581 l 1,11,-1
 682 607 l 1,12,-1
 501 0 l 1,13,-1
 51 0 l 1,0,-1
EndSplineSet
EndChar
StartChar: dimensionOrigin
Encoding: 9009 9009 843
Width: 810
Flags: W
LayerCount: 2
Fore
SplineSet
245 0 m 1,0,-1
 245 131 l 1,1,2
 190 137 190 137 146 167.5 c 128,-1,3
 102 198 102 198 76 245.5 c 128,-1,4
 50 293 50 293 50 349 c 256,5,6
 50 405 50 405 76 452.5 c 128,-1,7
 102 500 102 500 146 530.5 c 128,-1,8
 190 561 190 561 245 567 c 1,9,-1
 245 714 l 1,10,-1
 293 714 l 1,11,-1
 293 567 l 1,12,13
 344 561 344 561 386 534 c 128,-1,14
 428 507 428 507 455 464.5 c 128,-1,15
 482 422 482 422 487 371 c 1,16,-1
 660 371 l 1,17,-1
 660 459 l 1,18,-1
 759 350 l 1,19,-1
 660 241 l 1,20,-1
 660 328 l 1,21,-1
 487 328 l 1,22,23
 482 276 482 276 455.5 233.5 c 128,-1,24
 429 191 429 191 386.5 164 c 128,-1,25
 344 137 344 137 293 131 c 1,26,-1
 293 0 l 1,27,-1
 245 0 l 1,0,-1
100 349 m 256,28,29
 100 307 100 307 119 271 c 128,-1,30
 138 235 138 235 171 211.5 c 128,-1,31
 204 188 204 188 245 182 c 1,32,-1
 245 516 l 1,33,34
 204 510 204 510 171 486.5 c 128,-1,35
 138 463 138 463 119 427 c 128,-1,36
 100 391 100 391 100 349 c 256,28,29
293 371 m 1,37,-1
 437 371 l 1,38,39
 429 427 429 427 389 467.5 c 128,-1,40
 349 508 349 508 293 516 c 1,41,-1
 293 371 l 1,37,-1
293 328 m 1,42,-1
 293 182 l 1,43,44
 349 190 349 190 389.5 230.5 c 128,-1,45
 430 271 430 271 437 328 c 1,46,-1
 293 328 l 1,42,-1
EndSplineSet
EndChar
StartChar: slope
Encoding: 9011 9011 988
Width: 872
Flags: W
LayerCount: 2
Fore
SplineSet
51 264 m 1,0,-1
 51 640 l 1,1,-1
 821 282 l 1,2,-1
 821 264 l 1,3,-1
 51 264 l 1,0,-1
122 333 m 1,4,-1
 561 333 l 1,5,-1
 122 541 l 1,6,-1
 122 333 l 1,4,-1
EndSplineSet
EndChar
StartChar: continuousunderlinesymbol
Encoding: 9089 9089 806
Width: 812
Flags: W
LayerCount: 2
Fore
SplineSet
173 353 m 0,0,1
 126 353 126 353 98 377 c 128,-1,2
 70 401 70 401 70 452 c 0,3,4
 70 551 70 551 228 557 c 2,5,-1
 284 559 l 1,6,-1
 284 581 l 2,7,8
 284 611 284 611 265 625.5 c 128,-1,9
 246 640 246 640 213 640 c 0,10,11
 166 640 166 640 112 614 c 1,12,-1
 90 663 l 1,13,14
 150 692 150 692 215 692 c 256,15,16
 280 692 280 692 313 665.5 c 128,-1,17
 346 639 346 639 346 579 c 2,18,-1
 346 359 l 1,19,-1
 299 359 l 1,20,-1
 287 401 l 1,21,22
 240 353 240 353 173 353 c 0,0,1
188 404 m 0,23,24
 284 404 284 404 284 491 c 2,25,-1
 284 514 l 1,26,-1
 236 512 l 2,27,28
 181 510 181 510 157.5 496.5 c 128,-1,29
 134 483 134 483 134 452 c 0,30,31
 134 404 134 404 188 404 c 0,23,24
438 339 m 0,32,33
 422 339 422 339 410.5 350.5 c 128,-1,34
 399 362 399 362 399 378 c 0,35,36
 399 395 399 395 410.5 406 c 128,-1,37
 422 417 422 417 438 417 c 0,38,39
 455 417 455 417 466 406 c 128,-1,40
 477 395 477 395 477 378 c 0,41,42
 477 362 477 362 466 350.5 c 128,-1,43
 455 339 455 339 438 339 c 0,32,33
575 339 m 0,44,45
 559 339 559 339 547.5 350.5 c 128,-1,46
 536 362 536 362 536 378 c 0,47,48
 536 395 536 395 547.5 406 c 128,-1,49
 559 417 559 417 575 417 c 0,50,51
 592 417 592 417 603 406 c 128,-1,52
 614 395 614 395 614 378 c 0,53,54
 614 362 614 362 603 350.5 c 128,-1,55
 592 339 592 339 575 339 c 0,44,45
712 339 m 0,56,57
 696 339 696 339 684.5 350.5 c 128,-1,58
 673 362 673 362 673 378 c 0,59,60
 673 395 673 395 684.5 406 c 128,-1,61
 696 417 696 417 712 417 c 0,62,63
 729 417 729 417 740 406 c 128,-1,64
 751 395 751 395 751 378 c 0,65,66
 751 362 751 362 740 350.5 c 128,-1,67
 729 339 729 339 712 339 c 0,56,57
60 219 m 1,68,-1
 60 290 l 1,69,-1
 751 290 l 1,70,-1
 751 219 l 1,71,-1
 60 219 l 1,68,-1
EndSplineSet
EndChar
StartChar: emphasissymbol
Encoding: 9091 9091 854
Width: 812
Flags: W
LayerCount: 2
Fore
SplineSet
226 427 m 1,0,-1
 52 499 l 1,1,-1
 78 556 l 1,2,-1
 226 490 l 1,3,-1
 226 427 l 1,0,-1
586 427 m 1,4,-1
 586 490 l 1,5,-1
 733 556 l 1,6,-1
 758 499 l 1,7,-1
 586 427 l 1,4,-1
365 187 m 0,8,9
 318 187 318 187 290.5 211.5 c 128,-1,10
 263 236 263 236 263 286 c 256,11,12
 263 336 263 336 301.5 362 c 128,-1,13
 340 388 340 388 420 391 c 2,14,-1
 477 393 l 1,15,-1
 477 415 l 2,16,17
 477 445 477 445 458 459.5 c 128,-1,18
 439 474 439 474 405 474 c 0,19,20
 357 474 357 474 305 448 c 1,21,-1
 282 497 l 1,22,23
 342 526 342 526 407 526 c 0,24,25
 474 526 474 526 506.5 499 c 128,-1,26
 539 472 539 472 539 413 c 2,27,-1
 539 193 l 1,28,-1
 492 193 l 1,29,-1
 479 235 l 1,30,31
 433 187 433 187 365 187 c 0,8,9
39 322 m 1,32,-1
 39 385 l 1,33,-1
 226 385 l 1,34,-1
 226 322 l 1,35,-1
 39 322 l 1,32,-1
586 322 m 1,36,-1
 586 385 l 1,37,-1
 773 385 l 1,38,-1
 773 322 l 1,39,-1
 586 322 l 1,36,-1
380 238 m 0,40,41
 477 238 477 238 477 325 c 2,42,-1
 477 348 l 1,43,-1
 428 346 l 2,44,45
 373 344 373 344 350 330 c 128,-1,46
 327 316 327 316 327 286 c 0,47,48
 327 238 327 238 380 238 c 0,40,41
78 156 m 1,49,-1
 52 214 l 1,50,-1
 226 280 l 1,51,-1
 226 217 l 1,52,-1
 78 156 l 1,49,-1
733 156 m 1,53,-1
 586 217 l 1,54,-1
 586 280 l 1,55,-1
 758 214 l 1,56,-1
 733 156 l 1,53,-1
EndSplineSet
EndChar
StartChar: entersymbol
Encoding: 9094 9094 855
Width: 817
Flags: W
LayerCount: 2
Fore
SplineSet
401 -9 m 1,0,-1
 156 236 l 1,1,-1
 257 236 l 1,2,-1
 401 92 l 1,3,-1
 665 356 l 1,4,-1
 401 620 l 1,5,-1
 257 476 l 1,6,-1
 156 476 l 1,7,-1
 401 721 l 1,8,-1
 766 356 l 1,9,-1
 401 -9 l 1,0,-1
364 165 m 1,10,-1
 364 283 l 1,11,-1
 51 283 l 1,12,-1
 51 429 l 1,13,-1
 364 429 l 1,14,-1
 364 547 l 1,15,-1
 549 356 l 1,16,-1
 364 165 l 1,10,-1
398 255 m 1,17,-1
 496 356 l 1,18,-1
 398 457 l 1,19,-1
 398 392 l 1,20,-1
 88 392 l 1,21,-1
 88 320 l 1,22,-1
 398 320 l 1,23,-1
 398 255 l 1,17,-1
EndSplineSet
EndChar
StartChar: alternativekeysymbol
Encoding: 9095 9095 773
Width: 1053
Flags: W
LayerCount: 2
Fore
SplineSet
51 114 m 1,0,-1
 51 185 l 1,1,-1
 355 185 l 1,2,-1
 473 444 l 1,3,-1
 691 444 l 1,4,-1
 691 573 l 1,5,-1
 1002 409 l 1,6,-1
 691 245 l 1,7,-1
 691 373 l 1,8,-1
 527 373 l 1,9,-1
 408 114 l 1,10,-1
 51 114 l 1,0,-1
747 335 m 1,11,-1
 896 409 l 1,12,-1
 747 483 l 1,13,-1
 747 335 l 1,11,-1
524 114 m 1,14,-1
 524 185 l 1,15,-1
 992 185 l 1,16,-1
 992 114 l 1,17,-1
 524 114 l 1,14,-1
EndSplineSet
EndChar
StartChar: helmsymbol
Encoding: 9096 9096 865
Width: 961
Flags: W
LayerCount: 2
Fore
SplineSet
87 74 m 1,0,-1
 52 135 l 1,1,-1
 173 205 l 1,2,3
 144 270 144 270 144 341 c 256,4,5
 144 412 144 412 173 477 c 1,6,-1
 52 547 l 1,7,-1
 87 608 l 1,8,-1
 208 538 l 1,9,10
 249 594 249 594 310 630.5 c 128,-1,11
 371 667 371 667 444 674 c 1,12,-1
 444 814 l 1,13,-1
 514 814 l 1,14,-1
 514 674 l 1,15,16
 587 667 587 667 648 630.5 c 128,-1,17
 709 594 709 594 750 538 c 1,18,-1
 871 608 l 1,19,-1
 906 547 l 1,20,-1
 785 477 l 1,21,22
 814 412 814 412 814 341 c 256,23,24
 814 270 814 270 785 205 c 1,25,-1
 906 135 l 1,26,-1
 871 74 l 1,27,-1
 750 144 l 1,28,29
 709 88 709 88 648 51.5 c 128,-1,30
 587 15 587 15 514 8 c 1,31,-1
 514 -132 l 1,32,-1
 444 -132 l 1,33,-1
 444 8 l 1,34,35
 371 15 371 15 310 51.5 c 128,-1,36
 249 88 249 88 208 144 c 1,37,-1
 87 74 l 1,0,-1
270 502 m 1,38,-1
 444 402 l 1,39,-1
 444 603 l 1,40,41
 391 596 391 596 346 569.5 c 128,-1,42
 301 543 301 543 270 502 c 1,38,-1
514 603 m 1,43,-1
 514 402 l 1,44,-1
 688 502 l 1,45,46
 657 543 657 543 612 569.5 c 128,-1,47
 567 596 567 596 514 603 c 1,43,-1
215 341 m 256,48,49
 215 289 215 289 235 241 c 1,50,-1
 409 341 l 1,51,-1
 235 441 l 1,52,53
 215 393 215 393 215 341 c 256,48,49
743 341 m 256,54,55
 743 393 743 393 723 441 c 1,56,-1
 549 341 l 1,57,-1
 723 241 l 1,58,59
 743 289 743 289 743 341 c 256,54,55
270 180 m 1,60,61
 301 139 301 139 346 112.5 c 128,-1,62
 391 86 391 86 444 79 c 1,63,-1
 444 280 l 1,64,-1
 270 180 l 1,60,61
514 280 m 1,65,-1
 514 79 l 1,66,67
 567 86 567 86 612 112.5 c 128,-1,68
 657 139 657 139 688 180 c 1,69,-1
 514 280 l 1,65,-1
EndSplineSet
EndChar
StartChar: downCircledTriangle
Encoding: 9098 9098 849
Width: 772
Flags: W
LayerCount: 2
Fore
SplineSet
386 6 m 0,0,1
 317 6 317 6 256.5 32 c 128,-1,2
 196 58 196 58 149.5 104 c 128,-1,3
 103 150 103 150 77 211 c 128,-1,4
 51 272 51 272 51 341 c 256,5,6
 51 410 51 410 77 470.5 c 128,-1,7
 103 531 103 531 149.5 577.5 c 128,-1,8
 196 624 196 624 256.5 650 c 128,-1,9
 317 676 317 676 386 676 c 256,10,11
 455 676 455 676 516 650 c 128,-1,12
 577 624 577 624 623 578 c 128,-1,13
 669 532 669 532 695 471 c 128,-1,14
 721 410 721 410 721 341 c 256,15,16
 721 272 721 272 695 211 c 128,-1,17
 669 150 669 150 623 104 c 128,-1,18
 577 58 577 58 516.5 32 c 128,-1,19
 456 6 456 6 386 6 c 0,0,1
164 484 m 1,20,-1
 608 484 l 1,21,22
 571 541 571 541 513 573 c 128,-1,23
 455 605 455 605 386 605 c 256,24,25
 317 605 317 605 258 572.5 c 128,-1,26
 199 540 199 540 164 484 c 1,20,-1
395 77 m 1,27,28
 467 80 467 80 524.5 116 c 128,-1,29
 582 152 582 152 616 211 c 128,-1,30
 650 270 650 270 650 341 c 0,31,32
 650 399 650 399 628 447 c 1,33,-1
 395 77 l 1,27,28
374 77 m 1,34,-1
 143 445 l 1,35,36
 122 399 122 399 122 341 c 0,37,38
 122 271 122 271 156 212 c 128,-1,39
 190 153 190 153 247 116.5 c 128,-1,40
 304 80 304 80 374 77 c 1,34,-1
385 178 m 1,41,-1
 539 424 l 1,42,-1
 231 424 l 1,43,-1
 385 178 l 1,41,-1
EndSplineSet
EndChar
StartChar: brokenCircleNorthWestArrow
Encoding: 9099 9099 797
Width: 774
Flags: W
LayerCount: 2
Fore
SplineSet
439 233 m 1,0,-1
 168 509 l 1,1,-1
 100 441 l 1,2,-1
 51 681 l 1,3,-1
 286 627 l 1,4,-1
 219 559 l 1,5,-1
 490 283 l 1,6,-1
 439 233 l 1,0,-1
388 6 m 0,7,8
 318 6 318 6 257.5 32.5 c 128,-1,9
 197 59 197 59 151 105 c 128,-1,10
 105 151 105 151 79 211.5 c 128,-1,11
 53 272 53 272 53 341 c 1,12,-1
 124 341 l 1,13,14
 124 268 124 268 159.5 208 c 128,-1,15
 195 148 195 148 255 112.5 c 128,-1,16
 315 77 315 77 388 77 c 0,17,18
 462 77 462 77 521.5 112.5 c 128,-1,19
 581 148 581 148 616.5 208 c 128,-1,20
 652 268 652 268 652 341 c 0,21,22
 652 415 652 415 617 474.5 c 128,-1,23
 582 534 582 534 522 569.5 c 128,-1,24
 462 605 462 605 388 605 c 1,25,-1
 388 676 l 1,26,27
 457 676 457 676 518 650 c 128,-1,28
 579 624 579 624 625 578 c 128,-1,29
 671 532 671 532 697 471 c 128,-1,30
 723 410 723 410 723 341 c 0,31,32
 723 271 723 271 696.5 210.5 c 128,-1,33
 670 150 670 150 624 104 c 128,-1,34
 578 58 578 58 517.5 32 c 128,-1,35
 457 6 457 6 388 6 c 0,7,8
129 528 m 1,36,-1
 200 599 l 1,37,-1
 109 622 l 1,38,-1
 129 528 l 1,36,-1
EndSplineSet
EndChar
StartChar: hysteresissymbol
Encoding: 9102 9102 869
Width: 686
Flags: W
LayerCount: 2
Fore
SplineSet
51 0 m 1,0,-1
 51 28 l 1,1,2
 97 44 97 44 117 81 c 128,-1,3
 137 118 137 118 137 179 c 2,4,-1
 137 542 l 2,5,6
 137 621 137 621 180 667.5 c 128,-1,7
 223 714 223 714 296 714 c 2,8,-1
 635 714 l 1,9,-1
 635 686 l 1,10,11
 589 670 589 670 569 633.5 c 128,-1,12
 549 597 549 597 549 535 c 2,13,-1
 549 172 l 2,14,15
 549 93 549 93 506.5 46.5 c 128,-1,16
 464 0 464 0 390 0 c 2,17,-1
 51 0 l 1,0,-1
176 71 m 1,18,-1
 390 71 l 2,19,20
 431 71 431 71 454.5 97 c 128,-1,21
 478 123 478 123 478 172 c 2,22,-1
 478 535 l 2,23,24
 478 611 478 611 510 640 c 1,25,-1
 510 643 l 1,26,-1
 296 643 l 2,27,28
 256 643 256 643 232 616.5 c 128,-1,29
 208 590 208 590 208 542 c 2,30,-1
 208 179 l 2,31,32
 208 104 208 104 176 74 c 1,33,-1
 176 71 l 1,18,-1
EndSplineSet
EndChar
StartChar: passive-pull-up-outputsymbol
Encoding: 9106 9106 952
Width: 862
Flags: W
LayerCount: 2
Fore
SplineSet
51 0 m 1,0,-1
 51 71 l 1,1,-1
 360 71 l 1,2,-1
 51 380 l 1,3,-1
 431 760 l 1,4,-1
 811 380 l 1,5,-1
 502 71 l 1,6,-1
 811 71 l 1,7,-1
 811 0 l 1,8,-1
 51 0 l 1,0,-1
189 416 m 1,9,-1
 673 416 l 1,10,-1
 431 658 l 1,11,-1
 189 416 l 1,9,-1
431 102 m 1,12,-1
 674 345 l 1,13,-1
 188 345 l 1,14,-1
 431 102 l 1,12,-1
EndSplineSet
EndChar
StartChar: software-functionsymbol
Encoding: 9108 9108 991
Width: 828
Flags: W
LayerCount: 2
Fore
SplineSet
231 44 m 1,0,-1
 51 357 l 1,1,-1
 231 670 l 1,2,-1
 597 670 l 1,3,-1
 777 357 l 1,4,-1
 597 44 l 1,5,-1
 231 44 l 1,0,-1
279 103 m 1,6,-1
 549 103 l 1,7,-1
 698 357 l 1,8,-1
 549 611 l 1,9,-1
 279 611 l 1,10,-1
 130 357 l 1,11,-1
 279 103 l 1,6,-1
EndSplineSet
EndChar
StartChar: decimalseparatorkeysymbol
Encoding: 9110 9110 827
Width: 470
Flags: W
LayerCount: 2
Fore
SplineSet
51 0 m 1,0,-1
 51 714 l 1,1,-1
 419 714 l 1,2,-1
 51 0 l 1,0,-1
EndSplineSet
EndChar
StartChar: previouspage
Encoding: 9111 9111 959
Width: 931
Flags: W
LayerCount: 2
Fore
SplineSet
363 0 m 1,0,-1
 363 112 l 1,1,-1
 238 112 l 1,2,-1
 238 170 l 1,3,-1
 363 170 l 1,4,-1
 363 325 l 1,5,-1
 324 325 l 1,6,-1
 324 219 l 1,7,-1
 158 391 l 1,8,-1
 324 563 l 1,9,-1
 324 457 l 1,10,-1
 363 457 l 1,11,-1
 363 590 l 1,12,-1
 510 590 l 1,13,-1
 510 644 l 1,14,-1
 430 644 l 1,15,-1
 430 702 l 1,16,-1
 568 702 l 1,17,-1
 568 590 l 1,18,-1
 880 590 l 1,19,-1
 880 0 l 1,20,-1
 363 0 l 1,0,-1
51 620 m 1,21,-1
 51 702 l 1,22,-1
 190 702 l 1,23,-1
 190 644 l 1,24,-1
 109 644 l 1,25,-1
 109 620 l 1,26,-1
 51 620 l 1,21,-1
238 644 m 1,27,-1
 238 702 l 1,28,-1
 382 702 l 1,29,-1
 382 644 l 1,30,-1
 238 644 l 1,27,-1
51 429 m 1,31,-1
 51 572 l 1,32,-1
 109 572 l 1,33,-1
 109 429 l 1,34,-1
 51 429 l 1,31,-1
422 58 m 1,35,-1
 822 58 l 1,36,-1
 822 532 l 1,37,-1
 422 532 l 1,38,-1
 422 457 l 1,39,-1
 606 457 l 1,40,-1
 606 325 l 1,41,-1
 422 325 l 1,42,-1
 422 58 l 1,35,-1
294 300 m 1,43,-1
 294 359 l 1,44,-1
 573 359 l 1,45,-1
 573 423 l 1,46,-1
 294 423 l 1,47,-1
 294 482 l 1,48,-1
 206 391 l 1,49,-1
 294 300 l 1,43,-1
51 240 m 1,50,-1
 51 381 l 1,51,-1
 109 381 l 1,52,-1
 109 240 l 1,53,-1
 51 240 l 1,50,-1
51 112 m 1,54,-1
 51 192 l 1,55,-1
 109 192 l 1,56,-1
 109 170 l 1,57,-1
 190 170 l 1,58,-1
 190 112 l 1,59,-1
 51 112 l 1,54,-1
EndSplineSet
EndChar
StartChar: clearscreensymbol
Encoding: 9114 9114 803
Width: 1064
Flags: W
LayerCount: 2
Fore
SplineSet
532 -16 m 0,0,1
 447 -16 447 -16 363 -11.5 c 128,-1,2
 279 -7 279 -7 208.5 2 c 128,-1,3
 138 11 138 11 92 22 c 1,4,5
 77 71 77 71 68 111.5 c 128,-1,6
 59 152 59 152 55 194.5 c 128,-1,7
 51 237 51 237 51 291 c 0,8,9
 51 344 51 344 55 387.5 c 128,-1,10
 59 431 59 431 68 472.5 c 128,-1,11
 77 514 77 514 92 560 c 1,12,13
 138 572 138 572 209 580.5 c 128,-1,14
 280 589 280 589 364 593.5 c 128,-1,15
 448 598 448 598 532 598 c 0,16,17
 618 598 618 598 701 593.5 c 128,-1,18
 784 589 784 589 854.5 580.5 c 128,-1,19
 925 572 925 572 972 560 c 1,20,21
 987 513 987 513 996 471.5 c 128,-1,22
 1005 430 1005 430 1009 387 c 128,-1,23
 1013 344 1013 344 1013 291 c 0,24,25
 1013 236 1013 236 1009 193.5 c 128,-1,26
 1005 151 1005 151 996.5 110.5 c 128,-1,27
 988 70 988 70 972 22 c 1,28,29
 925 11 925 11 855 2 c 128,-1,30
 785 -7 785 -7 702 -11.5 c 128,-1,31
 619 -16 619 -16 532 -16 c 0,0,1
532 55 m 0,32,33
 577 55 577 55 630.5 57 c 128,-1,34
 684 59 684 59 737 63 c 128,-1,35
 790 67 790 67 836 72 c 128,-1,36
 882 77 882 77 913 84 c 1,37,38
 942 163 942 163 942 291 c 256,39,40
 942 419 942 419 913 498 c 1,41,42
 882 505 882 505 836 510 c 128,-1,43
 790 515 790 515 737 519 c 128,-1,44
 684 523 684 523 630.5 525 c 128,-1,45
 577 527 577 527 532 527 c 256,46,47
 487 527 487 527 433 525 c 128,-1,48
 379 523 379 523 325.5 519 c 128,-1,49
 272 515 272 515 226.5 510 c 128,-1,50
 181 505 181 505 151 498 c 1,51,52
 122 419 122 419 122 291 c 256,53,54
 122 163 122 163 151 84 c 1,55,56
 180 77 180 77 225.5 72 c 128,-1,57
 271 67 271 67 324.5 63 c 128,-1,58
 378 59 378 59 432 57 c 128,-1,59
 486 55 486 55 532 55 c 0,32,33
357 72 m 1,60,-1
 319 105 l 1,61,-1
 704 514 l 1,62,-1
 743 480 l 1,63,-1
 357 72 l 1,60,-1
362 218 m 1,64,-1
 326 250 l 1,65,-1
 564 506 l 1,66,-1
 603 471 l 1,67,-1
 362 218 l 1,64,-1
496 78 m 1,68,-1
 459 111 l 1,69,-1
 698 366 l 1,70,-1
 737 332 l 1,71,-1
 496 78 l 1,68,-1
EndSplineSet
EndChar
StartChar: verticalandbottomright-dentistry
Encoding: 9151 9151 829
Width: 755
Flags: W
LayerCount: 2
Fore
SplineSet
344 0 m 1,0,-1
 344 714 l 1,1,-1
 415 714 l 1,2,-1
 415 64 l 1,3,-1
 704 64 l 1,4,-1
 704 0 l 1,5,-1
 344 0 l 1,0,-1
EndSplineSet
EndChar
StartChar: verticalcircle-dentistry
Encoding: 9152 9152 830
Width: 755
Flags: W
LayerCount: 2
Fore
SplineSet
342 0 m 1,0,-1
 342 144 l 1,1,2
 293 153 293 153 253.5 182 c 128,-1,3
 214 211 214 211 191.5 255 c 128,-1,4
 169 299 169 299 169 349 c 0,5,6
 169 400 169 400 191.5 443.5 c 128,-1,7
 214 487 214 487 253.5 516.5 c 128,-1,8
 293 546 293 546 342 554 c 1,9,-1
 342 714 l 1,10,-1
 413 714 l 1,11,-1
 413 554 l 1,12,13
 463 547 463 547 502 517.5 c 128,-1,14
 541 488 541 488 563.5 444.5 c 128,-1,15
 586 401 586 401 586 349 c 0,16,17
 586 299 586 299 563.5 255 c 128,-1,18
 541 211 541 211 502 181.5 c 128,-1,19
 463 152 463 152 413 143 c 1,20,-1
 413 0 l 1,21,-1
 342 0 l 1,0,-1
413 210 m 1,22,23
 462 222 462 222 491.5 260.5 c 128,-1,24
 521 299 521 299 521 349 c 0,25,26
 521 400 521 400 490.5 438 c 128,-1,27
 460 476 460 476 413 488 c 1,28,-1
 413 210 l 1,22,23
342 210 m 1,29,-1
 342 487 l 1,30,31
 296 477 296 477 265 438 c 128,-1,32
 234 399 234 399 234 349 c 0,33,34
 234 300 234 300 264 261 c 128,-1,35
 294 222 294 222 342 210 c 1,29,-1
EndSplineSet
EndChar
StartChar: upandhorizontaltriangle-dentistry
Encoding: 9157 9157 835
Width: 755
Flags: W
LayerCount: 2
Fore
SplineSet
51 0 m 1,0,-1
 51 71 l 1,1,-1
 341 71 l 1,2,-1
 341 141 l 1,3,-1
 139 141 l 1,4,-1
 139 193 l 1,5,-1
 341 569 l 1,6,-1
 341 714 l 1,7,-1
 412 714 l 1,8,-1
 412 569 l 1,9,-1
 615 193 l 1,10,-1
 615 141 l 1,11,-1
 412 141 l 1,12,-1
 412 71 l 1,13,-1
 704 71 l 1,14,-1
 704 0 l 1,15,-1
 51 0 l 1,0,-1
412 206 m 1,16,-1
 536 206 l 1,17,-1
 412 454 l 1,18,-1
 412 206 l 1,16,-1
217 206 m 1,19,-1
 341 206 l 1,20,-1
 341 452 l 1,21,-1
 217 206 l 1,19,-1
EndSplineSet
EndChar
StartChar: verticalandwave-dentistry
Encoding: 9158 9158 836
Width: 755
Flags: W
LayerCount: 2
Fore
SplineSet
342 0 m 1,0,-1
 342 333 l 1,1,2
 297 344 297 344 264 350 c 128,-1,3
 231 356 231 356 209 356 c 0,4,5
 135 356 135 356 51 290 c 1,6,-1
 51 367 l 1,7,8
 86 396 86 396 125.5 411 c 128,-1,9
 165 426 165 426 218 426 c 0,10,11
 232 426 232 426 254 423 c 128,-1,12
 276 420 276 420 300 415 c 128,-1,13
 324 410 324 410 342 405 c 1,14,-1
 342 714 l 1,15,-1
 413 714 l 1,16,-1
 413 386 l 1,17,18
 505 360 505 360 547 360 c 0,19,20
 622 360 622 360 704 426 c 1,21,-1
 704 350 l 1,22,23
 667 319 667 319 628 304.5 c 128,-1,24
 589 290 589 290 540 290 c 0,25,26
 520 290 520 290 488.5 296 c 128,-1,27
 457 302 457 302 413 313 c 1,28,-1
 413 0 l 1,29,-1
 342 0 l 1,0,-1
EndSplineSet
EndChar
StartChar: downandhorizontalwave-dentistry
Encoding: 9159 9159 837
Width: 755
Flags: W
LayerCount: 2
Fore
SplineSet
342 0 m 1,0,-1
 342 333 l 1,1,2
 297 344 297 344 264 350 c 128,-1,3
 231 356 231 356 209 356 c 0,4,5
 135 356 135 356 51 290 c 1,6,-1
 51 367 l 1,7,8
 86 396 86 396 125.5 411 c 128,-1,9
 165 426 165 426 218 426 c 0,10,11
 232 426 232 426 254 423 c 128,-1,12
 276 420 276 420 300 415 c 128,-1,13
 324 410 324 410 342 405 c 1,14,-1
 342 643 l 1,15,-1
 51 643 l 1,16,-1
 51 714 l 1,17,-1
 704 714 l 1,18,-1
 704 643 l 1,19,-1
 413 643 l 1,20,-1
 413 386 l 1,21,22
 505 360 505 360 547 360 c 0,23,24
 622 360 622 360 704 426 c 1,25,-1
 704 350 l 1,26,27
 667 319 667 319 628 304.5 c 128,-1,28
 589 290 589 290 540 290 c 0,29,30
 520 290 520 290 488.5 296 c 128,-1,31
 457 302 457 302 413 313 c 1,32,-1
 413 0 l 1,33,-1
 342 0 l 1,0,-1
EndSplineSet
EndChar
StartChar: upandhorizontalwave-dentistry
Encoding: 9160 9160 838
Width: 755
Flags: W
LayerCount: 2
Fore
SplineSet
51 0 m 1,0,-1
 51 71 l 1,1,-1
 342 71 l 1,2,-1
 342 333 l 1,3,4
 297 344 297 344 264 350 c 128,-1,5
 231 356 231 356 209 356 c 0,6,7
 135 356 135 356 51 290 c 1,8,-1
 51 367 l 1,9,10
 86 396 86 396 125.5 411 c 128,-1,11
 165 426 165 426 218 426 c 0,12,13
 232 426 232 426 254 423 c 128,-1,14
 276 420 276 420 300 415 c 128,-1,15
 324 410 324 410 342 405 c 1,16,-1
 342 714 l 1,17,-1
 413 714 l 1,18,-1
 413 386 l 1,19,20
 505 360 505 360 547 360 c 0,21,22
 622 360 622 360 704 426 c 1,23,-1
 704 350 l 1,24,25
 667 319 667 319 628 304.5 c 128,-1,26
 589 290 589 290 540 290 c 0,27,28
 520 290 520 290 488.5 296 c 128,-1,29
 457 302 457 302 413 313 c 1,30,-1
 413 71 l 1,31,-1
 704 71 l 1,32,-1
 704 0 l 1,33,-1
 51 0 l 1,0,-1
EndSplineSet
EndChar
StartChar: downandhorizontal-dentistry
Encoding: 9161 9161 839
Width: 755
Flags: W
LayerCount: 2
Fore
SplineSet
342 0 m 1,0,-1
 342 643 l 1,1,-1
 51 643 l 1,2,-1
 51 714 l 1,3,-1
 704 714 l 1,4,-1
 704 643 l 1,5,-1
 413 643 l 1,6,-1
 413 0 l 1,7,-1
 342 0 l 1,0,-1
EndSplineSet
EndChar
StartChar: verticalandtopleft-dentistry
Encoding: 9163 9163 841
Width: 755
Flags: W
LayerCount: 2
Fore
SplineSet
342 0 m 1,0,-1
 342 643 l 1,1,-1
 51 643 l 1,2,-1
 51 714 l 1,3,-1
 413 714 l 1,4,-1
 413 0 l 1,5,-1
 342 0 l 1,0,-1
EndSplineSet
EndChar
StartChar: verticallineextension
Encoding: 9168 9168 1019
Width: 500
Flags: W
LayerCount: 2
Fore
SplineSet
229 -243 m 1,0,-1
 229 1019 l 1,1,-1
 271 1019 l 1,2,-1
 271 -243 l 1,3,-1
 229 -243 l 1,0,-1
EndSplineSet
EndChar
StartChar: metricalbreve
Encoding: 9169 9169 880
Width: 438
Flags: W
LayerCount: 2
Fore
SplineSet
219 184 m 0,0,1
 175 184 175 184 138.5 205 c 128,-1,2
 102 226 102 226 78.5 262.5 c 128,-1,3
 55 299 55 299 51 344 c 1,4,-1
 116 344 l 1,5,6
 122 298 122 298 146.5 275 c 128,-1,7
 171 252 171 252 219 252 c 0,8,9
 260 252 260 252 288.5 278 c 128,-1,10
 317 304 317 304 322 344 c 1,11,-1
 387 344 l 1,12,13
 383 299 383 299 360 262.5 c 128,-1,14
 337 226 337 226 300.5 205 c 128,-1,15
 264 184 264 184 219 184 c 0,0,1
EndSplineSet
EndChar
StartChar: metricalshortoverlong
Encoding: 9171 9171 884
Width: 438
Flags: W
LayerCount: 2
Fore
SplineSet
219 388 m 0,0,1
 175 388 175 388 138.5 409.5 c 128,-1,2
 102 431 102 431 78.5 467 c 128,-1,3
 55 503 55 503 51 548 c 1,4,-1
 116 548 l 1,5,6
 122 502 122 502 146 479 c 128,-1,7
 170 456 170 456 219 456 c 0,8,9
 260 456 260 456 288.5 482 c 128,-1,10
 317 508 317 508 322 548 c 1,11,-1
 387 548 l 1,12,13
 383 503 383 503 360 467 c 128,-1,14
 337 431 337 431 300.5 409.5 c 128,-1,15
 264 388 264 388 219 388 c 0,0,1
51 280 m 1,16,-1
 51 344 l 1,17,-1
 387 344 l 1,18,-1
 387 280 l 1,19,-1
 51 280 l 1,16,-1
EndSplineSet
EndChar
StartChar: metricaltwoshortsoverlong
Encoding: 9173 9173 888
Width: 808
Flags: W
LayerCount: 2
Fore
SplineSet
589 388 m 0,0,1
 545 388 545 388 508.5 409.5 c 128,-1,2
 472 431 472 431 448.5 467 c 128,-1,3
 425 503 425 503 421 548 c 1,4,-1
 486 548 l 1,5,6
 493 499 493 499 518 477.5 c 128,-1,7
 543 456 543 456 589 456 c 0,8,9
 630 456 630 456 659 482 c 128,-1,10
 688 508 688 508 692 548 c 1,11,-1
 757 548 l 1,12,13
 753 502 753 502 729.5 466 c 128,-1,14
 706 430 706 430 669 409 c 128,-1,15
 632 388 632 388 589 388 c 0,0,1
219 388 m 0,16,17
 175 388 175 388 138.5 409.5 c 128,-1,18
 102 431 102 431 78.5 467 c 128,-1,19
 55 503 55 503 51 548 c 1,20,-1
 116 548 l 1,21,22
 122 502 122 502 146 479 c 128,-1,23
 170 456 170 456 219 456 c 0,24,25
 260 456 260 456 288.5 482 c 128,-1,26
 317 508 317 508 322 548 c 1,27,-1
 387 548 l 1,28,29
 383 503 383 503 360 467 c 128,-1,30
 337 431 337 431 300.5 409.5 c 128,-1,31
 264 388 264 388 219 388 c 0,16,17
51 280 m 1,32,-1
 51 344 l 1,33,-1
 757 344 l 1,34,-1
 757 280 l 1,35,-1
 51 280 l 1,32,-1
EndSplineSet
EndChar
StartChar: metricaltetraseme
Encoding: 9176 9176 885
Width: 769
Flags: W
LayerCount: 2
Fore
SplineSet
51 379 m 1,0,-1
 51 700 l 1,1,-1
 115 700 l 1,2,-1
 115 450 l 1,3,-1
 654 450 l 1,4,-1
 654 700 l 1,5,-1
 718 700 l 1,6,-1
 718 379 l 1,7,-1
 51 379 l 1,0,-1
EndSplineSet
EndChar
StartChar: metricalpentaseme
Encoding: 9177 9177 883
Width: 769
Flags: W
LayerCount: 2
Fore
SplineSet
51 379 m 1,0,-1
 51 700 l 1,1,-1
 115 700 l 1,2,-1
 115 450 l 1,3,-1
 352 450 l 1,4,-1
 352 700 l 1,5,-1
 416 700 l 1,6,-1
 416 450 l 1,7,-1
 654 450 l 1,8,-1
 654 700 l 1,9,-1
 718 700 l 1,10,-1
 718 379 l 1,11,-1
 51 379 l 1,0,-1
EndSplineSet
EndChar
StartChar: fuse
Encoding: 9179 9179 859
Width: 1131
Flags: W
LayerCount: 2
Fore
SplineSet
191 -3 m 1,0,-1
 191 169 l 1,1,-1
 51 169 l 1,2,-1
 51 240 l 1,3,-1
 191 240 l 1,4,-1
 191 412 l 1,5,-1
 940 412 l 1,6,-1
 940 240 l 1,7,-1
 1080 240 l 1,8,-1
 1080 169 l 1,9,-1
 940 169 l 1,10,-1
 940 -3 l 1,11,-1
 191 -3 l 1,0,-1
262 240 m 1,12,-1
 869 240 l 1,13,-1
 869 341 l 1,14,-1
 262 341 l 1,15,-1
 262 240 l 1,12,-1
262 68 m 1,16,-1
 869 68 l 1,17,-1
 869 169 l 1,18,-1
 262 169 l 1,19,-1
 262 68 l 1,16,-1
EndSplineSet
EndChar
StartChar: benzeneringcircle
Encoding: 9187 9187 790
Width: 756
Flags: W
LayerCount: 2
Fore
SplineSet
378 -6 m 1,0,-1
 51 182 l 1,1,-1
 51 564 l 1,2,-1
 378 752 l 1,3,-1
 705 564 l 1,4,-1
 705 182 l 1,5,-1
 378 -6 l 1,0,-1
378 67 m 1,6,-1
 643 222 l 1,7,-1
 643 524 l 1,8,-1
 378 680 l 1,9,-1
 113 524 l 1,10,-1
 113 222 l 1,11,-1
 378 67 l 1,6,-1
377 160 m 0,12,13
 318 160 318 160 268.5 189 c 128,-1,14
 219 218 219 218 190 267.5 c 128,-1,15
 161 317 161 317 161 376 c 256,16,17
 161 435 161 435 190 484 c 128,-1,18
 219 533 219 533 268.5 562.5 c 128,-1,19
 318 592 318 592 377 592 c 256,20,21
 436 592 436 592 485 562.5 c 128,-1,22
 534 533 534 533 563.5 484 c 128,-1,23
 593 435 593 435 593 376 c 256,24,25
 593 317 593 317 564 268 c 128,-1,26
 535 219 535 219 486 189.5 c 128,-1,27
 437 160 437 160 377 160 c 0,12,13
377 216 m 0,28,29
 421 216 421 216 457 238 c 128,-1,30
 493 260 493 260 515 296.5 c 128,-1,31
 537 333 537 333 537 376 c 0,32,33
 537 420 537 420 515 456 c 128,-1,34
 493 492 493 492 457 514 c 128,-1,35
 421 536 421 536 377 536 c 0,36,37
 334 536 334 536 297.5 514 c 128,-1,38
 261 492 261 492 239 456 c 128,-1,39
 217 420 217 420 217 376 c 0,40,41
 217 333 217 333 239 296.5 c 128,-1,42
 261 260 261 260 297.5 238 c 128,-1,43
 334 216 334 216 377 216 c 0,28,29
EndSplineSet
EndChar
StartChar: straightness
Encoding: 9188 9188 996
Width: 1025
Flags: W
LayerCount: 2
Fore
SplineSet
51 285 m 1,0,-1
 51 356 l 1,1,-1
 974 356 l 1,2,-1
 974 285 l 1,3,-1
 51 285 l 1,0,-1
EndSplineSet
EndChar
StartChar: flatness
Encoding: 9189 9189 857
Width: 1366
Flags: W
LayerCount: 2
Fore
SplineSet
51 0 m 1,0,-1
 368 510 l 1,1,-1
 1315 510 l 1,2,-1
 1000 0 l 1,3,-1
 51 0 l 1,0,-1
186 71 m 1,4,-1
 954 71 l 1,5,-1
 1180 439 l 1,6,-1
 414 439 l 1,7,-1
 186 71 l 1,4,-1
EndSplineSet
EndChar
StartChar: accurrent
Encoding: 9190 9190 767
Width: 1025
Flags: W
LayerCount: 2
Fore
SplineSet
669 0 m 0,0,1
 615 0 615 0 582 18 c 128,-1,2
 549 36 549 36 525 73.5 c 128,-1,3
 501 111 501 111 475 169 c 1,4,-1
 51 169 l 1,5,-1
 51 240 l 1,6,-1
 128 240 l 1,7,-1
 103 259 l 1,8,9
 153 323 153 323 190 355.5 c 128,-1,10
 227 388 227 388 258.5 399.5 c 128,-1,11
 290 411 290 411 324 411 c 0,12,13
 394 411 394 411 442.5 370 c 128,-1,14
 491 329 491 329 531 240 c 1,15,-1
 974 240 l 1,16,-1
 974 169 l 1,17,-1
 901 169 l 1,18,-1
 925 148 l 1,19,20
 849 69 849 69 789 34.5 c 128,-1,21
 729 0 729 0 669 0 c 0,0,1
183 240 m 1,22,-1
 440 240 l 1,23,24
 392 337 392 337 324 337 c 0,25,26
 293 337 293 337 263 317 c 128,-1,27
 233 297 233 297 207 267 c 2,28,-1
 183 240 l 1,22,-1
669 74 m 0,29,30
 709 74 709 74 749.5 98 c 128,-1,31
 790 122 790 122 840 169 c 1,32,-1
 565 169 l 1,33,34
 590 117 590 117 614 95.5 c 128,-1,35
 638 74 638 74 669 74 c 0,29,30
EndSplineSet
EndChar
StartChar: one.circled
Encoding: 9312 9312 481
Width: 1000
Flags: W
LayerCount: 2
Fore
SplineSet
500 -55 m 0,0,1
 415 -55 415 -55 340 -23 c 128,-1,2
 265 9 265 9 208.5 65.5 c 128,-1,3
 152 122 152 122 120 197 c 128,-1,4
 88 272 88 272 88 357 c 0,5,6
 88 443 88 443 120 517.5 c 128,-1,7
 152 592 152 592 208.5 648.5 c 128,-1,8
 265 705 265 705 340 737 c 128,-1,9
 415 769 415 769 500 769 c 0,10,11
 586 769 586 769 660.5 737 c 128,-1,12
 735 705 735 705 791.5 648.5 c 128,-1,13
 848 592 848 592 880 517.5 c 128,-1,14
 912 443 912 443 912 357 c 0,15,16
 912 272 912 272 880 197 c 128,-1,17
 848 122 848 122 791.5 65.5 c 128,-1,18
 735 9 735 9 660.5 -23 c 128,-1,19
 586 -55 586 -55 500 -55 c 0,0,1
500 1 m 256,20,21
 574 1 574 1 638.5 28.5 c 128,-1,22
 703 56 703 56 752 105 c 128,-1,23
 801 154 801 154 828.5 218.5 c 128,-1,24
 856 283 856 283 856 357 c 256,25,26
 856 431 856 431 828.5 495.5 c 128,-1,27
 801 560 801 560 752 609 c 128,-1,28
 703 658 703 658 638.5 685.5 c 128,-1,29
 574 713 574 713 500 713 c 256,30,31
 426 713 426 713 361.5 685.5 c 128,-1,32
 297 658 297 658 248 609 c 128,-1,33
 199 560 199 560 171.5 495.5 c 128,-1,34
 144 431 144 431 144 357 c 256,35,36
 144 283 144 283 171.5 218.5 c 128,-1,37
 199 154 199 154 248 105 c 128,-1,38
 297 56 297 56 361.5 28.5 c 128,-1,39
 426 1 426 1 500 1 c 256,20,21
475 144 m 1,40,-1
 475 420 l 2,41,42
 475 443 475 443 476.5 465.5 c 128,-1,43
 478 488 478 488 479 509 c 1,44,45
 475 505 475 505 471 501.5 c 128,-1,46
 467 498 467 498 462 493 c 256,47,48
 457 488 457 488 436.5 472.5 c 128,-1,49
 416 457 416 457 380 431 c 1,50,-1
 346 480 l 1,51,-1
 473 572 l 1,52,-1
 545 572 l 1,53,-1
 545 144 l 1,54,-1
 475 144 l 1,40,-1
EndSplineSet
EndChar
StartChar: two.circled
Encoding: 9313 9313 482
Width: 1000
Flags: W
LayerCount: 2
Fore
SplineSet
500 -55 m 0,0,1
 415 -55 415 -55 340 -23 c 128,-1,2
 265 9 265 9 208.5 65.5 c 128,-1,3
 152 122 152 122 120 197 c 128,-1,4
 88 272 88 272 88 357 c 0,5,6
 88 443 88 443 120 517.5 c 128,-1,7
 152 592 152 592 208.5 648.5 c 128,-1,8
 265 705 265 705 340 737 c 128,-1,9
 415 769 415 769 500 769 c 0,10,11
 586 769 586 769 660.5 737 c 128,-1,12
 735 705 735 705 791.5 648.5 c 128,-1,13
 848 592 848 592 880 517.5 c 128,-1,14
 912 443 912 443 912 357 c 0,15,16
 912 272 912 272 880 197 c 128,-1,17
 848 122 848 122 791.5 65.5 c 128,-1,18
 735 9 735 9 660.5 -23 c 128,-1,19
 586 -55 586 -55 500 -55 c 0,0,1
500 1 m 256,20,21
 574 1 574 1 638.5 28.5 c 128,-1,22
 703 56 703 56 752 105 c 128,-1,23
 801 154 801 154 828.5 218.5 c 128,-1,24
 856 283 856 283 856 357 c 256,25,26
 856 431 856 431 828.5 495.5 c 128,-1,27
 801 560 801 560 752 609 c 128,-1,28
 703 658 703 658 638.5 685.5 c 128,-1,29
 574 713 574 713 500 713 c 256,30,31
 426 713 426 713 361.5 685.5 c 128,-1,32
 297 658 297 658 248 609 c 128,-1,33
 199 560 199 560 171.5 495.5 c 128,-1,34
 144 431 144 431 144 357 c 256,35,36
 144 283 144 283 171.5 218.5 c 128,-1,37
 199 154 199 154 248 105 c 128,-1,38
 297 56 297 56 361.5 28.5 c 128,-1,39
 426 1 426 1 500 1 c 256,20,21
369 143 m 1,40,-1
 369 197 l 1,41,-1
 482 309 l 2,42,43
 519 346 519 346 539.5 370 c 128,-1,44
 560 394 560 394 568.5 414 c 128,-1,45
 577 434 577 434 577 458 c 0,46,47
 577 490 577 490 558.5 506 c 128,-1,48
 540 522 540 522 511 522 c 0,49,50
 461 522 461 522 408 479 c 1,51,-1
 374 525 l 1,52,53
 438 580 438 580 512 580 c 0,54,55
 575 580 575 580 610.5 549 c 128,-1,56
 646 518 646 518 646 462 c 0,57,58
 646 411 646 411 615 371.5 c 128,-1,59
 584 332 584 332 533 282 c 2,60,-1
 451 203 l 1,61,-1
 645 203 l 1,62,-1
 645 143 l 1,63,-1
 369 143 l 1,40,-1
EndSplineSet
EndChar
StartChar: four.circled
Encoding: 9315 9315 484
Width: 1000
Flags: W
LayerCount: 2
Fore
SplineSet
500 -55 m 0,0,1
 415 -55 415 -55 340 -23 c 128,-1,2
 265 9 265 9 208.5 65.5 c 128,-1,3
 152 122 152 122 120 197 c 128,-1,4
 88 272 88 272 88 357 c 0,5,6
 88 443 88 443 120 517.5 c 128,-1,7
 152 592 152 592 208.5 648.5 c 128,-1,8
 265 705 265 705 340 737 c 128,-1,9
 415 769 415 769 500 769 c 0,10,11
 586 769 586 769 660.5 737 c 128,-1,12
 735 705 735 705 791.5 648.5 c 128,-1,13
 848 592 848 592 880 517.5 c 128,-1,14
 912 443 912 443 912 357 c 0,15,16
 912 272 912 272 880 197 c 128,-1,17
 848 122 848 122 791.5 65.5 c 128,-1,18
 735 9 735 9 660.5 -23 c 128,-1,19
 586 -55 586 -55 500 -55 c 0,0,1
500 1 m 256,20,21
 574 1 574 1 638.5 28.5 c 128,-1,22
 703 56 703 56 752 105 c 128,-1,23
 801 154 801 154 828.5 218.5 c 128,-1,24
 856 283 856 283 856 357 c 256,25,26
 856 431 856 431 828.5 495.5 c 128,-1,27
 801 560 801 560 752 609 c 128,-1,28
 703 658 703 658 638.5 685.5 c 128,-1,29
 574 713 574 713 500 713 c 256,30,31
 426 713 426 713 361.5 685.5 c 128,-1,32
 297 658 297 658 248 609 c 128,-1,33
 199 560 199 560 171.5 495.5 c 128,-1,34
 144 431 144 431 144 357 c 256,35,36
 144 283 144 283 171.5 218.5 c 128,-1,37
 199 154 199 154 248 105 c 128,-1,38
 297 56 297 56 361.5 28.5 c 128,-1,39
 426 1 426 1 500 1 c 256,20,21
501 144 m 1,40,-1
 501 241 l 1,41,-1
 309 241 l 1,42,-1
 309 291 l 1,43,-1
 500 572 l 1,44,-1
 571 572 l 1,45,-1
 571 299 l 1,46,-1
 631 299 l 1,47,-1
 631 241 l 1,48,-1
 571 241 l 1,49,-1
 571 144 l 1,50,-1
 501 144 l 1,40,-1
378 299 m 1,51,-1
 501 299 l 1,52,-1
 501 398 l 2,53,54
 501 450 501 450 504 499 c 1,55,-1
 503 499 l 1,56,57
 500 492 500 492 497 485 c 128,-1,58
 494 478 494 478 489 471 c 2,59,-1
 378 299 l 1,51,-1
EndSplineSet
EndChar
StartChar: six.circled
Encoding: 9317 9317 486
Width: 1000
Flags: W
LayerCount: 2
Fore
SplineSet
500 -55 m 0,0,1
 415 -55 415 -55 340 -23 c 128,-1,2
 265 9 265 9 208.5 65.5 c 128,-1,3
 152 122 152 122 120 197 c 128,-1,4
 88 272 88 272 88 357 c 0,5,6
 88 443 88 443 120 517.5 c 128,-1,7
 152 592 152 592 208.5 648.5 c 128,-1,8
 265 705 265 705 340 737 c 128,-1,9
 415 769 415 769 500 769 c 0,10,11
 586 769 586 769 660.5 737 c 128,-1,12
 735 705 735 705 791.5 648.5 c 128,-1,13
 848 592 848 592 880 517.5 c 128,-1,14
 912 443 912 443 912 357 c 0,15,16
 912 272 912 272 880 197 c 128,-1,17
 848 122 848 122 791.5 65.5 c 128,-1,18
 735 9 735 9 660.5 -23 c 128,-1,19
 586 -55 586 -55 500 -55 c 0,0,1
500 1 m 256,20,21
 574 1 574 1 638.5 28.5 c 128,-1,22
 703 56 703 56 752 105 c 128,-1,23
 801 154 801 154 828.5 218.5 c 128,-1,24
 856 283 856 283 856 357 c 256,25,26
 856 431 856 431 828.5 495.5 c 128,-1,27
 801 560 801 560 752 609 c 128,-1,28
 703 658 703 658 638.5 685.5 c 128,-1,29
 574 713 574 713 500 713 c 256,30,31
 426 713 426 713 361.5 685.5 c 128,-1,32
 297 658 297 658 248 609 c 128,-1,33
 199 560 199 560 171.5 495.5 c 128,-1,34
 144 431 144 431 144 357 c 256,35,36
 144 283 144 283 171.5 218.5 c 128,-1,37
 199 154 199 154 248 105 c 128,-1,38
 297 56 297 56 361.5 28.5 c 128,-1,39
 426 1 426 1 500 1 c 256,20,21
500 135 m 0,40,41
 427 135 427 135 384.5 186 c 128,-1,42
 342 237 342 237 342 327 c 0,43,44
 342 579 342 579 554 579 c 0,45,46
 589 579 589 579 613 572 c 1,47,-1
 613 513 l 1,48,49
 588 522 588 522 550 522 c 0,50,51
 484 522 484 522 448 486 c 128,-1,52
 412 450 412 450 407 369 c 1,53,-1
 411 369 l 1,54,55
 443 419 443 419 518 419 c 0,56,57
 577 419 577 419 612.5 384.5 c 128,-1,58
 648 350 648 350 648 285 c 0,59,60
 648 216 648 216 608.5 175.5 c 128,-1,61
 569 135 569 135 500 135 c 0,40,41
498 192 m 256,62,63
 536 192 536 192 558.5 214.5 c 128,-1,64
 581 237 581 237 581 283 c 0,65,66
 581 364 581 364 501 364 c 0,67,68
 458 364 458 364 434 341.5 c 128,-1,69
 410 319 410 319 410 293 c 0,70,71
 410 249 410 249 435 220.5 c 128,-1,72
 460 192 460 192 498 192 c 256,62,63
EndSplineSet
EndChar
StartChar: eight.circled
Encoding: 9319 9319 488
Width: 1000
Flags: W
LayerCount: 2
Fore
SplineSet
500 -55 m 0,0,1
 415 -55 415 -55 340 -23 c 128,-1,2
 265 9 265 9 208.5 65.5 c 128,-1,3
 152 122 152 122 120 197 c 128,-1,4
 88 272 88 272 88 357 c 0,5,6
 88 443 88 443 120 517.5 c 128,-1,7
 152 592 152 592 208.5 648.5 c 128,-1,8
 265 705 265 705 340 737 c 128,-1,9
 415 769 415 769 500 769 c 0,10,11
 586 769 586 769 660.5 737 c 128,-1,12
 735 705 735 705 791.5 648.5 c 128,-1,13
 848 592 848 592 880 517.5 c 128,-1,14
 912 443 912 443 912 357 c 0,15,16
 912 272 912 272 880 197 c 128,-1,17
 848 122 848 122 791.5 65.5 c 128,-1,18
 735 9 735 9 660.5 -23 c 128,-1,19
 586 -55 586 -55 500 -55 c 0,0,1
500 1 m 256,20,21
 574 1 574 1 638.5 28.5 c 128,-1,22
 703 56 703 56 752 105 c 128,-1,23
 801 154 801 154 828.5 218.5 c 128,-1,24
 856 283 856 283 856 357 c 256,25,26
 856 431 856 431 828.5 495.5 c 128,-1,27
 801 560 801 560 752 609 c 128,-1,28
 703 658 703 658 638.5 685.5 c 128,-1,29
 574 713 574 713 500 713 c 256,30,31
 426 713 426 713 361.5 685.5 c 128,-1,32
 297 658 297 658 248 609 c 128,-1,33
 199 560 199 560 171.5 495.5 c 128,-1,34
 144 431 144 431 144 357 c 256,35,36
 144 283 144 283 171.5 218.5 c 128,-1,37
 199 154 199 154 248 105 c 128,-1,38
 297 56 297 56 361.5 28.5 c 128,-1,39
 426 1 426 1 500 1 c 256,20,21
500 135 m 0,40,41
 428 135 428 135 390 166.5 c 128,-1,42
 352 198 352 198 352 255 c 0,43,44
 352 327 352 327 427 367 c 1,45,46
 397 387 397 387 381 408.5 c 128,-1,47
 365 430 365 430 365 468 c 0,48,49
 365 519 365 519 403.5 549.5 c 128,-1,50
 442 580 442 580 500 580 c 0,51,52
 559 580 559 580 595.5 550.5 c 128,-1,53
 632 521 632 521 632 471 c 0,54,55
 632 410 632 410 562 370 c 1,56,57
 646 333 646 333 646 258 c 0,58,59
 646 202 646 202 605.5 168.5 c 128,-1,60
 565 135 565 135 500 135 c 0,40,41
501 397 m 1,61,62
 566 423 566 423 566 469 c 0,63,64
 566 495 566 495 548 510 c 128,-1,65
 530 525 530 525 499 525 c 0,66,67
 467 525 467 525 449.5 510 c 128,-1,68
 432 495 432 495 432 469 c 0,69,70
 432 426 432 426 501 397 c 1,61,62
498 191 m 0,71,72
 578 191 578 191 578 255 c 0,73,74
 578 307 578 307 497 335 c 2,75,-1
 484 340 l 1,76,77
 419 309 419 309 419 255 c 0,78,79
 419 191 419 191 498 191 c 0,71,72
EndSplineSet
EndChar
StartChar: nine.circled
Encoding: 9320 9320 489
Width: 1000
Flags: W
LayerCount: 2
Fore
SplineSet
500 -55 m 0,0,1
 415 -55 415 -55 340 -23 c 128,-1,2
 265 9 265 9 208.5 65.5 c 128,-1,3
 152 122 152 122 120 197 c 128,-1,4
 88 272 88 272 88 357 c 0,5,6
 88 443 88 443 120 517.5 c 128,-1,7
 152 592 152 592 208.5 648.5 c 128,-1,8
 265 705 265 705 340 737 c 128,-1,9
 415 769 415 769 500 769 c 0,10,11
 586 769 586 769 660.5 737 c 128,-1,12
 735 705 735 705 791.5 648.5 c 128,-1,13
 848 592 848 592 880 517.5 c 128,-1,14
 912 443 912 443 912 357 c 0,15,16
 912 272 912 272 880 197 c 128,-1,17
 848 122 848 122 791.5 65.5 c 128,-1,18
 735 9 735 9 660.5 -23 c 128,-1,19
 586 -55 586 -55 500 -55 c 0,0,1
500 1 m 256,20,21
 574 1 574 1 638.5 28.5 c 128,-1,22
 703 56 703 56 752 105 c 128,-1,23
 801 154 801 154 828.5 218.5 c 128,-1,24
 856 283 856 283 856 357 c 256,25,26
 856 431 856 431 828.5 495.5 c 128,-1,27
 801 560 801 560 752 609 c 128,-1,28
 703 658 703 658 638.5 685.5 c 128,-1,29
 574 713 574 713 500 713 c 256,30,31
 426 713 426 713 361.5 685.5 c 128,-1,32
 297 658 297 658 248 609 c 128,-1,33
 199 560 199 560 171.5 495.5 c 128,-1,34
 144 431 144 431 144 357 c 256,35,36
 144 283 144 283 171.5 218.5 c 128,-1,37
 199 154 199 154 248 105 c 128,-1,38
 297 56 297 56 361.5 28.5 c 128,-1,39
 426 1 426 1 500 1 c 256,20,21
455 135 m 0,40,41
 417 135 417 135 393 142 c 1,42,-1
 393 202 l 1,43,44
 414 192 414 192 459 192 c 0,45,46
 522 192 522 192 559 228 c 128,-1,47
 596 264 596 264 600 346 c 1,48,-1
 595 346 l 1,49,50
 561 297 561 297 493 297 c 0,51,52
 430 297 430 297 394 333 c 128,-1,53
 358 369 358 369 358 432 c 0,54,55
 358 497 358 497 398.5 538 c 128,-1,56
 439 579 439 579 506 579 c 0,57,58
 580 579 580 579 622 528.5 c 128,-1,59
 664 478 664 478 664 389 c 0,60,61
 664 135 664 135 455 135 c 0,40,41
504 352 m 0,62,63
 546 352 546 352 571 374 c 128,-1,64
 596 396 596 396 596 422 c 0,65,66
 596 463 596 463 574.5 492.5 c 128,-1,67
 553 522 553 522 506 522 c 0,68,69
 471 522 471 522 448 500 c 128,-1,70
 425 478 425 478 425 435 c 0,71,72
 425 397 425 397 444.5 374.5 c 128,-1,73
 464 352 464 352 504 352 c 0,62,63
EndSplineSet
EndChar
StartChar: one_three.circled
Encoding: 9324 9324 493
Width: 1000
Flags: W
LayerCount: 2
Fore
SplineSet
500 -55 m 0,0,1
 415 -55 415 -55 340 -23 c 128,-1,2
 265 9 265 9 208.5 65.5 c 128,-1,3
 152 122 152 122 120 197 c 128,-1,4
 88 272 88 272 88 357 c 0,5,6
 88 443 88 443 120 517.5 c 128,-1,7
 152 592 152 592 208.5 648.5 c 128,-1,8
 265 705 265 705 340 737 c 128,-1,9
 415 769 415 769 500 769 c 0,10,11
 586 769 586 769 660.5 737 c 128,-1,12
 735 705 735 705 791.5 648.5 c 128,-1,13
 848 592 848 592 880 517.5 c 128,-1,14
 912 443 912 443 912 357 c 0,15,16
 912 272 912 272 880 197 c 128,-1,17
 848 122 848 122 791.5 65.5 c 128,-1,18
 735 9 735 9 660.5 -23 c 128,-1,19
 586 -55 586 -55 500 -55 c 0,0,1
500 1 m 256,20,21
 574 1 574 1 638.5 28.5 c 128,-1,22
 703 56 703 56 752 105 c 128,-1,23
 801 154 801 154 828.5 218.5 c 128,-1,24
 856 283 856 283 856 357 c 256,25,26
 856 431 856 431 828.5 495.5 c 128,-1,27
 801 560 801 560 752 609 c 128,-1,28
 703 658 703 658 638.5 685.5 c 128,-1,29
 574 713 574 713 500 713 c 256,30,31
 426 713 426 713 361.5 685.5 c 128,-1,32
 297 658 297 658 248 609 c 128,-1,33
 199 560 199 560 171.5 495.5 c 128,-1,34
 144 431 144 431 144 357 c 256,35,36
 144 283 144 283 171.5 218.5 c 128,-1,37
 199 154 199 154 248 105 c 128,-1,38
 297 56 297 56 361.5 28.5 c 128,-1,39
 426 1 426 1 500 1 c 256,20,21
594 135 m 0,40,41
 533 135 533 135 483 163 c 1,42,-1
 483 226 l 1,43,44
 542 192 542 192 588 192 c 0,45,46
 679 192 679 192 679 268 c 0,47,48
 679 337 679 337 583 337 c 2,49,-1
 539 337 l 1,50,-1
 539 392 l 1,51,-1
 583 392 l 2,52,53
 666 392 666 392 666 462 c 0,54,55
 666 494 666 494 647 508.5 c 128,-1,56
 628 523 628 523 602 523 c 0,57,58
 575 523 575 523 554.5 512.5 c 128,-1,59
 534 502 534 502 509 485 c 1,60,-1
 477 531 l 1,61,62
 538 580 538 580 605 580 c 0,63,64
 662 580 662 580 698.5 553 c 128,-1,65
 735 526 735 526 735 470 c 0,66,67
 735 432 735 432 711.5 404.5 c 128,-1,68
 688 377 688 377 653 369 c 1,69,70
 748 350 748 350 748 266 c 0,71,72
 748 199 748 199 705 167 c 128,-1,73
 662 135 662 135 594 135 c 0,40,41
356 144 m 1,74,-1
 356 467 l 2,75,76
 356 478 356 478 356.5 488.5 c 128,-1,77
 357 499 357 499 358 509 c 1,78,79
 354 505 354 505 347.5 499.5 c 128,-1,80
 341 494 341 494 332 486 c 0,81,82
 321 477 321 477 306 465.5 c 128,-1,83
 291 454 291 454 272 440 c 1,84,-1
 238 489 l 1,85,-1
 352 572 l 1,86,-1
 424 572 l 1,87,-1
 424 144 l 1,88,-1
 356 144 l 1,74,-1
EndSplineSet
EndChar
StartChar: one_four.circled
Encoding: 9325 9325 494
Width: 1000
Flags: W
LayerCount: 2
Fore
SplineSet
500 -55 m 0,0,1
 415 -55 415 -55 340 -23 c 128,-1,2
 265 9 265 9 208.5 65.5 c 128,-1,3
 152 122 152 122 120 197 c 128,-1,4
 88 272 88 272 88 357 c 0,5,6
 88 443 88 443 120 517.5 c 128,-1,7
 152 592 152 592 208.5 648.5 c 128,-1,8
 265 705 265 705 340 737 c 128,-1,9
 415 769 415 769 500 769 c 0,10,11
 586 769 586 769 660.5 737 c 128,-1,12
 735 705 735 705 791.5 648.5 c 128,-1,13
 848 592 848 592 880 517.5 c 128,-1,14
 912 443 912 443 912 357 c 0,15,16
 912 272 912 272 880 197 c 128,-1,17
 848 122 848 122 791.5 65.5 c 128,-1,18
 735 9 735 9 660.5 -23 c 128,-1,19
 586 -55 586 -55 500 -55 c 0,0,1
500 1 m 256,20,21
 574 1 574 1 638.5 28.5 c 128,-1,22
 703 56 703 56 752 105 c 128,-1,23
 801 154 801 154 828.5 218.5 c 128,-1,24
 856 283 856 283 856 357 c 256,25,26
 856 431 856 431 828.5 495.5 c 128,-1,27
 801 560 801 560 752 609 c 128,-1,28
 703 658 703 658 638.5 685.5 c 128,-1,29
 574 713 574 713 500 713 c 256,30,31
 426 713 426 713 361.5 685.5 c 128,-1,32
 297 658 297 658 248 609 c 128,-1,33
 199 560 199 560 171.5 495.5 c 128,-1,34
 144 431 144 431 144 357 c 256,35,36
 144 283 144 283 171.5 218.5 c 128,-1,37
 199 154 199 154 248 105 c 128,-1,38
 297 56 297 56 361.5 28.5 c 128,-1,39
 426 1 426 1 500 1 c 256,20,21
627 144 m 1,40,-1
 627 241 l 1,41,-1
 452 241 l 1,42,-1
 452 291 l 1,43,-1
 626 572 l 1,44,-1
 695 572 l 1,45,-1
 695 299 l 1,46,-1
 755 299 l 1,47,-1
 755 241 l 1,48,-1
 695 241 l 1,49,-1
 695 144 l 1,50,-1
 627 144 l 1,40,-1
345 144 m 1,51,-1
 345 467 l 2,52,53
 345 478 345 478 346 488.5 c 128,-1,54
 347 499 347 499 347 509 c 1,55,56
 343 505 343 505 337 499 c 128,-1,57
 331 493 331 493 321 486 c 0,58,59
 310 478 310 478 295.5 466 c 128,-1,60
 281 454 281 454 261 440 c 1,61,-1
 227 489 l 1,62,-1
 341 572 l 1,63,-1
 413 572 l 1,64,-1
 413 144 l 1,65,-1
 345 144 l 1,51,-1
515 299 m 1,66,-1
 627 299 l 1,67,-1
 627 398 l 2,68,69
 627 425 627 425 628.5 451.5 c 128,-1,70
 630 478 630 478 631 500 c 1,71,72
 626 491 626 491 617.5 475.5 c 128,-1,73
 609 460 609 460 597 439 c 2,74,-1
 515 299 l 1,66,-1
EndSplineSet
EndChar
StartChar: one_eight.circled
Encoding: 9329 9329 498
Width: 1000
Flags: W
LayerCount: 2
Fore
SplineSet
500 -55 m 0,0,1
 415 -55 415 -55 340 -23 c 128,-1,2
 265 9 265 9 208.5 65.5 c 128,-1,3
 152 122 152 122 120 197 c 128,-1,4
 88 272 88 272 88 357 c 0,5,6
 88 443 88 443 120 517.5 c 128,-1,7
 152 592 152 592 208.5 648.5 c 128,-1,8
 265 705 265 705 340 737 c 128,-1,9
 415 769 415 769 500 769 c 0,10,11
 586 769 586 769 660.5 737 c 128,-1,12
 735 705 735 705 791.5 648.5 c 128,-1,13
 848 592 848 592 880 517.5 c 128,-1,14
 912 443 912 443 912 357 c 0,15,16
 912 272 912 272 880 197 c 128,-1,17
 848 122 848 122 791.5 65.5 c 128,-1,18
 735 9 735 9 660.5 -23 c 128,-1,19
 586 -55 586 -55 500 -55 c 0,0,1
500 1 m 256,20,21
 574 1 574 1 638.5 28.5 c 128,-1,22
 703 56 703 56 752 105 c 128,-1,23
 801 154 801 154 828.5 218.5 c 128,-1,24
 856 283 856 283 856 357 c 256,25,26
 856 431 856 431 828.5 495.5 c 128,-1,27
 801 560 801 560 752 609 c 128,-1,28
 703 658 703 658 638.5 685.5 c 128,-1,29
 574 713 574 713 500 713 c 256,30,31
 426 713 426 713 361.5 685.5 c 128,-1,32
 297 658 297 658 248 609 c 128,-1,33
 199 560 199 560 171.5 495.5 c 128,-1,34
 144 431 144 431 144 357 c 256,35,36
 144 283 144 283 171.5 218.5 c 128,-1,37
 199 154 199 154 248 105 c 128,-1,38
 297 56 297 56 361.5 28.5 c 128,-1,39
 426 1 426 1 500 1 c 256,20,21
618 135 m 0,40,41
 551 135 551 135 515.5 166.5 c 128,-1,42
 480 198 480 198 480 255 c 0,43,44
 480 327 480 327 555 367 c 1,45,46
 525 387 525 387 509 408.5 c 128,-1,47
 493 430 493 430 493 468 c 0,48,49
 493 519 493 519 528 549.5 c 128,-1,50
 563 580 563 580 618 580 c 0,51,52
 672 580 672 580 706 550.5 c 128,-1,53
 740 521 740 521 740 471 c 0,54,55
 740 409 740 409 670 370 c 1,56,57
 754 333 754 333 754 258 c 0,58,59
 754 202 754 202 716.5 168.5 c 128,-1,60
 679 135 679 135 618 135 c 0,40,41
348 144 m 1,61,-1
 348 467 l 2,62,63
 348 478 348 478 349 488.5 c 128,-1,64
 350 499 350 499 350 509 c 1,65,66
 346 505 346 505 338.5 499 c 128,-1,67
 331 493 331 493 322 485 c 0,68,69
 312 476 312 476 297 465 c 128,-1,70
 282 454 282 454 264 440 c 1,71,-1
 230 489 l 1,72,-1
 344 572 l 1,73,-1
 416 572 l 1,74,-1
 416 144 l 1,75,-1
 348 144 l 1,61,-1
619 397 m 1,76,77
 676 423 676 423 676 469 c 0,78,79
 676 495 676 495 659.5 510 c 128,-1,80
 643 525 643 525 617 525 c 0,81,82
 590 525 590 525 574 510 c 128,-1,83
 558 495 558 495 558 469 c 0,84,85
 558 426 558 426 619 397 c 1,76,77
616 191 m 0,86,87
 652 191 652 191 670.5 208.5 c 128,-1,88
 689 226 689 226 689 255 c 0,89,90
 689 281 689 281 672.5 299.5 c 128,-1,91
 656 318 656 318 618 334 c 2,92,-1
 604 340 l 1,93,94
 546 309 546 309 546 255 c 0,95,96
 546 226 546 226 563.5 208.5 c 128,-1,97
 581 191 581 191 616 191 c 0,86,87
EndSplineSet
EndChar
StartChar: one.paren
Encoding: 9332 9332 378
Width: 1000
Flags: W
LayerCount: 2
Fore
SplineSet
731 -57 m 1,0,1
 859 124 859 124 859 352 c 0,2,3
 859 464 859 464 826.5 571 c 128,-1,4
 794 678 794 678 731 767 c 1,5,-1
 789 767 l 1,6,7
 922 598 922 598 922 351 c 0,8,9
 922 106 922 106 789 -57 c 1,10,-1
 731 -57 l 1,0,1
211 -57 m 1,11,12
 78 106 78 106 78 351 c 0,13,14
 78 598 78 598 211 767 c 1,15,-1
 269 767 l 1,16,17
 206 678 206 678 173.5 571 c 128,-1,18
 141 464 141 464 141 352 c 0,19,20
 141 124 141 124 269 -57 c 1,21,-1
 211 -57 l 1,11,12
475 144 m 1,22,-1
 475 420 l 2,23,24
 475 443 475 443 476.5 465.5 c 128,-1,25
 478 488 478 488 479 509 c 1,26,27
 475 505 475 505 471 501.5 c 128,-1,28
 467 498 467 498 462 493 c 256,29,30
 457 488 457 488 436.5 472.5 c 128,-1,31
 416 457 416 457 380 431 c 1,32,-1
 346 480 l 1,33,-1
 473 572 l 1,34,-1
 545 572 l 1,35,-1
 545 144 l 1,36,-1
 475 144 l 1,22,-1
EndSplineSet
EndChar
StartChar: two.paren
Encoding: 9333 9333 379
Width: 1000
Flags: W
LayerCount: 2
Fore
SplineSet
731 -57 m 1,0,1
 859 124 859 124 859 352 c 0,2,3
 859 464 859 464 826.5 571 c 128,-1,4
 794 678 794 678 731 767 c 1,5,-1
 789 767 l 1,6,7
 922 598 922 598 922 351 c 0,8,9
 922 106 922 106 789 -57 c 1,10,-1
 731 -57 l 1,0,1
211 -57 m 1,11,12
 78 106 78 106 78 351 c 0,13,14
 78 598 78 598 211 767 c 1,15,-1
 269 767 l 1,16,17
 206 678 206 678 173.5 571 c 128,-1,18
 141 464 141 464 141 352 c 0,19,20
 141 124 141 124 269 -57 c 1,21,-1
 211 -57 l 1,11,12
369 143 m 1,22,-1
 369 197 l 1,23,-1
 482 309 l 2,24,25
 519 346 519 346 539.5 370 c 128,-1,26
 560 394 560 394 568.5 414 c 128,-1,27
 577 434 577 434 577 458 c 0,28,29
 577 490 577 490 558.5 506 c 128,-1,30
 540 522 540 522 511 522 c 0,31,32
 461 522 461 522 408 479 c 1,33,-1
 374 525 l 1,34,35
 438 580 438 580 512 580 c 0,36,37
 575 580 575 580 610.5 549 c 128,-1,38
 646 518 646 518 646 462 c 0,39,40
 646 411 646 411 615 371.5 c 128,-1,41
 584 332 584 332 533 282 c 2,42,-1
 451 203 l 1,43,-1
 645 203 l 1,44,-1
 645 143 l 1,45,-1
 369 143 l 1,22,-1
EndSplineSet
EndChar
StartChar: three.paren
Encoding: 9334 9334 380
Width: 1000
Flags: W
LayerCount: 2
Fore
SplineSet
731 -57 m 1,0,1
 859 124 859 124 859 352 c 0,2,3
 859 464 859 464 826.5 571 c 128,-1,4
 794 678 794 678 731 767 c 1,5,-1
 789 767 l 1,6,7
 922 598 922 598 922 351 c 0,8,9
 922 106 922 106 789 -57 c 1,10,-1
 731 -57 l 1,0,1
211 -57 m 1,11,12
 78 106 78 106 78 351 c 0,13,14
 78 598 78 598 211 767 c 1,15,-1
 269 767 l 1,16,17
 206 678 206 678 173.5 571 c 128,-1,18
 141 464 141 464 141 352 c 0,19,20
 141 124 141 124 269 -57 c 1,21,-1
 211 -57 l 1,11,12
495 135 m 0,22,23
 420 135 420 135 367 163 c 1,24,-1
 367 226 l 1,25,26
 435 192 435 192 496 192 c 0,27,28
 594 192 594 192 594 268 c 0,29,30
 594 337 594 337 487 337 c 2,31,-1
 431 337 l 1,32,-1
 431 392 l 1,33,-1
 487 392 l 2,34,35
 582 392 582 392 582 462 c 0,36,37
 582 494 582 494 562 508.5 c 128,-1,38
 542 523 542 523 513 523 c 0,39,40
 465 523 465 523 404 485 c 1,41,-1
 369 531 l 1,42,43
 435 580 435 580 512 580 c 0,44,45
 582 580 582 580 617 549 c 128,-1,46
 652 518 652 518 652 470 c 0,47,48
 652 395 652 395 580 368 c 1,49,50
 665 347 665 347 665 266 c 0,51,52
 665 208 665 208 623.5 171.5 c 128,-1,53
 582 135 582 135 495 135 c 0,22,23
EndSplineSet
EndChar
StartChar: four.paren
Encoding: 9335 9335 381
Width: 1000
Flags: W
LayerCount: 2
Fore
SplineSet
731 -57 m 1,0,1
 859 124 859 124 859 352 c 0,2,3
 859 464 859 464 826.5 571 c 128,-1,4
 794 678 794 678 731 767 c 1,5,-1
 789 767 l 1,6,7
 922 598 922 598 922 351 c 0,8,9
 922 106 922 106 789 -57 c 1,10,-1
 731 -57 l 1,0,1
211 -57 m 1,11,12
 78 106 78 106 78 351 c 0,13,14
 78 598 78 598 211 767 c 1,15,-1
 269 767 l 1,16,17
 206 678 206 678 173.5 571 c 128,-1,18
 141 464 141 464 141 352 c 0,19,20
 141 124 141 124 269 -57 c 1,21,-1
 211 -57 l 1,11,12
519 144 m 1,22,-1
 519 241 l 1,23,-1
 327 241 l 1,24,-1
 327 291 l 1,25,-1
 518 572 l 1,26,-1
 589 572 l 1,27,-1
 589 299 l 1,28,-1
 649 299 l 1,29,-1
 649 241 l 1,30,-1
 589 241 l 1,31,-1
 589 144 l 1,32,-1
 519 144 l 1,22,-1
396 299 m 1,33,-1
 519 299 l 1,34,-1
 519 398 l 2,35,36
 519 423 519 423 520 447.5 c 128,-1,37
 521 472 521 472 522 497 c 1,38,39
 519 490 519 490 516 482.5 c 128,-1,40
 513 475 513 475 509 469 c 2,41,-1
 396 299 l 1,33,-1
EndSplineSet
EndChar
StartChar: five.paren
Encoding: 9336 9336 382
Width: 1000
Flags: W
LayerCount: 2
Fore
SplineSet
731 -57 m 1,0,1
 859 124 859 124 859 352 c 0,2,3
 859 464 859 464 826.5 571 c 128,-1,4
 794 678 794 678 731 767 c 1,5,-1
 789 767 l 1,6,7
 922 598 922 598 922 351 c 0,8,9
 922 106 922 106 789 -57 c 1,10,-1
 731 -57 l 1,0,1
211 -57 m 1,11,12
 78 106 78 106 78 351 c 0,13,14
 78 598 78 598 211 767 c 1,15,-1
 269 767 l 1,16,17
 206 678 206 678 173.5 571 c 128,-1,18
 141 464 141 464 141 352 c 0,19,20
 141 124 141 124 269 -57 c 1,21,-1
 211 -57 l 1,11,12
490 136 m 0,22,23
 450 136 450 136 419.5 142.5 c 128,-1,24
 389 149 389 149 369 161 c 1,25,-1
 369 228 l 1,26,27
 395 211 395 211 428.5 202 c 128,-1,28
 462 193 462 193 488 193 c 0,29,30
 584 193 584 193 584 276 c 0,31,32
 584 314 584 314 558.5 335 c 128,-1,33
 533 356 533 356 486 356 c 0,34,35
 454 356 454 356 409 344 c 1,36,-1
 379 364 l 1,37,-1
 394 573 l 1,38,-1
 633 573 l 1,39,-1
 633 518 l 1,40,-1
 451 518 l 1,41,-1
 442 408 l 1,42,43
 478 414 478 414 499 414 c 0,44,45
 570 414 570 414 611.5 377.5 c 128,-1,46
 653 341 653 341 653 282 c 0,47,48
 653 212 653 212 612 174 c 128,-1,49
 571 136 571 136 490 136 c 0,22,23
EndSplineSet
EndChar
StartChar: six.paren
Encoding: 9337 9337 383
Width: 1000
Flags: W
LayerCount: 2
Fore
SplineSet
731 -57 m 1,0,1
 859 124 859 124 859 352 c 0,2,3
 859 464 859 464 826.5 571 c 128,-1,4
 794 678 794 678 731 767 c 1,5,-1
 789 767 l 1,6,7
 922 598 922 598 922 351 c 0,8,9
 922 106 922 106 789 -57 c 1,10,-1
 731 -57 l 1,0,1
211 -57 m 1,11,12
 78 106 78 106 78 351 c 0,13,14
 78 598 78 598 211 767 c 1,15,-1
 269 767 l 1,16,17
 206 678 206 678 173.5 571 c 128,-1,18
 141 464 141 464 141 352 c 0,19,20
 141 124 141 124 269 -57 c 1,21,-1
 211 -57 l 1,11,12
500 135 m 0,22,23
 427 135 427 135 384.5 186 c 128,-1,24
 342 237 342 237 342 327 c 0,25,26
 342 579 342 579 554 579 c 0,27,28
 589 579 589 579 613 572 c 1,29,-1
 613 513 l 1,30,31
 588 522 588 522 550 522 c 0,32,33
 484 522 484 522 448 486 c 128,-1,34
 412 450 412 450 407 369 c 1,35,-1
 411 369 l 1,36,37
 443 419 443 419 518 419 c 0,38,39
 577 419 577 419 612.5 384.5 c 128,-1,40
 648 350 648 350 648 285 c 0,41,42
 648 216 648 216 608.5 175.5 c 128,-1,43
 569 135 569 135 500 135 c 0,22,23
498 192 m 256,44,45
 536 192 536 192 558.5 214.5 c 128,-1,46
 581 237 581 237 581 283 c 0,47,48
 581 364 581 364 501 364 c 0,49,50
 458 364 458 364 434 341.5 c 128,-1,51
 410 319 410 319 410 293 c 0,52,53
 410 249 410 249 435 220.5 c 128,-1,54
 460 192 460 192 498 192 c 256,44,45
EndSplineSet
EndChar
StartChar: seven.paren
Encoding: 9338 9338 384
Width: 1000
Flags: W
LayerCount: 2
Fore
SplineSet
731 -57 m 1,0,1
 859 124 859 124 859 352 c 0,2,3
 859 464 859 464 826.5 571 c 128,-1,4
 794 678 794 678 731 767 c 1,5,-1
 789 767 l 1,6,7
 922 598 922 598 922 351 c 0,8,9
 922 106 922 106 789 -57 c 1,10,-1
 731 -57 l 1,0,1
211 -57 m 1,11,12
 78 106 78 106 78 351 c 0,13,14
 78 598 78 598 211 767 c 1,15,-1
 269 767 l 1,16,17
 206 678 206 678 173.5 571 c 128,-1,18
 141 464 141 464 141 352 c 0,19,20
 141 124 141 124 269 -57 c 1,21,-1
 211 -57 l 1,11,12
420 144 m 1,22,-1
 587 512 l 1,23,-1
 370 512 l 1,24,-1
 370 572 l 1,25,-1
 659 572 l 1,26,-1
 659 523 l 1,27,-1
 492 144 l 1,28,-1
 420 144 l 1,22,-1
EndSplineSet
EndChar
StartChar: nine.paren
Encoding: 9340 9340 386
Width: 1000
Flags: W
LayerCount: 2
Fore
SplineSet
731 -57 m 1,0,1
 859 124 859 124 859 352 c 0,2,3
 859 464 859 464 826.5 571 c 128,-1,4
 794 678 794 678 731 767 c 1,5,-1
 789 767 l 1,6,7
 922 598 922 598 922 351 c 0,8,9
 922 106 922 106 789 -57 c 1,10,-1
 731 -57 l 1,0,1
211 -57 m 1,11,12
 78 106 78 106 78 351 c 0,13,14
 78 598 78 598 211 767 c 1,15,-1
 269 767 l 1,16,17
 206 678 206 678 173.5 571 c 128,-1,18
 141 464 141 464 141 352 c 0,19,20
 141 124 141 124 269 -57 c 1,21,-1
 211 -57 l 1,11,12
455 135 m 0,22,23
 417 135 417 135 393 142 c 1,24,-1
 393 202 l 1,25,26
 414 192 414 192 459 192 c 0,27,28
 522 192 522 192 559 228 c 128,-1,29
 596 264 596 264 600 346 c 1,30,-1
 595 346 l 1,31,32
 561 297 561 297 493 297 c 0,33,34
 430 297 430 297 394 333 c 128,-1,35
 358 369 358 369 358 432 c 0,36,37
 358 497 358 497 398.5 538 c 128,-1,38
 439 579 439 579 506 579 c 0,39,40
 580 579 580 579 622 528.5 c 128,-1,41
 664 478 664 478 664 389 c 0,42,43
 664 135 664 135 455 135 c 0,22,23
504 352 m 0,44,45
 546 352 546 352 571 374 c 128,-1,46
 596 396 596 396 596 422 c 0,47,48
 596 463 596 463 574.5 492.5 c 128,-1,49
 553 522 553 522 506 522 c 0,50,51
 471 522 471 522 448 500 c 128,-1,52
 425 478 425 478 425 435 c 0,53,54
 425 397 425 397 444.5 374.5 c 128,-1,55
 464 352 464 352 504 352 c 0,44,45
EndSplineSet
EndChar
StartChar: one_zero.paren
Encoding: 9341 9341 387
Width: 1000
Flags: W
LayerCount: 2
Fore
SplineSet
731 -57 m 1,0,1
 859 124 859 124 859 352 c 0,2,3
 859 464 859 464 826.5 571 c 128,-1,4
 794 678 794 678 731 767 c 1,5,-1
 789 767 l 1,6,7
 922 598 922 598 922 351 c 0,8,9
 922 106 922 106 789 -57 c 1,10,-1
 731 -57 l 1,0,1
211 -57 m 1,11,12
 78 106 78 106 78 351 c 0,13,14
 78 598 78 598 211 767 c 1,15,-1
 269 767 l 1,16,17
 206 678 206 678 173.5 571 c 128,-1,18
 141 464 141 464 141 352 c 0,19,20
 141 124 141 124 269 -57 c 1,21,-1
 211 -57 l 1,11,12
622 135 m 0,22,23
 485 135 485 135 485 359 c 0,24,25
 485 580 485 580 622 580 c 0,26,27
 760 580 760 580 760 359 c 0,28,29
 760 135 760 135 622 135 c 0,22,23
337 144 m 1,30,-1
 337 467 l 2,31,32
 337 478 337 478 337.5 488.5 c 128,-1,33
 338 499 338 499 339 509 c 1,34,35
 335 505 335 505 329 499.5 c 128,-1,36
 323 494 323 494 314 487 c 0,37,38
 303 478 303 478 288 466 c 128,-1,39
 273 454 273 454 253 440 c 1,40,-1
 219 489 l 1,41,-1
 333 572 l 1,42,-1
 405 572 l 1,43,-1
 405 144 l 1,44,-1
 337 144 l 1,30,-1
622 194 m 0,45,46
 692 194 692 194 692 359 c 0,47,48
 692 522 692 522 622 522 c 0,49,50
 593 522 593 522 578.5 498.5 c 128,-1,51
 564 475 564 475 559 437.5 c 128,-1,52
 554 400 554 400 554 358 c 0,53,54
 554 315 554 315 559 277.5 c 128,-1,55
 564 240 564 240 579 217 c 128,-1,56
 594 194 594 194 622 194 c 0,45,46
EndSplineSet
EndChar
StartChar: one_two.paren
Encoding: 9343 9343 389
Width: 1000
Flags: W
LayerCount: 2
Fore
SplineSet
731 -57 m 1,0,1
 859 124 859 124 859 352 c 0,2,3
 859 464 859 464 826.5 571 c 128,-1,4
 794 678 794 678 731 767 c 1,5,-1
 789 767 l 1,6,7
 922 598 922 598 922 351 c 0,8,9
 922 106 922 106 789 -57 c 1,10,-1
 731 -57 l 1,0,1
211 -57 m 1,11,12
 78 106 78 106 78 351 c 0,13,14
 78 598 78 598 211 767 c 1,15,-1
 269 767 l 1,16,17
 206 678 206 678 173.5 571 c 128,-1,18
 141 464 141 464 141 352 c 0,19,20
 141 124 141 124 269 -57 c 1,21,-1
 211 -57 l 1,11,12
466 143 m 1,22,-1
 466 197 l 1,23,-1
 570 309 l 2,24,25
 613 355 613 355 636.5 387.5 c 128,-1,26
 660 420 660 420 660 462 c 0,27,28
 660 489 660 489 643 505.5 c 128,-1,29
 626 522 626 522 598 522 c 0,30,31
 551 522 551 522 502 479 c 1,32,-1
 469 525 l 1,33,34
 530 580 530 580 601 580 c 0,35,36
 661 580 661 580 695 549 c 128,-1,37
 729 518 729 518 729 462 c 0,38,39
 729 418 729 418 701 378 c 128,-1,40
 673 338 673 338 623 285 c 2,41,-1
 547 205 l 1,42,-1
 728 205 l 1,43,-1
 728 143 l 1,44,-1
 466 143 l 1,22,-1
346 144 m 1,45,-1
 346 467 l 2,46,47
 346 478 346 478 347 488.5 c 128,-1,48
 348 499 348 499 348 509 c 1,49,50
 344 505 344 505 337 499 c 128,-1,51
 330 493 330 493 320 485 c 0,52,53
 309 476 309 476 294.5 465 c 128,-1,54
 280 454 280 454 262 440 c 1,55,-1
 228 489 l 1,56,-1
 342 572 l 1,57,-1
 414 572 l 1,58,-1
 414 144 l 1,59,-1
 346 144 l 1,45,-1
EndSplineSet
EndChar
StartChar: one_three.paren
Encoding: 9344 9344 390
Width: 1000
Flags: W
LayerCount: 2
Fore
SplineSet
731 -57 m 1,0,1
 859 124 859 124 859 352 c 0,2,3
 859 464 859 464 826.5 571 c 128,-1,4
 794 678 794 678 731 767 c 1,5,-1
 789 767 l 1,6,7
 922 598 922 598 922 351 c 0,8,9
 922 106 922 106 789 -57 c 1,10,-1
 731 -57 l 1,0,1
211 -57 m 1,11,12
 78 106 78 106 78 351 c 0,13,14
 78 598 78 598 211 767 c 1,15,-1
 269 767 l 1,16,17
 206 678 206 678 173.5 571 c 128,-1,18
 141 464 141 464 141 352 c 0,19,20
 141 124 141 124 269 -57 c 1,21,-1
 211 -57 l 1,11,12
584 135 m 0,22,23
 522 135 522 135 473 163 c 1,24,-1
 473 226 l 1,25,26
 532 192 532 192 578 192 c 0,27,28
 669 192 669 192 669 268 c 0,29,30
 669 337 669 337 573 337 c 2,31,-1
 529 337 l 1,32,-1
 529 392 l 1,33,-1
 573 392 l 2,34,35
 656 392 656 392 656 462 c 0,36,37
 656 494 656 494 637 508.5 c 128,-1,38
 618 523 618 523 592 523 c 0,39,40
 565 523 565 523 544 512.5 c 128,-1,41
 523 502 523 502 499 485 c 1,42,-1
 467 531 l 1,43,44
 528 580 528 580 595 580 c 0,45,46
 652 580 652 580 688.5 553 c 128,-1,47
 725 526 725 526 725 470 c 0,48,49
 725 432 725 432 702 404.5 c 128,-1,50
 679 377 679 377 643 369 c 1,51,52
 738 351 738 351 738 266 c 0,53,54
 738 199 738 199 695 167 c 128,-1,55
 652 135 652 135 584 135 c 0,22,23
346 144 m 1,56,-1
 346 467 l 2,57,58
 346 478 346 478 347 488.5 c 128,-1,59
 348 499 348 499 348 509 c 1,60,61
 344 505 344 505 339 500.5 c 128,-1,62
 334 496 334 496 327 490 c 0,63,64
 317 480 317 480 300 468 c 128,-1,65
 283 456 283 456 262 440 c 1,66,-1
 228 489 l 1,67,-1
 342 572 l 1,68,-1
 414 572 l 1,69,-1
 414 144 l 1,70,-1
 346 144 l 1,56,-1
EndSplineSet
EndChar
StartChar: one_four.paren
Encoding: 9345 9345 391
Width: 1000
Flags: W
LayerCount: 2
Fore
SplineSet
731 -57 m 1,0,1
 859 124 859 124 859 352 c 0,2,3
 859 464 859 464 826.5 571 c 128,-1,4
 794 678 794 678 731 767 c 1,5,-1
 789 767 l 1,6,7
 922 598 922 598 922 351 c 0,8,9
 922 106 922 106 789 -57 c 1,10,-1
 731 -57 l 1,0,1
211 -57 m 1,11,12
 78 106 78 106 78 351 c 0,13,14
 78 598 78 598 211 767 c 1,15,-1
 269 767 l 1,16,17
 206 678 206 678 173.5 571 c 128,-1,18
 141 464 141 464 141 352 c 0,19,20
 141 124 141 124 269 -57 c 1,21,-1
 211 -57 l 1,11,12
627 144 m 1,22,-1
 627 241 l 1,23,-1
 452 241 l 1,24,-1
 452 291 l 1,25,-1
 626 572 l 1,26,-1
 695 572 l 1,27,-1
 695 299 l 1,28,-1
 755 299 l 1,29,-1
 755 241 l 1,30,-1
 695 241 l 1,31,-1
 695 144 l 1,32,-1
 627 144 l 1,22,-1
345 144 m 1,33,-1
 345 467 l 2,34,35
 345 478 345 478 346 488.5 c 128,-1,36
 347 499 347 499 347 509 c 1,37,38
 343 505 343 505 336.5 499.5 c 128,-1,39
 330 494 330 494 321 486 c 0,40,41
 310 477 310 477 295 465.5 c 128,-1,42
 280 454 280 454 261 440 c 1,43,-1
 227 489 l 1,44,-1
 341 572 l 1,45,-1
 413 572 l 1,46,-1
 413 144 l 1,47,-1
 345 144 l 1,33,-1
515 299 m 1,48,-1
 627 299 l 1,49,-1
 627 398 l 2,50,51
 627 425 627 425 628.5 451.5 c 128,-1,52
 630 478 630 478 631 500 c 1,53,54
 626 491 626 491 618 476 c 128,-1,55
 610 461 610 461 598 440 c 2,56,-1
 515 299 l 1,48,-1
EndSplineSet
EndChar
StartChar: one_five.paren
Encoding: 9346 9346 392
Width: 1000
Flags: W
LayerCount: 2
Fore
SplineSet
731 -57 m 1,0,1
 859 124 859 124 859 352 c 0,2,3
 859 464 859 464 826.5 571 c 128,-1,4
 794 678 794 678 731 767 c 1,5,-1
 789 767 l 1,6,7
 922 598 922 598 922 351 c 0,8,9
 922 106 922 106 789 -57 c 1,10,-1
 731 -57 l 1,0,1
211 -57 m 1,11,12
 78 106 78 106 78 351 c 0,13,14
 78 598 78 598 211 767 c 1,15,-1
 269 767 l 1,16,17
 206 678 206 678 173.5 571 c 128,-1,18
 141 464 141 464 141 352 c 0,19,20
 141 124 141 124 269 -57 c 1,21,-1
 211 -57 l 1,11,12
578 136 m 0,22,23
 505 136 505 136 466 161 c 1,24,-1
 466 228 l 1,25,26
 491 211 491 211 521 202 c 128,-1,27
 551 193 551 193 574 193 c 0,28,29
 661 193 661 193 661 276 c 0,30,31
 661 314 661 314 637.5 335 c 128,-1,32
 614 356 614 356 573 356 c 0,33,34
 545 356 545 356 503 344 c 1,35,-1
 476 364 l 1,36,-1
 491 573 l 1,37,-1
 710 573 l 1,38,-1
 710 518 l 1,39,-1
 546 518 l 1,40,-1
 537 407 l 1,41,42
 558 414 558 414 591 414 c 0,43,44
 655 414 655 414 693.5 377.5 c 128,-1,45
 732 341 732 341 732 282 c 0,46,47
 732 209 732 209 691 172.5 c 128,-1,48
 650 136 650 136 578 136 c 0,22,23
345 144 m 1,49,-1
 345 467 l 2,50,51
 345 478 345 478 346 488.5 c 128,-1,52
 347 499 347 499 347 509 c 1,53,54
 343 505 343 505 337.5 499.5 c 128,-1,55
 332 494 332 494 324 488 c 0,56,57
 312 480 312 480 296.5 467.5 c 128,-1,58
 281 455 281 455 261 440 c 1,59,-1
 227 489 l 1,60,-1
 341 572 l 1,61,-1
 413 572 l 1,62,-1
 413 144 l 1,63,-1
 345 144 l 1,49,-1
EndSplineSet
EndChar
StartChar: one_six.paren
Encoding: 9347 9347 393
Width: 1000
Flags: W
LayerCount: 2
Fore
SplineSet
731 -57 m 1,0,1
 859 124 859 124 859 352 c 0,2,3
 859 464 859 464 826.5 571 c 128,-1,4
 794 678 794 678 731 767 c 1,5,-1
 789 767 l 1,6,7
 922 598 922 598 922 351 c 0,8,9
 922 106 922 106 789 -57 c 1,10,-1
 731 -57 l 1,0,1
211 -57 m 1,11,12
 78 106 78 106 78 351 c 0,13,14
 78 598 78 598 211 767 c 1,15,-1
 269 767 l 1,16,17
 206 678 206 678 173.5 571 c 128,-1,18
 141 464 141 464 141 352 c 0,19,20
 141 124 141 124 269 -57 c 1,21,-1
 211 -57 l 1,11,12
613 135 m 0,22,23
 543 135 543 135 504 186.5 c 128,-1,24
 465 238 465 238 465 327 c 0,25,26
 465 579 465 579 661 579 c 0,27,28
 675 579 675 579 689 577.5 c 128,-1,29
 703 576 703 576 716 572 c 1,30,-1
 716 513 l 1,31,32
 691 522 691 522 659 522 c 0,33,34
 599 522 599 522 567 485.5 c 128,-1,35
 535 449 535 449 530 369 c 1,36,-1
 534 369 l 1,37,38
 563 419 563 419 632 419 c 0,39,40
 685 419 685 419 718 384.5 c 128,-1,41
 751 350 751 350 751 285 c 0,42,43
 751 243 751 243 733 209 c 128,-1,44
 715 175 715 175 684 155 c 128,-1,45
 653 135 653 135 613 135 c 0,22,23
340 144 m 1,46,-1
 340 467 l 2,47,48
 340 478 340 478 340.5 488.5 c 128,-1,49
 341 499 341 499 342 509 c 1,50,51
 335 502 335 502 318 488 c 0,52,53
 307 479 307 479 291.5 467 c 128,-1,54
 276 455 276 455 256 440 c 1,55,-1
 222 489 l 1,56,-1
 336 572 l 1,57,-1
 408 572 l 1,58,-1
 408 144 l 1,59,-1
 340 144 l 1,46,-1
611 192 m 0,60,61
 644 192 644 192 664 214.5 c 128,-1,62
 684 237 684 237 684 283 c 0,63,64
 684 321 684 321 666 342.5 c 128,-1,65
 648 364 648 364 613 364 c 0,66,67
 576 364 576 364 554.5 341.5 c 128,-1,68
 533 319 533 319 533 293 c 0,69,70
 533 250 533 250 555 221 c 128,-1,71
 577 192 577 192 611 192 c 0,60,61
EndSplineSet
EndChar
StartChar: one_seven.paren
Encoding: 9348 9348 394
Width: 1000
Flags: W
LayerCount: 2
Fore
SplineSet
731 -57 m 1,0,1
 859 124 859 124 859 352 c 0,2,3
 859 464 859 464 826.5 571 c 128,-1,4
 794 678 794 678 731 767 c 1,5,-1
 789 767 l 1,6,7
 922 598 922 598 922 351 c 0,8,9
 922 106 922 106 789 -57 c 1,10,-1
 731 -57 l 1,0,1
211 -57 m 1,11,12
 78 106 78 106 78 351 c 0,13,14
 78 598 78 598 211 767 c 1,15,-1
 269 767 l 1,16,17
 206 678 206 678 173.5 571 c 128,-1,18
 141 464 141 464 141 352 c 0,19,20
 141 124 141 124 269 -57 c 1,21,-1
 211 -57 l 1,11,12
515 144 m 1,22,-1
 672 513 l 1,23,-1
 475 513 l 1,24,-1
 475 573 l 1,25,-1
 744 573 l 1,26,-1
 744 524 l 1,27,-1
 584 144 l 1,28,-1
 515 144 l 1,22,-1
355 144 m 1,29,-1
 355 467 l 2,30,31
 355 478 355 478 355.5 488.5 c 128,-1,32
 356 499 356 499 357 509 c 1,33,34
 353 505 353 505 347.5 500 c 128,-1,35
 342 495 342 495 334 489 c 0,36,37
 322 481 322 481 306.5 468 c 128,-1,38
 291 455 291 455 271 440 c 1,39,-1
 237 489 l 1,40,-1
 351 572 l 1,41,-1
 423 572 l 1,42,-1
 423 144 l 1,43,-1
 355 144 l 1,29,-1
EndSplineSet
EndChar
StartChar: one_nine.paren
Encoding: 9350 9350 396
Width: 1000
Flags: W
LayerCount: 2
Fore
SplineSet
731 -57 m 1,0,1
 859 124 859 124 859 352 c 0,2,3
 859 464 859 464 826.5 571 c 128,-1,4
 794 678 794 678 731 767 c 1,5,-1
 789 767 l 1,6,7
 922 598 922 598 922 351 c 0,8,9
 922 106 922 106 789 -57 c 1,10,-1
 731 -57 l 1,0,1
211 -57 m 1,11,12
 78 106 78 106 78 351 c 0,13,14
 78 598 78 598 211 767 c 1,15,-1
 269 767 l 1,16,17
 206 678 206 678 173.5 571 c 128,-1,18
 141 464 141 464 141 352 c 0,19,20
 141 124 141 124 269 -57 c 1,21,-1
 211 -57 l 1,11,12
553 135 m 0,22,23
 539 135 539 135 525 136.5 c 128,-1,24
 511 138 511 138 498 142 c 1,25,-1
 498 201 l 1,26,27
 524 192 524 192 555 192 c 0,28,29
 617 192 617 192 648.5 229 c 128,-1,30
 680 266 680 266 684 345 c 1,31,-1
 680 345 l 1,32,33
 651 295 651 295 582 295 c 0,34,35
 529 295 529 295 496 330 c 128,-1,36
 463 365 463 365 463 429 c 0,37,38
 463 497 463 497 501.5 538 c 128,-1,39
 540 579 540 579 601 579 c 0,40,41
 664 579 664 579 706.5 531.5 c 128,-1,42
 749 484 749 484 749 387 c 0,43,44
 749 135 749 135 553 135 c 0,22,23
341 144 m 1,45,-1
 341 467 l 2,46,47
 341 478 341 478 341.5 488.5 c 128,-1,48
 342 499 342 499 343 509 c 1,49,50
 337 503 337 503 320 489 c 0,51,52
 309 480 309 480 293 467.5 c 128,-1,53
 277 455 277 455 257 440 c 1,54,-1
 223 489 l 1,55,-1
 337 572 l 1,56,-1
 409 572 l 1,57,-1
 409 144 l 1,58,-1
 341 144 l 1,45,-1
601 350 m 0,59,60
 639 350 639 350 660 372.5 c 128,-1,61
 681 395 681 395 681 421 c 0,62,63
 681 464 681 464 659 493 c 128,-1,64
 637 522 637 522 603 522 c 0,65,66
 570 522 570 522 550 499.5 c 128,-1,67
 530 477 530 477 530 431 c 0,68,69
 530 393 530 393 548 371.5 c 128,-1,70
 566 350 566 350 601 350 c 0,59,60
EndSplineSet
EndChar
StartChar: one_period
Encoding: 9352 9352 439
Width: 1000
Flags: W
LayerCount: 2
Fore
SplineSet
455 144 m 1,0,-1
 455 420 l 2,1,2
 455 443 455 443 456.5 465.5 c 128,-1,3
 458 488 458 488 459 509 c 1,4,5
 455 505 455 505 451 501.5 c 128,-1,6
 447 498 447 498 442 493 c 256,7,8
 437 488 437 488 416.5 472.5 c 128,-1,9
 396 457 396 457 360 431 c 1,10,-1
 326 480 l 1,11,-1
 453 572 l 1,12,-1
 525 572 l 1,13,-1
 525 144 l 1,14,-1
 455 144 l 1,0,-1
653 135 m 0,15,16
 637 135 637 135 623 146.5 c 128,-1,17
 609 158 609 158 609 181 c 0,18,19
 609 203 609 203 623 214 c 128,-1,20
 637 225 637 225 653 225 c 0,21,22
 673 225 673 225 686 214 c 128,-1,23
 699 203 699 203 699 181 c 0,24,25
 699 135 699 135 653 135 c 0,15,16
EndSplineSet
EndChar
StartChar: two_period
Encoding: 9353 9353 440
Width: 1000
Flags: W
LayerCount: 2
Fore
SplineSet
329 143 m 1,0,-1
 329 197 l 1,1,-1
 442 309 l 2,2,3
 479 346 479 346 499.5 370 c 128,-1,4
 520 394 520 394 528.5 414 c 128,-1,5
 537 434 537 434 537 458 c 0,6,7
 537 490 537 490 518.5 506 c 128,-1,8
 500 522 500 522 471 522 c 0,9,10
 421 522 421 522 368 479 c 1,11,-1
 334 525 l 1,12,13
 396 580 396 580 472 580 c 0,14,15
 535 580 535 580 570.5 549 c 128,-1,16
 606 518 606 518 606 462 c 0,17,18
 606 411 606 411 575 371.5 c 128,-1,19
 544 332 544 332 493 282 c 2,20,-1
 411 203 l 1,21,-1
 605 203 l 1,22,-1
 605 143 l 1,23,-1
 329 143 l 1,0,-1
715 135 m 0,24,25
 699 135 699 135 685 146.5 c 128,-1,26
 671 158 671 158 671 181 c 0,27,28
 671 203 671 203 685 214 c 128,-1,29
 699 225 699 225 715 225 c 0,30,31
 735 225 735 225 748 214 c 128,-1,32
 761 203 761 203 761 181 c 0,33,34
 761 135 761 135 715 135 c 0,24,25
EndSplineSet
EndChar
StartChar: three_period
Encoding: 9354 9354 441
Width: 1000
Flags: W
LayerCount: 2
Fore
SplineSet
455 135 m 0,0,1
 380 135 380 135 327 163 c 1,2,-1
 327 226 l 1,3,4
 395 192 395 192 456 192 c 0,5,6
 554 192 554 192 554 268 c 0,7,8
 554 337 554 337 447 337 c 2,9,-1
 391 337 l 1,10,-1
 391 392 l 1,11,-1
 447 392 l 2,12,13
 542 392 542 392 542 462 c 0,14,15
 542 494 542 494 522 508.5 c 128,-1,16
 502 523 502 523 473 523 c 0,17,18
 425 523 425 523 364 485 c 1,19,-1
 329 531 l 1,20,21
 395 580 395 580 472 580 c 0,22,23
 542 580 542 580 577 549 c 128,-1,24
 612 518 612 518 612 470 c 0,25,26
 612 395 612 395 540 368 c 1,27,28
 625 347 625 347 625 266 c 0,29,30
 625 208 625 208 583.5 171.5 c 128,-1,31
 542 135 542 135 455 135 c 0,0,1
712 134 m 0,32,33
 695 134 695 134 681.5 145 c 128,-1,34
 668 156 668 156 668 180 c 0,35,36
 668 202 668 202 681.5 213 c 128,-1,37
 695 224 695 224 712 224 c 0,38,39
 758 224 758 224 758 181 c 0,40,41
 758 134 758 134 712 134 c 0,32,33
EndSplineSet
EndChar
StartChar: seven_period
Encoding: 9358 9358 445
Width: 1000
Flags: W
LayerCount: 2
Fore
SplineSet
380 144 m 1,0,-1
 547 512 l 1,1,-1
 330 512 l 1,2,-1
 330 572 l 1,3,-1
 619 572 l 1,4,-1
 619 523 l 1,5,-1
 452 144 l 1,6,-1
 380 144 l 1,0,-1
635 135 m 0,7,8
 619 135 619 135 605 146.5 c 128,-1,9
 591 158 591 158 591 181 c 0,10,11
 591 203 591 203 605 214 c 128,-1,12
 619 225 619 225 635 225 c 0,13,14
 655 225 655 225 668 214 c 128,-1,15
 681 203 681 203 681 181 c 0,16,17
 681 135 681 135 635 135 c 0,7,8
EndSplineSet
EndChar
StartChar: eight_period
Encoding: 9359 9359 446
Width: 1000
Flags: W
LayerCount: 2
Fore
SplineSet
460 135 m 0,0,1
 388 135 388 135 350 166.5 c 128,-1,2
 312 198 312 198 312 255 c 0,3,4
 312 327 312 327 387 367 c 1,5,6
 357 387 357 387 341 408.5 c 128,-1,7
 325 430 325 430 325 468 c 0,8,9
 325 519 325 519 363.5 549.5 c 128,-1,10
 402 580 402 580 460 580 c 0,11,12
 519 580 519 580 555.5 550.5 c 128,-1,13
 592 521 592 521 592 471 c 0,14,15
 592 410 592 410 522 370 c 1,16,17
 606 333 606 333 606 258 c 0,18,19
 606 202 606 202 565.5 168.5 c 128,-1,20
 525 135 525 135 460 135 c 0,0,1
461 397 m 1,21,22
 526 423 526 423 526 469 c 0,23,24
 526 495 526 495 508 510 c 128,-1,25
 490 525 490 525 459 525 c 0,26,27
 427 525 427 525 409.5 510 c 128,-1,28
 392 495 392 495 392 469 c 0,29,30
 392 426 392 426 461 397 c 1,21,22
458 191 m 0,31,32
 538 191 538 191 538 255 c 0,33,34
 538 307 538 307 457 335 c 2,35,-1
 444 340 l 1,36,37
 379 309 379 309 379 255 c 0,38,39
 379 191 379 191 458 191 c 0,31,32
703 135 m 0,40,41
 686 135 686 135 672.5 146 c 128,-1,42
 659 157 659 157 659 181 c 0,43,44
 659 203 659 203 672.5 214 c 128,-1,45
 686 225 686 225 703 225 c 0,46,47
 723 225 723 225 736 214 c 128,-1,48
 749 203 749 203 749 181 c 0,49,50
 749 135 749 135 703 135 c 0,40,41
EndSplineSet
EndChar
StartChar: one_zero_period
Encoding: 9361 9361 448
Width: 1000
Flags: W
LayerCount: 2
Fore
SplineSet
568 135 m 0,0,1
 421 135 421 135 421 359 c 0,2,3
 421 580 421 580 568 580 c 0,4,5
 716 580 716 580 716 359 c 0,6,7
 716 253 716 253 682 194 c 128,-1,8
 648 135 648 135 568 135 c 0,0,1
285 144 m 1,9,-1
 285 420 l 2,10,11
 285 443 285 443 286.5 465.5 c 128,-1,12
 288 488 288 488 289 509 c 1,13,14
 285 505 285 505 281 501.5 c 128,-1,15
 277 498 277 498 272 493 c 256,16,17
 267 488 267 488 246.5 472.5 c 128,-1,18
 226 457 226 457 190 431 c 1,19,-1
 156 480 l 1,20,-1
 283 572 l 1,21,-1
 355 572 l 1,22,-1
 355 144 l 1,23,-1
 285 144 l 1,9,-1
568 194 m 0,24,25
 648 194 648 194 648 359 c 0,26,27
 648 522 648 522 568 522 c 0,28,29
 527 522 527 522 508.5 481 c 128,-1,30
 490 440 490 440 490 358 c 0,31,32
 490 194 490 194 568 194 c 0,24,25
793 135 m 0,33,34
 776 135 776 135 762.5 146 c 128,-1,35
 749 157 749 157 749 181 c 0,36,37
 749 203 749 203 762.5 214 c 128,-1,38
 776 225 776 225 793 225 c 0,39,40
 813 225 813 225 826 214 c 128,-1,41
 839 203 839 203 839 181 c 0,42,43
 839 135 839 135 793 135 c 0,33,34
EndSplineSet
EndChar
StartChar: one_three_period
Encoding: 9364 9364 451
Width: 1000
Flags: W
LayerCount: 2
Fore
SplineSet
549 135 m 0,0,1
 474 135 474 135 421 163 c 1,2,-1
 421 226 l 1,3,4
 488 192 488 192 550 192 c 0,5,6
 648 192 648 192 648 268 c 0,7,8
 648 337 648 337 541 337 c 2,9,-1
 485 337 l 1,10,-1
 485 392 l 1,11,-1
 541 392 l 2,12,13
 636 392 636 392 636 462 c 0,14,15
 636 494 636 494 616 508.5 c 128,-1,16
 596 523 596 523 567 523 c 0,17,18
 519 523 519 523 458 485 c 1,19,-1
 423 531 l 1,20,21
 487 580 487 580 566 580 c 0,22,23
 637 580 637 580 671.5 549 c 128,-1,24
 706 518 706 518 706 470 c 0,25,26
 706 395 706 395 634 368 c 1,27,28
 719 347 719 347 719 266 c 0,29,30
 719 208 719 208 678 171.5 c 128,-1,31
 637 135 637 135 549 135 c 0,0,1
299 144 m 1,32,-1
 299 420 l 2,33,34
 299 443 299 443 300 465.5 c 128,-1,35
 301 488 301 488 303 509 c 1,36,37
 299 505 299 505 295 501.5 c 128,-1,38
 291 498 291 498 287 494 c 0,39,40
 282 490 282 490 261 474 c 128,-1,41
 240 458 240 458 204 431 c 1,42,-1
 170 480 l 1,43,-1
 297 572 l 1,44,-1
 369 572 l 1,45,-1
 369 144 l 1,46,-1
 299 144 l 1,32,-1
811 135 m 0,47,48
 794 135 794 135 780.5 146 c 128,-1,49
 767 157 767 157 767 181 c 0,50,51
 767 203 767 203 780.5 214 c 128,-1,52
 794 225 794 225 811 225 c 0,53,54
 831 225 831 225 844 214 c 128,-1,55
 857 203 857 203 857 181 c 0,56,57
 857 135 857 135 811 135 c 0,47,48
EndSplineSet
EndChar
StartChar: one_six_period
Encoding: 9367 9367 454
Width: 1000
Flags: W
LayerCount: 2
Fore
SplineSet
578 135 m 0,0,1
 505 135 505 135 462.5 186 c 128,-1,2
 420 237 420 237 420 327 c 0,3,4
 420 579 420 579 632 579 c 0,5,6
 667 579 667 579 691 572 c 1,7,-1
 691 513 l 1,8,9
 666 522 666 522 628 522 c 0,10,11
 561 522 561 522 525.5 485.5 c 128,-1,12
 490 449 490 449 485 369 c 1,13,-1
 489 369 l 1,14,15
 521 419 521 419 596 419 c 0,16,17
 654 419 654 419 690 384.5 c 128,-1,18
 726 350 726 350 726 285 c 0,19,20
 726 216 726 216 686.5 175.5 c 128,-1,21
 647 135 647 135 578 135 c 0,0,1
295 144 m 1,22,-1
 295 420 l 2,23,24
 295 443 295 443 296 465.5 c 128,-1,25
 297 488 297 488 299 509 c 1,26,27
 294 503 294 503 288 498.5 c 128,-1,28
 282 494 282 494 277 489 c 0,29,30
 271 484 271 484 252 469.5 c 128,-1,31
 233 455 233 455 200 431 c 1,32,-1
 166 480 l 1,33,-1
 293 572 l 1,34,-1
 365 572 l 1,35,-1
 365 144 l 1,36,-1
 295 144 l 1,22,-1
576 192 m 256,37,38
 614 192 614 192 636.5 214.5 c 128,-1,39
 659 237 659 237 659 283 c 0,40,41
 659 364 659 364 579 364 c 0,42,43
 536 364 536 364 512 341.5 c 128,-1,44
 488 319 488 319 488 293 c 0,45,46
 488 249 488 249 513 220.5 c 128,-1,47
 538 192 538 192 576 192 c 256,37,38
809 135 m 0,48,49
 792 135 792 135 778.5 146 c 128,-1,50
 765 157 765 157 765 181 c 0,51,52
 765 203 765 203 778.5 214 c 128,-1,53
 792 225 792 225 809 225 c 0,54,55
 829 225 829 225 842 214 c 128,-1,56
 855 203 855 203 855 181 c 0,57,58
 855 135 855 135 809 135 c 0,48,49
EndSplineSet
EndChar
StartChar: c.paren
Encoding: 9374 9374 927
Width: 1000
Flags: W
LayerCount: 2
Fore
SplineSet
731 -57 m 1,0,1
 859 124 859 124 859 352 c 0,2,3
 859 464 859 464 826.5 571 c 128,-1,4
 794 678 794 678 731 767 c 1,5,-1
 789 767 l 1,6,7
 922 598 922 598 922 351 c 0,8,9
 922 106 922 106 789 -57 c 1,10,-1
 731 -57 l 1,0,1
211 -57 m 1,11,12
 78 106 78 106 78 351 c 0,13,14
 78 598 78 598 211 767 c 1,15,-1
 269 767 l 1,16,17
 206 678 206 678 173.5 571 c 128,-1,18
 141 464 141 464 141 352 c 0,19,20
 141 124 141 124 269 -57 c 1,21,-1
 211 -57 l 1,11,12
527 190 m 0,22,23
 455 190 455 190 415 234 c 128,-1,24
 375 278 375 278 375 356 c 0,25,26
 375 436 375 436 416.5 479.5 c 128,-1,27
 458 523 458 523 531 523 c 0,28,29
 580 523 580 523 622 504 c 1,30,-1
 605 454 l 1,31,32
 569 470 569 470 530 470 c 0,33,34
 441 470 441 470 441 356 c 0,35,36
 441 302 441 302 463 272.5 c 128,-1,37
 485 243 485 243 527 243 c 0,38,39
 568 243 568 243 617 264 c 1,40,-1
 617 210 l 1,41,42
 593 200 593 200 571 195 c 128,-1,43
 549 190 549 190 527 190 c 0,22,23
EndSplineSet
EndChar
StartChar: d.paren
Encoding: 9375 9375 928
Width: 1000
Flags: W
LayerCount: 2
Fore
SplineSet
731 -57 m 1,0,1
 859 124 859 124 859 352 c 0,2,3
 859 464 859 464 826.5 571 c 128,-1,4
 794 678 794 678 731 767 c 1,5,-1
 789 767 l 1,6,7
 922 598 922 598 922 351 c 0,8,9
 922 106 922 106 789 -57 c 1,10,-1
 731 -57 l 1,0,1
211 -57 m 1,11,12
 78 106 78 106 78 351 c 0,13,14
 78 598 78 598 211 767 c 1,15,-1
 269 767 l 1,16,17
 206 678 206 678 173.5 571 c 128,-1,18
 141 464 141 464 141 352 c 0,19,20
 141 124 141 124 269 -57 c 1,21,-1
 211 -57 l 1,11,12
489 190 m 0,22,23
 426 190 426 190 387.5 231.5 c 128,-1,24
 349 273 349 273 349 357 c 0,25,26
 349 439 349 439 387.5 481 c 128,-1,27
 426 523 426 523 489 523 c 0,28,29
 520 523 520 523 541.5 511 c 128,-1,30
 563 499 563 499 583 473 c 1,31,-1
 586 474 l 1,32,33
 585 490 585 490 583.5 505.5 c 128,-1,34
 582 521 582 521 582 537 c 2,35,-1
 582 650 l 1,36,-1
 648 650 l 1,37,-1
 648 195 l 1,38,-1
 599 195 l 1,39,-1
 589 242 l 1,40,41
 548 190 548 190 489 190 c 0,22,23
496 239 m 0,42,43
 546 239 546 239 564 267.5 c 128,-1,44
 582 296 582 296 582 355 c 2,45,-1
 582 359 l 2,46,47
 582 418 582 418 564 446 c 128,-1,48
 546 474 546 474 497 474 c 0,49,50
 417 474 417 474 417 358 c 0,51,52
 417 239 417 239 496 239 c 0,42,43
EndSplineSet
EndChar
StartChar: e.paren
Encoding: 9376 9376 929
Width: 1000
Flags: W
LayerCount: 2
Fore
SplineSet
731 -57 m 1,0,1
 859 124 859 124 859 352 c 0,2,3
 859 464 859 464 826.5 571 c 128,-1,4
 794 678 794 678 731 767 c 1,5,-1
 789 767 l 1,6,7
 922 598 922 598 922 351 c 0,8,9
 922 106 922 106 789 -57 c 1,10,-1
 731 -57 l 1,0,1
211 -57 m 1,11,12
 78 106 78 106 78 351 c 0,13,14
 78 598 78 598 211 767 c 1,15,-1
 269 767 l 1,16,17
 206 678 206 678 173.5 571 c 128,-1,18
 141 464 141 464 141 352 c 0,19,20
 141 124 141 124 269 -57 c 1,21,-1
 211 -57 l 1,11,12
523 190 m 0,22,23
 451 190 451 190 407 232 c 128,-1,24
 363 274 363 274 363 355 c 0,25,26
 363 433 363 433 403.5 478 c 128,-1,27
 444 523 444 523 511 523 c 0,28,29
 577 523 577 523 613.5 483.5 c 128,-1,30
 650 444 650 444 650 378 c 2,31,-1
 650 343 l 1,32,-1
 429 343 l 1,33,34
 435 242 435 242 526 242 c 0,35,36
 576 242 576 242 635 267 c 1,37,-1
 635 213 l 1,38,39
 580 190 580 190 523 190 c 0,22,23
431 392 m 1,40,-1
 581 392 l 1,41,42
 578 473 578 473 510 473 c 0,43,44
 477 473 477 473 456.5 451.5 c 128,-1,45
 436 430 436 430 431 392 c 1,40,-1
EndSplineSet
EndChar
StartChar: f.paren
Encoding: 9377 9377 930
Width: 1000
Flags: W
LayerCount: 2
Fore
SplineSet
731 -57 m 1,0,1
 859 124 859 124 859 352 c 0,2,3
 859 464 859 464 826.5 571 c 128,-1,4
 794 678 794 678 731 767 c 1,5,-1
 789 767 l 1,6,7
 922 598 922 598 922 351 c 0,8,9
 922 106 922 106 789 -57 c 1,10,-1
 731 -57 l 1,0,1
211 -57 m 1,11,12
 78 106 78 106 78 351 c 0,13,14
 78 598 78 598 211 767 c 1,15,-1
 269 767 l 1,16,17
 206 678 206 678 173.5 571 c 128,-1,18
 141 464 141 464 141 352 c 0,19,20
 141 124 141 124 269 -57 c 1,21,-1
 211 -57 l 1,11,12
444 195 m 1,22,-1
 444 467 l 1,23,-1
 388 467 l 1,24,-1
 388 496 l 1,25,-1
 444 516 l 1,26,-1
 444 534 l 2,27,28
 444 654 444 654 553 654 c 0,29,30
 584 654 584 654 626 640 c 1,31,-1
 609 591 l 1,32,33
 579 604 579 604 554 604 c 0,34,35
 510 604 510 604 510 538 c 2,36,-1
 510 517 l 1,37,-1
 592 517 l 1,38,-1
 592 467 l 1,39,-1
 510 467 l 1,40,-1
 510 195 l 1,41,-1
 444 195 l 1,22,-1
EndSplineSet
EndChar
StartChar: m.paren
Encoding: 9384 9384 937
Width: 1000
Flags: W
LayerCount: 2
Fore
SplineSet
731 -57 m 1,0,1
 859 124 859 124 859 352 c 0,2,3
 859 464 859 464 826.5 571 c 128,-1,4
 794 678 794 678 731 767 c 1,5,-1
 789 767 l 1,6,7
 922 598 922 598 922 351 c 0,8,9
 922 106 922 106 789 -57 c 1,10,-1
 731 -57 l 1,0,1
211 -57 m 1,11,12
 78 106 78 106 78 351 c 0,13,14
 78 598 78 598 211 767 c 1,15,-1
 269 767 l 1,16,17
 206 678 206 678 173.5 571 c 128,-1,18
 141 464 141 464 141 352 c 0,19,20
 141 124 141 124 269 -57 c 1,21,-1
 211 -57 l 1,11,12
259 195 m 1,22,-1
 259 517 l 1,23,-1
 307 517 l 1,24,-1
 325 470 l 1,25,-1
 326 470 l 1,26,27
 359 523 359 523 427 523 c 0,28,29
 511 523 511 523 530 463 c 1,30,-1
 531 463 l 1,31,32
 555 500 555 500 580.5 511.5 c 128,-1,33
 606 523 606 523 642 523 c 0,34,35
 755 523 755 523 755 404 c 2,36,-1
 755 195 l 1,37,-1
 690 195 l 1,38,-1
 690 402 l 2,39,40
 690 473 690 473 626 473 c 0,41,42
 579 473 579 473 559.5 447 c 128,-1,43
 540 421 540 421 540 372 c 2,44,-1
 540 195 l 1,45,-1
 475 195 l 1,46,-1
 475 402 l 2,47,48
 475 473 475 473 411 473 c 0,49,50
 363 473 363 473 344 444.5 c 128,-1,51
 325 416 325 416 325 362 c 2,52,-1
 325 195 l 1,53,-1
 259 195 l 1,22,-1
EndSplineSet
EndChar
StartChar: o.paren
Encoding: 9386 9386 939
Width: 1000
Flags: W
LayerCount: 2
Fore
SplineSet
731 -57 m 1,0,1
 859 124 859 124 859 352 c 0,2,3
 859 464 859 464 826.5 571 c 128,-1,4
 794 678 794 678 731 767 c 1,5,-1
 789 767 l 1,6,7
 922 598 922 598 922 351 c 0,8,9
 922 106 922 106 789 -57 c 1,10,-1
 731 -57 l 1,0,1
211 -57 m 1,11,12
 78 106 78 106 78 351 c 0,13,14
 78 598 78 598 211 767 c 1,15,-1
 269 767 l 1,16,17
 206 678 206 678 173.5 571 c 128,-1,18
 141 464 141 464 141 352 c 0,19,20
 141 124 141 124 269 -57 c 1,21,-1
 211 -57 l 1,11,12
499 190 m 0,22,23
 432 190 432 190 389 233.5 c 128,-1,24
 346 277 346 277 346 357 c 0,25,26
 346 435 346 435 387.5 479 c 128,-1,27
 429 523 429 523 501 523 c 0,28,29
 570 523 570 523 612 479 c 128,-1,30
 654 435 654 435 654 357 c 0,31,32
 654 277 654 277 612.5 233.5 c 128,-1,33
 571 190 571 190 499 190 c 0,22,23
500 242 m 256,34,35
 588 242 588 242 588 357 c 0,36,37
 588 471 588 471 500 471 c 256,38,39
 412 471 412 471 412 357 c 0,40,41
 412 242 412 242 500 242 c 256,34,35
EndSplineSet
EndChar
StartChar: p.paren
Encoding: 9387 9387 940
Width: 1000
Flags: W
LayerCount: 2
Fore
SplineSet
731 -57 m 1,0,1
 859 124 859 124 859 352 c 0,2,3
 859 464 859 464 826.5 571 c 128,-1,4
 794 678 794 678 731 767 c 1,5,-1
 789 767 l 1,6,7
 922 598 922 598 922 351 c 0,8,9
 922 106 922 106 789 -57 c 1,10,-1
 731 -57 l 1,0,1
211 -57 m 1,11,12
 78 106 78 106 78 351 c 0,13,14
 78 598 78 598 211 767 c 1,15,-1
 269 767 l 1,16,17
 206 678 206 678 173.5 571 c 128,-1,18
 141 464 141 464 141 352 c 0,19,20
 141 124 141 124 269 -57 c 1,21,-1
 211 -57 l 1,11,12
378 53 m 1,22,-1
 378 517 l 1,23,-1
 427 517 l 1,24,-1
 437 471 l 1,25,26
 478 523 478 523 544 523 c 0,27,28
 601 523 601 523 639 481.5 c 128,-1,29
 677 440 677 440 677 356 c 0,30,31
 677 274 677 274 638.5 232 c 128,-1,32
 600 190 600 190 537 190 c 0,33,34
 506 190 506 190 484.5 202 c 128,-1,35
 463 214 463 214 443 240 c 1,36,-1
 440 239 l 1,37,38
 441 223 441 223 442.5 207.5 c 128,-1,39
 444 192 444 192 444 176 c 2,40,-1
 444 53 l 1,41,-1
 378 53 l 1,22,-1
529 239 m 0,42,43
 609 239 609 239 609 355 c 0,44,45
 609 474 609 474 530 474 c 0,46,47
 444 474 444 474 444 355 c 2,48,-1
 444 354 l 2,49,50
 444 239 444 239 529 239 c 0,42,43
EndSplineSet
EndChar
StartChar: q.paren
Encoding: 9388 9388 941
Width: 1000
Flags: W
LayerCount: 2
Fore
SplineSet
731 -57 m 1,0,1
 859 124 859 124 859 352 c 0,2,3
 859 464 859 464 826.5 571 c 128,-1,4
 794 678 794 678 731 767 c 1,5,-1
 789 767 l 1,6,7
 922 598 922 598 922 351 c 0,8,9
 922 106 922 106 789 -57 c 1,10,-1
 731 -57 l 1,0,1
211 -57 m 1,11,12
 78 106 78 106 78 351 c 0,13,14
 78 598 78 598 211 767 c 1,15,-1
 269 767 l 1,16,17
 206 678 206 678 173.5 571 c 128,-1,18
 141 464 141 464 141 352 c 0,19,20
 141 124 141 124 269 -57 c 1,21,-1
 211 -57 l 1,11,12
556 53 m 1,22,-1
 556 176 l 2,23,24
 556 192 556 192 557.5 207.5 c 128,-1,25
 559 223 559 223 560 239 c 1,26,-1
 557 240 l 1,27,28
 537 214 537 214 515.5 202 c 128,-1,29
 494 190 494 190 463 190 c 0,30,31
 400 190 400 190 361.5 232 c 128,-1,32
 323 274 323 274 323 356 c 0,33,34
 323 440 323 440 361 481.5 c 128,-1,35
 399 523 399 523 456 523 c 0,36,37
 522 523 522 523 563 471 c 1,38,-1
 573 517 l 1,39,-1
 622 517 l 1,40,-1
 622 53 l 1,41,-1
 556 53 l 1,22,-1
471 239 m 0,42,43
 556 239 556 239 556 353 c 2,44,-1
 556 354 l 2,45,46
 556 474 556 474 470 474 c 0,47,48
 391 474 391 474 391 355 c 0,49,50
 391 239 391 239 471 239 c 0,42,43
EndSplineSet
EndChar
StartChar: s.paren
Encoding: 9390 9390 943
Width: 1000
Flags: W
LayerCount: 2
Fore
SplineSet
731 -57 m 1,0,1
 859 124 859 124 859 352 c 0,2,3
 859 464 859 464 826.5 571 c 128,-1,4
 794 678 794 678 731 767 c 1,5,-1
 789 767 l 1,6,7
 922 598 922 598 922 351 c 0,8,9
 922 106 922 106 789 -57 c 1,10,-1
 731 -57 l 1,0,1
211 -57 m 1,11,12
 78 106 78 106 78 351 c 0,13,14
 78 598 78 598 211 767 c 1,15,-1
 269 767 l 1,16,17
 206 678 206 678 173.5 571 c 128,-1,18
 141 464 141 464 141 352 c 0,19,20
 141 124 141 124 269 -57 c 1,21,-1
 211 -57 l 1,11,12
493 190 m 0,22,23
 442 190 442 190 385 211 c 1,24,-1
 385 272 l 1,25,26
 448 242 448 242 495 242 c 0,27,28
 561 242 561 242 561 283 c 0,29,30
 561 311 561 311 506 331 c 256,31,32
 451 351 451 351 418.5 372.5 c 128,-1,33
 386 394 386 394 386 435 c 0,34,35
 386 477 386 477 420 500 c 128,-1,36
 454 523 454 523 512 523 c 0,37,38
 568 523 568 523 623 499 c 1,39,-1
 601 447 l 1,40,41
 574 458 574 458 551 464 c 128,-1,42
 528 470 528 470 508 470 c 0,43,44
 451 470 451 470 451 438 c 0,45,46
 451 413 451 413 501 395 c 0,47,48
 535 383 535 383 563.5 369.5 c 128,-1,49
 592 356 592 356 609.5 336.5 c 128,-1,50
 627 317 627 317 627 286 c 0,51,52
 627 238 627 238 591.5 214 c 128,-1,53
 556 190 556 190 493 190 c 0,22,23
EndSplineSet
EndChar
StartChar: t.paren
Encoding: 9391 9391 944
Width: 1000
Flags: W
LayerCount: 2
Fore
SplineSet
731 -57 m 1,0,1
 859 124 859 124 859 352 c 0,2,3
 859 464 859 464 826.5 571 c 128,-1,4
 794 678 794 678 731 767 c 1,5,-1
 789 767 l 1,6,7
 922 598 922 598 922 351 c 0,8,9
 922 106 922 106 789 -57 c 1,10,-1
 731 -57 l 1,0,1
211 -57 m 1,11,12
 78 106 78 106 78 351 c 0,13,14
 78 598 78 598 211 767 c 1,15,-1
 269 767 l 1,16,17
 206 678 206 678 173.5 571 c 128,-1,18
 141 464 141 464 141 352 c 0,19,20
 141 124 141 124 269 -57 c 1,21,-1
 211 -57 l 1,11,12
541 190 m 0,22,23
 490 190 490 190 466 214.5 c 128,-1,24
 442 239 442 239 442 293 c 2,25,-1
 442 473 l 1,26,-1
 396 473 l 1,27,-1
 396 502 l 1,28,-1
 444 526 l 1,29,-1
 466 595 l 1,30,-1
 508 595 l 1,31,-1
 508 523 l 1,32,-1
 602 523 l 1,33,-1
 602 473 l 1,34,-1
 508 473 l 1,35,-1
 508 294 l 2,36,37
 508 242 508 242 550 242 c 0,38,39
 577 242 577 242 604 253 c 1,40,-1
 604 201 l 1,41,42
 579 190 579 190 541 190 c 0,22,23
EndSplineSet
EndChar
StartChar: u.paren
Encoding: 9392 9392 945
Width: 1000
Flags: W
LayerCount: 2
Fore
SplineSet
731 -57 m 1,0,1
 859 124 859 124 859 352 c 0,2,3
 859 464 859 464 826.5 571 c 128,-1,4
 794 678 794 678 731 767 c 1,5,-1
 789 767 l 1,6,7
 922 598 922 598 922 351 c 0,8,9
 922 106 922 106 789 -57 c 1,10,-1
 731 -57 l 1,0,1
211 -57 m 1,11,12
 78 106 78 106 78 351 c 0,13,14
 78 598 78 598 211 767 c 1,15,-1
 269 767 l 1,16,17
 206 678 206 678 173.5 571 c 128,-1,18
 141 464 141 464 141 352 c 0,19,20
 141 124 141 124 269 -57 c 1,21,-1
 211 -57 l 1,11,12
481 189 m 0,22,23
 364 189 364 189 364 308 c 2,24,-1
 364 517 l 1,25,-1
 429 517 l 1,26,-1
 429 310 l 2,27,28
 429 239 429 239 495 239 c 0,29,30
 545 239 545 239 564.5 267.5 c 128,-1,31
 584 296 584 296 584 350 c 2,32,-1
 584 517 l 1,33,-1
 650 517 l 1,34,-1
 650 195 l 1,35,-1
 602 195 l 1,36,-1
 585 242 l 1,37,-1
 583 242 l 1,38,39
 548 189 548 189 481 189 c 0,22,23
EndSplineSet
EndChar
StartChar: w.paren
Encoding: 9394 9394 947
Width: 1000
Flags: W
LayerCount: 2
Fore
SplineSet
731 -57 m 1,0,1
 859 124 859 124 859 352 c 0,2,3
 859 464 859 464 826.5 571 c 128,-1,4
 794 678 794 678 731 767 c 1,5,-1
 789 767 l 1,6,7
 922 598 922 598 922 351 c 0,8,9
 922 106 922 106 789 -57 c 1,10,-1
 731 -57 l 1,0,1
211 -57 m 1,11,12
 78 106 78 106 78 351 c 0,13,14
 78 598 78 598 211 767 c 1,15,-1
 269 767 l 1,16,17
 206 678 206 678 173.5 571 c 128,-1,18
 141 464 141 464 141 352 c 0,19,20
 141 124 141 124 269 -57 c 1,21,-1
 211 -57 l 1,11,12
367 195 m 1,22,-1
 250 517 l 1,23,-1
 317 517 l 1,24,-1
 376 327 l 2,25,26
 381 310 381 310 387 292.5 c 128,-1,27
 393 275 393 275 396 259 c 1,28,29
 397 267 397 267 400.5 280.5 c 128,-1,30
 404 294 404 294 409 312 c 2,31,-1
 465 517 l 1,32,-1
 532 517 l 1,33,-1
 595 327 l 2,34,35
 601 310 601 310 606 294 c 128,-1,36
 611 278 611 278 614 260 c 1,37,38
 618 274 618 274 622 288.5 c 128,-1,39
 626 303 626 303 630 320 c 2,40,-1
 679 517 l 1,41,-1
 750 517 l 1,42,-1
 643 195 l 1,43,-1
 581 195 l 1,44,-1
 523 368 l 2,45,46
 517 385 517 385 511.5 402 c 128,-1,47
 506 419 506 419 501 435 c 1,48,49
 496 418 496 418 491 400 c 128,-1,50
 486 382 486 382 480 364 c 2,51,-1
 429 195 l 1,52,-1
 367 195 l 1,22,-1
EndSplineSet
EndChar
StartChar: y.paren
Encoding: 9396 9396 949
Width: 1000
Flags: W
LayerCount: 2
Fore
SplineSet
731 -57 m 1,0,1
 859 124 859 124 859 352 c 0,2,3
 859 464 859 464 826.5 571 c 128,-1,4
 794 678 794 678 731 767 c 1,5,-1
 789 767 l 1,6,7
 922 598 922 598 922 351 c 0,8,9
 922 106 922 106 789 -57 c 1,10,-1
 731 -57 l 1,0,1
211 -57 m 1,11,12
 78 106 78 106 78 351 c 0,13,14
 78 598 78 598 211 767 c 1,15,-1
 269 767 l 1,16,17
 206 678 206 678 173.5 571 c 128,-1,18
 141 464 141 464 141 352 c 0,19,20
 141 124 141 124 269 -57 c 1,21,-1
 211 -57 l 1,11,12
452 53 m 1,22,23
 452 109 452 109 483 201 c 1,24,-1
 348 517 l 1,25,-1
 416 517 l 1,26,-1
 487 349 l 2,27,28
 505 308 505 308 514 267 c 1,29,-1
 518 267 l 1,30,31
 520 275 520 275 521.5 285 c 128,-1,32
 523 295 523 295 526 305 c 256,33,34
 529 315 529 315 548.5 368 c 128,-1,35
 568 421 568 421 604 517 c 1,36,-1
 671 517 l 1,37,-1
 548 204 l 2,38,39
 518 129 518 129 518 53 c 1,40,-1
 452 53 l 1,22,23
EndSplineSet
EndChar
StartChar: z.paren
Encoding: 9397 9397 950
Width: 1000
Flags: W
LayerCount: 2
Fore
SplineSet
731 -57 m 1,0,1
 859 124 859 124 859 352 c 0,2,3
 859 464 859 464 826.5 571 c 128,-1,4
 794 678 794 678 731 767 c 1,5,-1
 789 767 l 1,6,7
 922 598 922 598 922 351 c 0,8,9
 922 106 922 106 789 -57 c 1,10,-1
 731 -57 l 1,0,1
211 -57 m 1,11,12
 78 106 78 106 78 351 c 0,13,14
 78 598 78 598 211 767 c 1,15,-1
 269 767 l 1,16,17
 206 678 206 678 173.5 571 c 128,-1,18
 141 464 141 464 141 352 c 0,19,20
 141 124 141 124 269 -57 c 1,21,-1
 211 -57 l 1,11,12
378 195 m 1,22,-1
 378 235 l 1,23,-1
 547 466 l 1,24,-1
 388 466 l 1,25,-1
 388 517 l 1,26,-1
 624 517 l 1,27,-1
 624 472 l 1,28,-1
 456 246 l 1,29,-1
 627 246 l 1,30,-1
 627 195 l 1,31,-1
 378 195 l 1,22,-1
EndSplineSet
EndChar
StartChar: B.circled
Encoding: 9399 9399 1046
Width: 1000
Flags: W
LayerCount: 2
Fore
SplineSet
500 -55 m 0,0,1
 415 -55 415 -55 340 -23 c 128,-1,2
 265 9 265 9 208.5 65.5 c 128,-1,3
 152 122 152 122 120 197 c 128,-1,4
 88 272 88 272 88 357 c 0,5,6
 88 443 88 443 120 517.5 c 128,-1,7
 152 592 152 592 208.5 648.5 c 128,-1,8
 265 705 265 705 340 737 c 128,-1,9
 415 769 415 769 500 769 c 0,10,11
 586 769 586 769 660.5 737 c 128,-1,12
 735 705 735 705 791.5 648.5 c 128,-1,13
 848 592 848 592 880 517.5 c 128,-1,14
 912 443 912 443 912 357 c 0,15,16
 912 272 912 272 880 197 c 128,-1,17
 848 122 848 122 791.5 65.5 c 128,-1,18
 735 9 735 9 660.5 -23 c 128,-1,19
 586 -55 586 -55 500 -55 c 0,0,1
500 1 m 256,20,21
 574 1 574 1 638.5 28.5 c 128,-1,22
 703 56 703 56 752 105 c 128,-1,23
 801 154 801 154 828.5 218.5 c 128,-1,24
 856 283 856 283 856 357 c 256,25,26
 856 431 856 431 828.5 495.5 c 128,-1,27
 801 560 801 560 752 609 c 128,-1,28
 703 658 703 658 638.5 685.5 c 128,-1,29
 574 713 574 713 500 713 c 256,30,31
 426 713 426 713 361.5 685.5 c 128,-1,32
 297 658 297 658 248 609 c 128,-1,33
 199 560 199 560 171.5 495.5 c 128,-1,34
 144 431 144 431 144 357 c 256,35,36
 144 283 144 283 171.5 218.5 c 128,-1,37
 199 154 199 154 248 105 c 128,-1,38
 297 56 297 56 361.5 28.5 c 128,-1,39
 426 1 426 1 500 1 c 256,20,21
371 145 m 1,40,-1
 371 574 l 1,41,-1
 503 574 l 2,42,43
 587 574 587 574 631 550 c 128,-1,44
 675 526 675 526 675 466 c 0,45,46
 675 394 675 394 596 372 c 1,47,48
 688 347 688 347 688 268 c 0,49,50
 688 210 688 210 646 177.5 c 128,-1,51
 604 145 604 145 531 145 c 2,52,-1
 371 145 l 1,40,-1
440 395 m 1,53,-1
 513 395 l 2,54,55
 566 395 566 395 585 411.5 c 128,-1,56
 604 428 604 428 604 460 c 256,57,58
 604 492 604 492 580.5 506.5 c 128,-1,59
 557 521 557 521 505 521 c 2,60,-1
 440 521 l 1,61,-1
 440 395 l 1,53,-1
440 198 m 1,62,-1
 521 198 l 2,63,64
 617 198 617 198 617 273 c 0,65,66
 617 343 617 343 517 343 c 2,67,-1
 440 343 l 1,68,-1
 440 198 l 1,62,-1
EndSplineSet
EndChar
StartChar: E.circled
Encoding: 9402 9402 1049
Width: 1000
Flags: W
LayerCount: 2
Fore
SplineSet
500 -55 m 0,0,1
 415 -55 415 -55 340 -23 c 128,-1,2
 265 9 265 9 208.5 65.5 c 128,-1,3
 152 122 152 122 120 197 c 128,-1,4
 88 272 88 272 88 357 c 0,5,6
 88 443 88 443 120 517.5 c 128,-1,7
 152 592 152 592 208.5 648.5 c 128,-1,8
 265 705 265 705 340 737 c 128,-1,9
 415 769 415 769 500 769 c 0,10,11
 586 769 586 769 660.5 737 c 128,-1,12
 735 705 735 705 791.5 648.5 c 128,-1,13
 848 592 848 592 880 517.5 c 128,-1,14
 912 443 912 443 912 357 c 0,15,16
 912 272 912 272 880 197 c 128,-1,17
 848 122 848 122 791.5 65.5 c 128,-1,18
 735 9 735 9 660.5 -23 c 128,-1,19
 586 -55 586 -55 500 -55 c 0,0,1
500 1 m 256,20,21
 574 1 574 1 638.5 28.5 c 128,-1,22
 703 56 703 56 752 105 c 128,-1,23
 801 154 801 154 828.5 218.5 c 128,-1,24
 856 283 856 283 856 357 c 256,25,26
 856 431 856 431 828.5 495.5 c 128,-1,27
 801 560 801 560 752 609 c 128,-1,28
 703 658 703 658 638.5 685.5 c 128,-1,29
 574 713 574 713 500 713 c 256,30,31
 426 713 426 713 361.5 685.5 c 128,-1,32
 297 658 297 658 248 609 c 128,-1,33
 199 560 199 560 171.5 495.5 c 128,-1,34
 144 431 144 431 144 357 c 256,35,36
 144 283 144 283 171.5 218.5 c 128,-1,37
 199 154 199 154 248 105 c 128,-1,38
 297 56 297 56 361.5 28.5 c 128,-1,39
 426 1 426 1 500 1 c 256,20,21
378 145 m 1,40,-1
 378 574 l 1,41,-1
 632 574 l 1,42,-1
 632 519 l 1,43,-1
 447 519 l 1,44,-1
 447 396 l 1,45,-1
 622 396 l 1,46,-1
 622 343 l 1,47,-1
 447 343 l 1,48,-1
 447 200 l 1,49,-1
 632 200 l 1,50,-1
 632 145 l 1,51,-1
 378 145 l 1,40,-1
EndSplineSet
EndChar
StartChar: G.circled
Encoding: 9404 9404 1051
Width: 1000
Flags: W
LayerCount: 2
Fore
SplineSet
500 -55 m 0,0,1
 415 -55 415 -55 340 -23 c 128,-1,2
 265 9 265 9 208.5 65.5 c 128,-1,3
 152 122 152 122 120 197 c 128,-1,4
 88 272 88 272 88 357 c 0,5,6
 88 443 88 443 120 517.5 c 128,-1,7
 152 592 152 592 208.5 648.5 c 128,-1,8
 265 705 265 705 340 737 c 128,-1,9
 415 769 415 769 500 769 c 0,10,11
 586 769 586 769 660.5 737 c 128,-1,12
 735 705 735 705 791.5 648.5 c 128,-1,13
 848 592 848 592 880 517.5 c 128,-1,14
 912 443 912 443 912 357 c 0,15,16
 912 272 912 272 880 197 c 128,-1,17
 848 122 848 122 791.5 65.5 c 128,-1,18
 735 9 735 9 660.5 -23 c 128,-1,19
 586 -55 586 -55 500 -55 c 0,0,1
500 1 m 256,20,21
 574 1 574 1 638.5 28.5 c 128,-1,22
 703 56 703 56 752 105 c 128,-1,23
 801 154 801 154 828.5 218.5 c 128,-1,24
 856 283 856 283 856 357 c 256,25,26
 856 431 856 431 828.5 495.5 c 128,-1,27
 801 560 801 560 752 609 c 128,-1,28
 703 658 703 658 638.5 685.5 c 128,-1,29
 574 713 574 713 500 713 c 256,30,31
 426 713 426 713 361.5 685.5 c 128,-1,32
 297 658 297 658 248 609 c 128,-1,33
 199 560 199 560 171.5 495.5 c 128,-1,34
 144 431 144 431 144 357 c 256,35,36
 144 283 144 283 171.5 218.5 c 128,-1,37
 199 154 199 154 248 105 c 128,-1,38
 297 56 297 56 361.5 28.5 c 128,-1,39
 426 1 426 1 500 1 c 256,20,21
519 136 m 0,40,41
 404 136 404 136 346.5 196.5 c 128,-1,42
 289 257 289 257 289 362 c 0,43,44
 289 465 289 465 351 525 c 128,-1,45
 413 585 413 585 525 585 c 0,46,47
 601 585 601 585 665 559 c 1,48,-1
 641 504 l 1,49,50
 578 531 578 531 523 531 c 0,51,52
 445 531 445 531 403.5 485.5 c 128,-1,53
 362 440 362 440 362 362 c 0,54,55
 362 190 362 190 521 190 c 0,56,57
 546 190 546 190 566 192 c 128,-1,58
 586 194 586 194 602 198 c 1,59,-1
 602 321 l 1,60,-1
 504 321 l 1,61,-1
 504 377 l 1,62,-1
 671 377 l 1,63,-1
 671 159 l 1,64,65
 593 136 593 136 519 136 c 0,40,41
EndSplineSet
EndChar
StartChar: S.circled
Encoding: 9416 9416 1063
Width: 1000
Flags: W
LayerCount: 2
Fore
SplineSet
500 -55 m 0,0,1
 415 -55 415 -55 340 -23 c 128,-1,2
 265 9 265 9 208.5 65.5 c 128,-1,3
 152 122 152 122 120 197 c 128,-1,4
 88 272 88 272 88 357 c 0,5,6
 88 443 88 443 120 517.5 c 128,-1,7
 152 592 152 592 208.5 648.5 c 128,-1,8
 265 705 265 705 340 737 c 128,-1,9
 415 769 415 769 500 769 c 0,10,11
 586 769 586 769 660.5 737 c 128,-1,12
 735 705 735 705 791.5 648.5 c 128,-1,13
 848 592 848 592 880 517.5 c 128,-1,14
 912 443 912 443 912 357 c 0,15,16
 912 272 912 272 880 197 c 128,-1,17
 848 122 848 122 791.5 65.5 c 128,-1,18
 735 9 735 9 660.5 -23 c 128,-1,19
 586 -55 586 -55 500 -55 c 0,0,1
500 1 m 256,20,21
 574 1 574 1 638.5 28.5 c 128,-1,22
 703 56 703 56 752 105 c 128,-1,23
 801 154 801 154 828.5 218.5 c 128,-1,24
 856 283 856 283 856 357 c 256,25,26
 856 431 856 431 828.5 495.5 c 128,-1,27
 801 560 801 560 752 609 c 128,-1,28
 703 658 703 658 638.5 685.5 c 128,-1,29
 574 713 574 713 500 713 c 256,30,31
 426 713 426 713 361.5 685.5 c 128,-1,32
 297 658 297 658 248 609 c 128,-1,33
 199 560 199 560 171.5 495.5 c 128,-1,34
 144 431 144 431 144 357 c 256,35,36
 144 283 144 283 171.5 218.5 c 128,-1,37
 199 154 199 154 248 105 c 128,-1,38
 297 56 297 56 361.5 28.5 c 128,-1,39
 426 1 426 1 500 1 c 256,20,21
483 137 m 0,40,41
 411 137 411 137 354 161 c 1,42,-1
 354 224 l 1,43,44
 420 194 420 194 485 194 c 0,45,46
 573 194 573 194 573 257 c 0,47,48
 573 281 573 281 556 296.5 c 128,-1,49
 539 312 539 312 511.5 324.5 c 128,-1,50
 484 337 484 337 454 350 c 0,51,52
 410 370 410 370 386 400 c 128,-1,53
 362 430 362 430 362 473 c 0,54,55
 362 523 362 523 401 554.5 c 128,-1,56
 440 586 440 586 507 586 c 0,57,58
 572 586 572 586 636 560 c 1,59,-1
 616 507 l 1,60,61
 565 530 565 530 512 530 c 0,62,63
 435 530 435 530 435 473 c 0,64,65
 435 451 435 451 445 437 c 128,-1,66
 455 423 455 423 477 412 c 128,-1,67
 499 401 499 401 536 385 c 0,68,69
 592 362 592 362 619 333.5 c 128,-1,70
 646 305 646 305 646 262 c 0,71,72
 646 203 646 203 602.5 170 c 128,-1,73
 559 137 559 137 483 137 c 0,40,41
EndSplineSet
EndChar
StartChar: W.circled
Encoding: 9420 9420 1067
Width: 1000
Flags: W
LayerCount: 2
Fore
SplineSet
500 -55 m 0,0,1
 415 -55 415 -55 340 -23 c 128,-1,2
 265 9 265 9 208.5 65.5 c 128,-1,3
 152 122 152 122 120 197 c 128,-1,4
 88 272 88 272 88 357 c 0,5,6
 88 443 88 443 120 517.5 c 128,-1,7
 152 592 152 592 208.5 648.5 c 128,-1,8
 265 705 265 705 340 737 c 128,-1,9
 415 769 415 769 500 769 c 0,10,11
 586 769 586 769 660.5 737 c 128,-1,12
 735 705 735 705 791.5 648.5 c 128,-1,13
 848 592 848 592 880 517.5 c 128,-1,14
 912 443 912 443 912 357 c 0,15,16
 912 272 912 272 880 197 c 128,-1,17
 848 122 848 122 791.5 65.5 c 128,-1,18
 735 9 735 9 660.5 -23 c 128,-1,19
 586 -55 586 -55 500 -55 c 0,0,1
500 1 m 256,20,21
 574 1 574 1 638.5 28.5 c 128,-1,22
 703 56 703 56 752 105 c 128,-1,23
 801 154 801 154 828.5 218.5 c 128,-1,24
 856 283 856 283 856 357 c 256,25,26
 856 431 856 431 828.5 495.5 c 128,-1,27
 801 560 801 560 752 609 c 128,-1,28
 703 658 703 658 638.5 685.5 c 128,-1,29
 574 713 574 713 500 713 c 256,30,31
 426 713 426 713 361.5 685.5 c 128,-1,32
 297 658 297 658 248 609 c 128,-1,33
 199 560 199 560 171.5 495.5 c 128,-1,34
 144 431 144 431 144 357 c 256,35,36
 144 283 144 283 171.5 218.5 c 128,-1,37
 199 154 199 154 248 105 c 128,-1,38
 297 56 297 56 361.5 28.5 c 128,-1,39
 426 1 426 1 500 1 c 256,20,21
352 146 m 1,40,-1
 242 574 l 1,41,-1
 307 574 l 1,42,-1
 370 314 l 2,43,44
 374 295 374 295 382 234 c 1,45,46
 382 240 382 240 385.5 256.5 c 128,-1,47
 389 273 389 273 394 292 c 2,48,-1
 471 574 l 1,49,-1
 528 574 l 1,50,-1
 603 316 l 2,51,52
 611 288 611 288 616 267 c 128,-1,53
 621 246 621 246 622 231 c 1,54,55
 624 241 624 241 625 251.5 c 128,-1,56
 626 262 626 262 628 273 c 2,57,-1
 698 574 l 1,58,-1
 762 574 l 1,59,-1
 652 146 l 1,60,-1
 595 146 l 1,61,-1
 515 424 l 2,62,63
 511 437 511 437 507.5 455 c 128,-1,64
 504 473 504 473 501 495 c 1,65,66
 500 488 500 488 498 472.5 c 128,-1,67
 496 457 496 457 491 440 c 2,68,-1
 409 146 l 1,69,-1
 352 146 l 1,40,-1
EndSplineSet
EndChar
StartChar: a.circled
Encoding: 9424 9424 1071
Width: 1000
Flags: W
LayerCount: 2
Fore
SplineSet
500 -55 m 0,0,1
 415 -55 415 -55 340 -23 c 128,-1,2
 265 9 265 9 208.5 65.5 c 128,-1,3
 152 122 152 122 120 197 c 128,-1,4
 88 272 88 272 88 357 c 0,5,6
 88 443 88 443 120 517.5 c 128,-1,7
 152 592 152 592 208.5 648.5 c 128,-1,8
 265 705 265 705 340 737 c 128,-1,9
 415 769 415 769 500 769 c 0,10,11
 586 769 586 769 660.5 737 c 128,-1,12
 735 705 735 705 791.5 648.5 c 128,-1,13
 848 592 848 592 880 517.5 c 128,-1,14
 912 443 912 443 912 357 c 0,15,16
 912 272 912 272 880 197 c 128,-1,17
 848 122 848 122 791.5 65.5 c 128,-1,18
 735 9 735 9 660.5 -23 c 128,-1,19
 586 -55 586 -55 500 -55 c 0,0,1
500 1 m 256,20,21
 574 1 574 1 638.5 28.5 c 128,-1,22
 703 56 703 56 752 105 c 128,-1,23
 801 154 801 154 828.5 218.5 c 128,-1,24
 856 283 856 283 856 357 c 256,25,26
 856 431 856 431 828.5 495.5 c 128,-1,27
 801 560 801 560 752 609 c 128,-1,28
 703 658 703 658 638.5 685.5 c 128,-1,29
 574 713 574 713 500 713 c 256,30,31
 426 713 426 713 361.5 685.5 c 128,-1,32
 297 658 297 658 248 609 c 128,-1,33
 199 560 199 560 171.5 495.5 c 128,-1,34
 144 431 144 431 144 357 c 256,35,36
 144 283 144 283 171.5 218.5 c 128,-1,37
 199 154 199 154 248 105 c 128,-1,38
 297 56 297 56 361.5 28.5 c 128,-1,39
 426 1 426 1 500 1 c 256,20,21
466 190 m 0,40,41
 420 190 420 190 388.5 213 c 128,-1,42
 357 236 357 236 357 287 c 0,43,44
 357 385 357 385 518 391 c 2,45,-1
 566 393 l 1,46,-1
 566 407 l 2,47,48
 566 474 566 474 507 474 c 0,49,50
 471 474 471 474 411 447 c 1,51,-1
 393 494 l 1,52,53
 451 523 451 523 510 523 c 0,54,55
 572 523 572 523 602 497 c 128,-1,56
 632 471 632 471 632 414 c 2,57,-1
 632 195 l 1,58,-1
 581 195 l 1,59,-1
 572 247 l 1,60,61
 551 219 551 219 527 204.5 c 128,-1,62
 503 190 503 190 466 190 c 0,40,41
477 239 m 0,63,64
 515 239 515 239 540.5 260 c 128,-1,65
 566 281 566 281 566 325 c 2,66,-1
 566 350 l 1,67,-1
 525 348 l 2,68,69
 467 345 467 345 445.5 330 c 128,-1,70
 424 315 424 315 424 286 c 0,71,72
 424 263 424 263 439 251 c 128,-1,73
 454 239 454 239 477 239 c 0,63,64
EndSplineSet
EndChar
StartChar: b.circled
Encoding: 9425 9425 1072
Width: 1000
Flags: W
LayerCount: 2
Fore
SplineSet
500 -55 m 0,0,1
 415 -55 415 -55 340 -23 c 128,-1,2
 265 9 265 9 208.5 65.5 c 128,-1,3
 152 122 152 122 120 197 c 128,-1,4
 88 272 88 272 88 357 c 0,5,6
 88 443 88 443 120 517.5 c 128,-1,7
 152 592 152 592 208.5 648.5 c 128,-1,8
 265 705 265 705 340 737 c 128,-1,9
 415 769 415 769 500 769 c 0,10,11
 586 769 586 769 660.5 737 c 128,-1,12
 735 705 735 705 791.5 648.5 c 128,-1,13
 848 592 848 592 880 517.5 c 128,-1,14
 912 443 912 443 912 357 c 0,15,16
 912 272 912 272 880 197 c 128,-1,17
 848 122 848 122 791.5 65.5 c 128,-1,18
 735 9 735 9 660.5 -23 c 128,-1,19
 586 -55 586 -55 500 -55 c 0,0,1
500 1 m 256,20,21
 574 1 574 1 638.5 28.5 c 128,-1,22
 703 56 703 56 752 105 c 128,-1,23
 801 154 801 154 828.5 218.5 c 128,-1,24
 856 283 856 283 856 357 c 256,25,26
 856 431 856 431 828.5 495.5 c 128,-1,27
 801 560 801 560 752 609 c 128,-1,28
 703 658 703 658 638.5 685.5 c 128,-1,29
 574 713 574 713 500 713 c 256,30,31
 426 713 426 713 361.5 685.5 c 128,-1,32
 297 658 297 658 248 609 c 128,-1,33
 199 560 199 560 171.5 495.5 c 128,-1,34
 144 431 144 431 144 357 c 256,35,36
 144 283 144 283 171.5 218.5 c 128,-1,37
 199 154 199 154 248 105 c 128,-1,38
 297 56 297 56 361.5 28.5 c 128,-1,39
 426 1 426 1 500 1 c 256,20,21
537 146 m 0,40,41
 478 146 478 146 437 198 c 1,42,-1
 427 150 l 1,43,-1
 378 150 l 1,44,-1
 378 605 l 1,45,-1
 444 605 l 1,46,-1
 444 493 l 2,47,48
 444 477 444 477 442.5 461.5 c 128,-1,49
 441 446 441 446 440 430 c 1,50,-1
 443 429 l 1,51,52
 463 455 463 455 484.5 467 c 128,-1,53
 506 479 506 479 537 479 c 0,54,55
 600 479 600 479 638.5 437 c 128,-1,56
 677 395 677 395 677 313 c 0,57,58
 677 229 677 229 638.5 187.5 c 128,-1,59
 600 146 600 146 537 146 c 0,40,41
530 195 m 0,60,61
 609 195 609 195 609 314 c 0,62,63
 609 430 609 430 529 430 c 0,64,65
 480 430 480 430 462 402 c 128,-1,66
 444 374 444 374 444 315 c 2,67,-1
 444 313 l 2,68,69
 444 253 444 253 462.5 224 c 128,-1,70
 481 195 481 195 530 195 c 0,60,61
EndSplineSet
EndChar
StartChar: d.circled
Encoding: 9427 9427 1074
Width: 1000
Flags: W
LayerCount: 2
Fore
SplineSet
500 -55 m 0,0,1
 415 -55 415 -55 340 -23 c 128,-1,2
 265 9 265 9 208.5 65.5 c 128,-1,3
 152 122 152 122 120 197 c 128,-1,4
 88 272 88 272 88 357 c 0,5,6
 88 443 88 443 120 517.5 c 128,-1,7
 152 592 152 592 208.5 648.5 c 128,-1,8
 265 705 265 705 340 737 c 128,-1,9
 415 769 415 769 500 769 c 0,10,11
 586 769 586 769 660.5 737 c 128,-1,12
 735 705 735 705 791.5 648.5 c 128,-1,13
 848 592 848 592 880 517.5 c 128,-1,14
 912 443 912 443 912 357 c 0,15,16
 912 272 912 272 880 197 c 128,-1,17
 848 122 848 122 791.5 65.5 c 128,-1,18
 735 9 735 9 660.5 -23 c 128,-1,19
 586 -55 586 -55 500 -55 c 0,0,1
500 1 m 256,20,21
 574 1 574 1 638.5 28.5 c 128,-1,22
 703 56 703 56 752 105 c 128,-1,23
 801 154 801 154 828.5 218.5 c 128,-1,24
 856 283 856 283 856 357 c 256,25,26
 856 431 856 431 828.5 495.5 c 128,-1,27
 801 560 801 560 752 609 c 128,-1,28
 703 658 703 658 638.5 685.5 c 128,-1,29
 574 713 574 713 500 713 c 256,30,31
 426 713 426 713 361.5 685.5 c 128,-1,32
 297 658 297 658 248 609 c 128,-1,33
 199 560 199 560 171.5 495.5 c 128,-1,34
 144 431 144 431 144 357 c 256,35,36
 144 283 144 283 171.5 218.5 c 128,-1,37
 199 154 199 154 248 105 c 128,-1,38
 297 56 297 56 361.5 28.5 c 128,-1,39
 426 1 426 1 500 1 c 256,20,21
489 146 m 0,40,41
 426 146 426 146 387.5 187.5 c 128,-1,42
 349 229 349 229 349 313 c 0,43,44
 349 395 349 395 387.5 437 c 128,-1,45
 426 479 426 479 489 479 c 0,46,47
 520 479 520 479 541.5 467 c 128,-1,48
 563 455 563 455 583 429 c 1,49,-1
 586 430 l 1,50,51
 585 446 585 446 583.5 461.5 c 128,-1,52
 582 477 582 477 582 493 c 2,53,-1
 582 606 l 1,54,-1
 648 606 l 1,55,-1
 648 151 l 1,56,-1
 599 151 l 1,57,-1
 589 198 l 1,58,59
 548 146 548 146 489 146 c 0,40,41
496 195 m 0,60,61
 546 195 546 195 564 223.5 c 128,-1,62
 582 252 582 252 582 313 c 2,63,-1
 582 315 l 2,64,65
 582 374 582 374 564 402 c 128,-1,66
 546 430 546 430 497 430 c 0,67,68
 417 430 417 430 417 314 c 0,69,70
 417 195 417 195 496 195 c 0,60,61
EndSplineSet
EndChar
StartChar: g.circled
Encoding: 9430 9430 1077
Width: 1000
Flags: W
LayerCount: 2
Fore
SplineSet
500 -55 m 0,0,1
 415 -55 415 -55 340 -23 c 128,-1,2
 265 9 265 9 208.5 65.5 c 128,-1,3
 152 122 152 122 120 197 c 128,-1,4
 88 272 88 272 88 357 c 0,5,6
 88 443 88 443 120 517.5 c 128,-1,7
 152 592 152 592 208.5 648.5 c 128,-1,8
 265 705 265 705 340 737 c 128,-1,9
 415 769 415 769 500 769 c 0,10,11
 586 769 586 769 660.5 737 c 128,-1,12
 735 705 735 705 791.5 648.5 c 128,-1,13
 848 592 848 592 880 517.5 c 128,-1,14
 912 443 912 443 912 357 c 0,15,16
 912 272 912 272 880 197 c 128,-1,17
 848 122 848 122 791.5 65.5 c 128,-1,18
 735 9 735 9 660.5 -23 c 128,-1,19
 586 -55 586 -55 500 -55 c 0,0,1
500 1 m 256,20,21
 574 1 574 1 638.5 28.5 c 128,-1,22
 703 56 703 56 752 105 c 128,-1,23
 801 154 801 154 828.5 218.5 c 128,-1,24
 856 283 856 283 856 357 c 256,25,26
 856 431 856 431 828.5 495.5 c 128,-1,27
 801 560 801 560 752 609 c 128,-1,28
 703 658 703 658 638.5 685.5 c 128,-1,29
 574 713 574 713 500 713 c 256,30,31
 426 713 426 713 361.5 685.5 c 128,-1,32
 297 658 297 658 248 609 c 128,-1,33
 199 560 199 560 171.5 495.5 c 128,-1,34
 144 431 144 431 144 357 c 256,35,36
 144 283 144 283 171.5 218.5 c 128,-1,37
 199 154 199 154 248 105 c 128,-1,38
 297 56 297 56 361.5 28.5 c 128,-1,39
 426 1 426 1 500 1 c 256,20,21
504 109 m 0,40,41
 434 109 434 109 382 132 c 1,42,-1
 382 189 l 1,43,44
 435 161 435 161 507 161 c 0,45,46
 545 161 545 161 566.5 183 c 128,-1,47
 588 205 588 205 588 244 c 2,48,-1
 588 275 l 2,49,50
 588 280 588 280 588.5 284 c 128,-1,51
 589 288 589 288 590 292 c 1,52,-1
 587 293 l 1,53,54
 549 243 549 243 495 243 c 0,55,56
 429 243 429 243 392 287 c 128,-1,57
 355 331 355 331 355 409 c 0,58,59
 355 486 355 486 392.5 531 c 128,-1,60
 430 576 430 576 495 576 c 0,61,62
 555 576 555 576 593 523 c 1,63,-1
 599 570 l 1,64,-1
 653 570 l 1,65,-1
 653 248 l 2,66,67
 653 109 653 109 504 109 c 0,40,41
503 293 m 0,68,69
 588 293 588 293 589 402 c 2,70,-1
 589 403 l 2,71,72
 589 471 589 471 568 498.5 c 128,-1,73
 547 526 547 526 502 526 c 0,74,75
 464 526 464 526 443 495.5 c 128,-1,76
 422 465 422 465 422 409 c 0,77,78
 422 293 422 293 503 293 c 0,68,69
EndSplineSet
EndChar
StartChar: h.circled
Encoding: 9431 9431 1078
Width: 1000
Flags: W
LayerCount: 2
Fore
SplineSet
500 -55 m 0,0,1
 415 -55 415 -55 340 -23 c 128,-1,2
 265 9 265 9 208.5 65.5 c 128,-1,3
 152 122 152 122 120 197 c 128,-1,4
 88 272 88 272 88 357 c 0,5,6
 88 443 88 443 120 517.5 c 128,-1,7
 152 592 152 592 208.5 648.5 c 128,-1,8
 265 705 265 705 340 737 c 128,-1,9
 415 769 415 769 500 769 c 0,10,11
 586 769 586 769 660.5 737 c 128,-1,12
 735 705 735 705 791.5 648.5 c 128,-1,13
 848 592 848 592 880 517.5 c 128,-1,14
 912 443 912 443 912 357 c 0,15,16
 912 272 912 272 880 197 c 128,-1,17
 848 122 848 122 791.5 65.5 c 128,-1,18
 735 9 735 9 660.5 -23 c 128,-1,19
 586 -55 586 -55 500 -55 c 0,0,1
500 1 m 256,20,21
 574 1 574 1 638.5 28.5 c 128,-1,22
 703 56 703 56 752 105 c 128,-1,23
 801 154 801 154 828.5 218.5 c 128,-1,24
 856 283 856 283 856 357 c 256,25,26
 856 431 856 431 828.5 495.5 c 128,-1,27
 801 560 801 560 752 609 c 128,-1,28
 703 658 703 658 638.5 685.5 c 128,-1,29
 574 713 574 713 500 713 c 256,30,31
 426 713 426 713 361.5 685.5 c 128,-1,32
 297 658 297 658 248 609 c 128,-1,33
 199 560 199 560 171.5 495.5 c 128,-1,34
 144 431 144 431 144 357 c 256,35,36
 144 283 144 283 171.5 218.5 c 128,-1,37
 199 154 199 154 248 105 c 128,-1,38
 297 56 297 56 361.5 28.5 c 128,-1,39
 426 1 426 1 500 1 c 256,20,21
378 150 m 1,40,-1
 378 605 l 1,41,-1
 444 605 l 1,42,-1
 444 470 l 2,43,44
 444 454 444 454 443 443 c 128,-1,45
 442 432 442 432 440 426 c 1,46,-1
 445 425 l 1,47,48
 462 451 462 451 488 464.5 c 128,-1,49
 514 478 514 478 540 478 c 0,50,51
 604 478 604 478 633.5 449.5 c 128,-1,52
 663 421 663 421 663 359 c 2,53,-1
 663 150 l 1,54,-1
 599 150 l 1,55,-1
 599 357 l 2,56,57
 599 428 599 428 533 428 c 0,58,59
 483 428 483 428 463.5 399.5 c 128,-1,60
 444 371 444 371 444 317 c 2,61,-1
 444 150 l 1,62,-1
 378 150 l 1,40,-1
EndSplineSet
EndChar
StartChar: p.circled
Encoding: 9439 9439 1086
Width: 1000
Flags: W
LayerCount: 2
Fore
SplineSet
500 -55 m 0,0,1
 415 -55 415 -55 340 -23 c 128,-1,2
 265 9 265 9 208.5 65.5 c 128,-1,3
 152 122 152 122 120 197 c 128,-1,4
 88 272 88 272 88 357 c 0,5,6
 88 443 88 443 120 517.5 c 128,-1,7
 152 592 152 592 208.5 648.5 c 128,-1,8
 265 705 265 705 340 737 c 128,-1,9
 415 769 415 769 500 769 c 0,10,11
 586 769 586 769 660.5 737 c 128,-1,12
 735 705 735 705 791.5 648.5 c 128,-1,13
 848 592 848 592 880 517.5 c 128,-1,14
 912 443 912 443 912 357 c 0,15,16
 912 272 912 272 880 197 c 128,-1,17
 848 122 848 122 791.5 65.5 c 128,-1,18
 735 9 735 9 660.5 -23 c 128,-1,19
 586 -55 586 -55 500 -55 c 0,0,1
500 1 m 256,20,21
 574 1 574 1 638.5 28.5 c 128,-1,22
 703 56 703 56 752 105 c 128,-1,23
 801 154 801 154 828.5 218.5 c 128,-1,24
 856 283 856 283 856 357 c 256,25,26
 856 431 856 431 828.5 495.5 c 128,-1,27
 801 560 801 560 752 609 c 128,-1,28
 703 658 703 658 638.5 685.5 c 128,-1,29
 574 713 574 713 500 713 c 256,30,31
 426 713 426 713 361.5 685.5 c 128,-1,32
 297 658 297 658 248 609 c 128,-1,33
 199 560 199 560 171.5 495.5 c 128,-1,34
 144 431 144 431 144 357 c 256,35,36
 144 283 144 283 171.5 218.5 c 128,-1,37
 199 154 199 154 248 105 c 128,-1,38
 297 56 297 56 361.5 28.5 c 128,-1,39
 426 1 426 1 500 1 c 256,20,21
380 72 m 1,40,-1
 380 536 l 1,41,-1
 429 536 l 1,42,-1
 439 490 l 1,43,44
 480 542 480 542 546 542 c 0,45,46
 603 542 603 542 641 500.5 c 128,-1,47
 679 459 679 459 679 375 c 0,48,49
 679 293 679 293 640.5 251 c 128,-1,50
 602 209 602 209 539 209 c 0,51,52
 508 209 508 209 486.5 221 c 128,-1,53
 465 233 465 233 445 259 c 1,54,-1
 442 258 l 1,55,56
 443 242 443 242 444.5 226.5 c 128,-1,57
 446 211 446 211 446 195 c 2,58,-1
 446 72 l 1,59,-1
 380 72 l 1,40,-1
531 258 m 0,60,61
 611 258 611 258 611 374 c 0,62,63
 611 493 611 493 532 493 c 0,64,65
 446 493 446 493 446 373 c 2,66,-1
 446 371 l 2,67,68
 446 258 446 258 531 258 c 0,60,61
EndSplineSet
EndChar
StartChar: zero.circled
Encoding: 9450 9450 480
Width: 1000
Flags: W
LayerCount: 2
Fore
SplineSet
500 -55 m 0,0,1
 415 -55 415 -55 340 -23 c 128,-1,2
 265 9 265 9 208.5 65.5 c 128,-1,3
 152 122 152 122 120 197 c 128,-1,4
 88 272 88 272 88 357 c 0,5,6
 88 443 88 443 120 517.5 c 128,-1,7
 152 592 152 592 208.5 648.5 c 128,-1,8
 265 705 265 705 340 737 c 128,-1,9
 415 769 415 769 500 769 c 0,10,11
 586 769 586 769 660.5 737 c 128,-1,12
 735 705 735 705 791.5 648.5 c 128,-1,13
 848 592 848 592 880 517.5 c 128,-1,14
 912 443 912 443 912 357 c 0,15,16
 912 272 912 272 880 197 c 128,-1,17
 848 122 848 122 791.5 65.5 c 128,-1,18
 735 9 735 9 660.5 -23 c 128,-1,19
 586 -55 586 -55 500 -55 c 0,0,1
500 1 m 256,20,21
 574 1 574 1 638.5 28.5 c 128,-1,22
 703 56 703 56 752 105 c 128,-1,23
 801 154 801 154 828.5 218.5 c 128,-1,24
 856 283 856 283 856 357 c 256,25,26
 856 431 856 431 828.5 495.5 c 128,-1,27
 801 560 801 560 752 609 c 128,-1,28
 703 658 703 658 638.5 685.5 c 128,-1,29
 574 713 574 713 500 713 c 256,30,31
 426 713 426 713 361.5 685.5 c 128,-1,32
 297 658 297 658 248 609 c 128,-1,33
 199 560 199 560 171.5 495.5 c 128,-1,34
 144 431 144 431 144 357 c 256,35,36
 144 283 144 283 171.5 218.5 c 128,-1,37
 199 154 199 154 248 105 c 128,-1,38
 297 56 297 56 361.5 28.5 c 128,-1,39
 426 1 426 1 500 1 c 256,20,21
505 135 m 0,40,41
 350 135 350 135 350 358 c 0,42,43
 350 579 350 579 505 579 c 0,44,45
 661 579 661 579 661 358 c 0,46,47
 661 135 661 135 505 135 c 0,40,41
505 193 m 0,48,49
 591 193 591 193 591 358 c 0,50,51
 591 521 591 521 505 521 c 0,52,53
 420 521 420 521 420 357 c 256,54,55
 420 193 420 193 505 193 c 0,48,49
EndSplineSet
EndChar
StartChar: one_two.blackCircled
Encoding: 9452 9452 471
Width: 1000
Flags: W
LayerCount: 2
Fore
SplineSet
500 -55 m 0,0,1
 415 -55 415 -55 340 -23 c 128,-1,2
 265 9 265 9 208.5 65.5 c 128,-1,3
 152 122 152 122 120 197 c 128,-1,4
 88 272 88 272 88 357 c 256,5,6
 88 442 88 442 120 516.5 c 128,-1,7
 152 591 152 591 208.5 648 c 128,-1,8
 265 705 265 705 340 737 c 128,-1,9
 415 769 415 769 500 769 c 0,10,11
 586 769 586 769 660.5 737 c 128,-1,12
 735 705 735 705 791.5 648 c 128,-1,13
 848 591 848 591 880 516.5 c 128,-1,14
 912 442 912 442 912 357 c 256,15,16
 912 272 912 272 880 197 c 128,-1,17
 848 122 848 122 791.5 65.5 c 128,-1,18
 735 9 735 9 660.5 -23 c 128,-1,19
 586 -55 586 -55 500 -55 c 0,0,1
466 143 m 1,20,-1
 728 143 l 1,21,-1
 728 205 l 1,22,-1
 547 205 l 1,23,-1
 620 282 l 2,24,25
 669 334 669 334 699 373.5 c 128,-1,26
 729 413 729 413 729 462 c 0,27,28
 729 518 729 518 695 549 c 128,-1,29
 661 580 661 580 601 580 c 0,30,31
 530 580 530 580 469 525 c 1,32,-1
 502 479 l 1,33,34
 551 522 551 522 598 522 c 0,35,36
 626 522 626 522 643 505.5 c 128,-1,37
 660 489 660 489 660 462 c 0,38,39
 660 437 660 437 647 409.5 c 128,-1,40
 634 382 634 382 590 333 c 2,41,-1
 466 197 l 1,42,-1
 466 143 l 1,20,-1
346 144 m 1,43,-1
 414 144 l 1,44,-1
 414 572 l 1,45,-1
 342 572 l 1,46,-1
 228 489 l 1,47,-1
 262 440 l 1,48,49
 284 457 284 457 300 470 c 128,-1,50
 316 483 316 483 328 492 c 0,51,52
 335 497 335 497 340 501 c 128,-1,53
 345 505 345 505 348 509 c 1,54,55
 348 499 348 499 347 488.5 c 128,-1,56
 346 478 346 478 346 467 c 2,57,-1
 346 144 l 1,43,-1
525 205 m 1,58,-1
 547 205 l 1,59,-1
 532 189 l 1,60,-1
 525 205 l 1,58,-1
EndSplineSet
EndChar
StartChar: one_five.blackCircled
Encoding: 9455 9455 474
Width: 1000
Flags: W
LayerCount: 2
Fore
SplineSet
500 -55 m 0,0,1
 415 -55 415 -55 340 -23 c 128,-1,2
 265 9 265 9 208.5 65.5 c 128,-1,3
 152 122 152 122 120 197 c 128,-1,4
 88 272 88 272 88 357 c 256,5,6
 88 442 88 442 120 516.5 c 128,-1,7
 152 591 152 591 208.5 648 c 128,-1,8
 265 705 265 705 340 737 c 128,-1,9
 415 769 415 769 500 769 c 0,10,11
 586 769 586 769 660.5 737 c 128,-1,12
 735 705 735 705 791.5 648 c 128,-1,13
 848 591 848 591 880 516.5 c 128,-1,14
 912 442 912 442 912 357 c 256,15,16
 912 272 912 272 880 197 c 128,-1,17
 848 122 848 122 791.5 65.5 c 128,-1,18
 735 9 735 9 660.5 -23 c 128,-1,19
 586 -55 586 -55 500 -55 c 0,0,1
578 136 m 0,20,21
 650 136 650 136 691 172.5 c 128,-1,22
 732 209 732 209 732 282 c 0,23,24
 732 341 732 341 694 377.5 c 128,-1,25
 656 414 656 414 591 414 c 0,26,27
 558 414 558 414 537 407 c 1,28,-1
 546 518 l 1,29,-1
 710 518 l 1,30,-1
 710 573 l 1,31,-1
 491 573 l 1,32,-1
 476 364 l 1,33,-1
 503 344 l 1,34,35
 545 356 545 356 573 356 c 0,36,37
 614 356 614 356 637.5 335 c 128,-1,38
 661 314 661 314 661 276 c 0,39,40
 661 193 661 193 574 193 c 0,41,42
 551 193 551 193 521 202 c 128,-1,43
 491 211 491 211 466 228 c 1,44,-1
 466 161 l 1,45,46
 505 136 505 136 578 136 c 0,20,21
345 144 m 1,47,-1
 413 144 l 1,48,-1
 413 572 l 1,49,-1
 341 572 l 1,50,-1
 227 489 l 1,51,-1
 261 440 l 1,52,53
 282 455 282 455 298 467.5 c 128,-1,54
 314 480 314 480 325 490 c 0,55,56
 340 502 340 502 347 509 c 1,57,58
 347 499 347 499 346.5 488.5 c 128,-1,59
 346 478 346 478 345 467 c 2,60,-1
 345 144 l 1,47,-1
EndSplineSet
EndChar
StartChar: one_six.blackCircled
Encoding: 9456 9456 475
Width: 1000
Flags: W
LayerCount: 2
Fore
SplineSet
500 -55 m 0,0,1
 415 -55 415 -55 340 -23 c 128,-1,2
 265 9 265 9 208.5 65.5 c 128,-1,3
 152 122 152 122 120 197 c 128,-1,4
 88 272 88 272 88 357 c 256,5,6
 88 442 88 442 120 516.5 c 128,-1,7
 152 591 152 591 208.5 648 c 128,-1,8
 265 705 265 705 340 737 c 128,-1,9
 415 769 415 769 500 769 c 0,10,11
 586 769 586 769 660.5 737 c 128,-1,12
 735 705 735 705 791.5 648 c 128,-1,13
 848 591 848 591 880 516.5 c 128,-1,14
 912 442 912 442 912 357 c 256,15,16
 912 272 912 272 880 197 c 128,-1,17
 848 122 848 122 791.5 65.5 c 128,-1,18
 735 9 735 9 660.5 -23 c 128,-1,19
 586 -55 586 -55 500 -55 c 0,0,1
618 135 m 0,20,21
 658 135 658 135 689 155 c 128,-1,22
 720 175 720 175 738 209 c 128,-1,23
 756 243 756 243 756 285 c 0,24,25
 756 350 756 350 723 384.5 c 128,-1,26
 690 419 690 419 637 419 c 0,27,28
 568 419 568 419 539 369 c 1,29,-1
 535 369 l 1,30,31
 540 449 540 449 571.5 485.5 c 128,-1,32
 603 522 603 522 664 522 c 0,33,34
 696 522 696 522 721 513 c 1,35,-1
 721 572 l 1,36,37
 708 576 708 576 694 577.5 c 128,-1,38
 680 579 680 579 666 579 c 0,39,40
 470 579 470 579 470 327 c 0,41,42
 470 238 470 238 509 186.5 c 128,-1,43
 548 135 548 135 618 135 c 0,20,21
345 144 m 1,44,-1
 413 144 l 1,45,-1
 413 572 l 1,46,-1
 341 572 l 1,47,-1
 227 489 l 1,48,-1
 261 440 l 1,49,50
 282 455 282 455 298.5 467 c 128,-1,51
 315 479 315 479 325 489 c 0,52,53
 333 496 333 496 338 500.5 c 128,-1,54
 343 505 343 505 347 509 c 1,55,56
 347 499 347 499 346.5 488.5 c 128,-1,57
 346 478 346 478 345 467 c 2,58,-1
 345 144 l 1,44,-1
616 192 m 0,59,60
 581 192 581 192 559.5 221 c 128,-1,61
 538 250 538 250 538 293 c 0,62,63
 538 319 538 319 559 341.5 c 128,-1,64
 580 364 580 364 618 364 c 0,65,66
 653 364 653 364 671 342.5 c 128,-1,67
 689 321 689 321 689 283 c 0,68,69
 689 237 689 237 669 214.5 c 128,-1,70
 649 192 649 192 616 192 c 0,59,60
EndSplineSet
EndChar
StartChar: one_eight.blackCircled
Encoding: 9458 9458 477
Width: 1000
Flags: W
LayerCount: 2
Fore
SplineSet
500 -55 m 0,0,1
 415 -55 415 -55 340 -23 c 128,-1,2
 265 9 265 9 208.5 65.5 c 128,-1,3
 152 122 152 122 120 197 c 128,-1,4
 88 272 88 272 88 357 c 256,5,6
 88 442 88 442 120 516.5 c 128,-1,7
 152 591 152 591 208.5 648 c 128,-1,8
 265 705 265 705 340 737 c 128,-1,9
 415 769 415 769 500 769 c 0,10,11
 586 769 586 769 660.5 737 c 128,-1,12
 735 705 735 705 791.5 648 c 128,-1,13
 848 591 848 591 880 516.5 c 128,-1,14
 912 442 912 442 912 357 c 256,15,16
 912 272 912 272 880 197 c 128,-1,17
 848 122 848 122 791.5 65.5 c 128,-1,18
 735 9 735 9 660.5 -23 c 128,-1,19
 586 -55 586 -55 500 -55 c 0,0,1
613 135 m 0,20,21
 673 135 673 135 711 168.5 c 128,-1,22
 749 202 749 202 749 258 c 0,23,24
 749 333 749 333 665 370 c 1,25,26
 735 410 735 410 735 471 c 0,27,28
 735 520 735 520 701 550 c 128,-1,29
 667 580 667 580 613 580 c 0,30,31
 558 580 558 580 523 549.5 c 128,-1,32
 488 519 488 519 488 468 c 0,33,34
 488 430 488 430 504 408.5 c 128,-1,35
 520 387 520 387 550 367 c 1,36,37
 475 327 475 327 475 255 c 0,38,39
 475 198 475 198 510.5 166.5 c 128,-1,40
 546 135 546 135 613 135 c 0,20,21
343 144 m 1,41,-1
 411 144 l 1,42,-1
 411 572 l 1,43,-1
 339 572 l 1,44,-1
 225 489 l 1,45,-1
 259 440 l 1,46,47
 279 454 279 454 294 466.5 c 128,-1,48
 309 479 309 479 320 488 c 0,49,50
 329 495 329 495 335 500 c 128,-1,51
 341 505 341 505 345 509 c 1,52,53
 344 499 344 499 344 488.5 c 128,-1,54
 344 478 344 478 343 467 c 2,55,-1
 343 144 l 1,41,-1
614 397 m 1,56,57
 553 425 553 425 553 469 c 0,58,59
 553 495 553 495 569 510 c 128,-1,60
 585 525 585 525 612 525 c 0,61,62
 638 525 638 525 654.5 510 c 128,-1,63
 671 495 671 495 671 469 c 0,64,65
 671 423 671 423 614 397 c 1,56,57
611 191 m 0,66,67
 576 191 576 191 558.5 208.5 c 128,-1,68
 541 226 541 226 541 255 c 0,69,70
 541 308 541 308 599 340 c 1,71,-1
 615 333 l 2,72,73
 659 314 659 314 671.5 293.5 c 128,-1,74
 684 273 684 273 684 255 c 0,75,76
 684 226 684 226 665.5 208.5 c 128,-1,77
 647 191 647 191 611 191 c 0,66,67
EndSplineSet
EndChar
StartChar: one_nine.blackCircled
Encoding: 9459 9459 478
Width: 1000
Flags: W
LayerCount: 2
Fore
SplineSet
500 -55 m 0,0,1
 415 -55 415 -55 340 -23 c 128,-1,2
 265 9 265 9 208.5 65.5 c 128,-1,3
 152 122 152 122 120 197 c 128,-1,4
 88 272 88 272 88 357 c 256,5,6
 88 442 88 442 120 516.5 c 128,-1,7
 152 591 152 591 208.5 648 c 128,-1,8
 265 705 265 705 340 737 c 128,-1,9
 415 769 415 769 500 769 c 0,10,11
 586 769 586 769 660.5 737 c 128,-1,12
 735 705 735 705 791.5 648 c 128,-1,13
 848 591 848 591 880 516.5 c 128,-1,14
 912 442 912 442 912 357 c 256,15,16
 912 272 912 272 880 197 c 128,-1,17
 848 122 848 122 791.5 65.5 c 128,-1,18
 735 9 735 9 660.5 -23 c 128,-1,19
 586 -55 586 -55 500 -55 c 0,0,1
560 135 m 0,20,21
 756 135 756 135 756 387 c 0,22,23
 756 484 756 484 713.5 531.5 c 128,-1,24
 671 579 671 579 608 579 c 0,25,26
 547 579 547 579 508.5 538 c 128,-1,27
 470 497 470 497 470 429 c 0,28,29
 470 365 470 365 503.5 330 c 128,-1,30
 537 295 537 295 589 295 c 0,31,32
 658 295 658 295 687 345 c 1,33,-1
 691 345 l 1,34,35
 687 266 687 266 655.5 229 c 128,-1,36
 624 192 624 192 562 192 c 0,37,38
 529 192 529 192 505 201 c 1,39,-1
 505 142 l 1,40,41
 518 138 518 138 532 136.5 c 128,-1,42
 546 135 546 135 560 135 c 0,20,21
348 144 m 1,43,-1
 416 144 l 1,44,-1
 416 572 l 1,45,-1
 344 572 l 1,46,-1
 230 489 l 1,47,-1
 264 440 l 1,48,49
 306 472 306 472 330 491 c 0,50,51
 337 497 337 497 342 501 c 128,-1,52
 347 505 347 505 350 509 c 1,53,54
 350 499 350 499 349.5 488.5 c 128,-1,55
 349 478 349 478 348 467 c 2,56,-1
 348 144 l 1,43,-1
608 350 m 0,57,58
 574 350 574 350 555.5 371.5 c 128,-1,59
 537 393 537 393 537 431 c 0,60,61
 537 477 537 477 557 499.5 c 128,-1,62
 577 522 577 522 610 522 c 0,63,64
 644 522 644 522 666 493.5 c 128,-1,65
 688 465 688 465 688 421 c 0,66,67
 688 395 688 395 667 372.5 c 128,-1,68
 646 350 646 350 608 350 c 0,57,58
EndSplineSet
EndChar
StartChar: one.doubleCircled
Encoding: 9461 9461 418
Width: 1000
Flags: W
LayerCount: 2
Fore
SplineSet
500 -89 m 256,0,1
 408 -89 408 -89 327 -54.5 c 128,-1,2
 246 -20 246 -20 184.5 41.5 c 128,-1,3
 123 103 123 103 88.5 183.5 c 128,-1,4
 54 264 54 264 54 357 c 256,5,6
 54 450 54 450 88.5 530.5 c 128,-1,7
 123 611 123 611 184.5 672.5 c 128,-1,8
 246 734 246 734 327 768.5 c 128,-1,9
 408 803 408 803 500 803 c 256,10,11
 592 803 592 803 673 768.5 c 128,-1,12
 754 734 754 734 815.5 672.5 c 128,-1,13
 877 611 877 611 911.5 530.5 c 128,-1,14
 946 450 946 450 946 357 c 256,15,16
 946 264 946 264 911.5 183.5 c 128,-1,17
 877 103 877 103 815.5 41.5 c 128,-1,18
 754 -20 754 -20 673 -54.5 c 128,-1,19
 592 -89 592 -89 500 -89 c 256,0,1
500 -59 m 256,20,21
 586 -59 586 -59 661.5 -26.5 c 128,-1,22
 737 6 737 6 794 63 c 128,-1,23
 851 120 851 120 883.5 195.5 c 128,-1,24
 916 271 916 271 916 357 c 256,25,26
 916 443 916 443 883.5 518.5 c 128,-1,27
 851 594 851 594 794 651 c 128,-1,28
 737 708 737 708 661.5 740.5 c 128,-1,29
 586 773 586 773 500 773 c 256,30,31
 414 773 414 773 338.5 740.5 c 128,-1,32
 263 708 263 708 206 651 c 128,-1,33
 149 594 149 594 116.5 518.5 c 128,-1,34
 84 443 84 443 84 357 c 256,35,36
 84 271 84 271 116.5 195.5 c 128,-1,37
 149 120 149 120 206 63 c 128,-1,38
 263 6 263 6 338.5 -26.5 c 128,-1,39
 414 -59 414 -59 500 -59 c 256,20,21
500 -30 m 256,40,41
 420 -30 420 -30 349.5 0 c 128,-1,42
 279 30 279 30 226 83 c 128,-1,43
 173 136 173 136 143 206.5 c 128,-1,44
 113 277 113 277 113 357 c 256,45,46
 113 437 113 437 143 507.5 c 128,-1,47
 173 578 173 578 226 631 c 128,-1,48
 279 684 279 684 349.5 714 c 128,-1,49
 420 744 420 744 500 744 c 256,50,51
 580 744 580 744 650.5 714 c 128,-1,52
 721 684 721 684 774 631 c 128,-1,53
 827 578 827 578 857 507.5 c 128,-1,54
 887 437 887 437 887 357 c 256,55,56
 887 277 887 277 857 206.5 c 128,-1,57
 827 136 827 136 774 83 c 128,-1,58
 721 30 721 30 650.5 0 c 128,-1,59
 580 -30 580 -30 500 -30 c 256,40,41
500 0 m 256,60,61
 574 0 574 0 638.5 28 c 128,-1,62
 703 56 703 56 752 105 c 128,-1,63
 801 154 801 154 829 218.5 c 128,-1,64
 857 283 857 283 857 357 c 256,65,66
 857 431 857 431 829 495.5 c 128,-1,67
 801 560 801 560 752 609 c 128,-1,68
 703 658 703 658 638.5 686 c 128,-1,69
 574 714 574 714 500 714 c 256,70,71
 426 714 426 714 361.5 686 c 128,-1,72
 297 658 297 658 248 609 c 128,-1,73
 199 560 199 560 171 495.5 c 128,-1,74
 143 431 143 431 143 357 c 256,75,76
 143 283 143 283 171 218.5 c 128,-1,77
 199 154 199 154 248 105 c 128,-1,78
 297 56 297 56 361.5 28 c 128,-1,79
 426 0 426 0 500 0 c 256,60,61
475 144 m 1,80,-1
 475 420 l 2,81,82
 475 443 475 443 476.5 465.5 c 128,-1,83
 478 488 478 488 479 509 c 1,84,85
 475 505 475 505 471 501.5 c 128,-1,86
 467 498 467 498 462 493 c 256,87,88
 457 488 457 488 436.5 472.5 c 128,-1,89
 416 457 416 457 380 431 c 1,90,-1
 346 480 l 1,91,-1
 473 572 l 1,92,-1
 545 572 l 1,93,-1
 545 144 l 1,94,-1
 475 144 l 1,80,-1
EndSplineSet
EndChar
StartChar: one_zero.doubleCircled
Encoding: 9470 9470 427
Width: 1000
Flags: W
LayerCount: 2
Fore
SplineSet
500 -89 m 256,0,1
 408 -89 408 -89 327 -54.5 c 128,-1,2
 246 -20 246 -20 184.5 41.5 c 128,-1,3
 123 103 123 103 88.5 183.5 c 128,-1,4
 54 264 54 264 54 357 c 256,5,6
 54 450 54 450 88.5 530.5 c 128,-1,7
 123 611 123 611 184.5 672.5 c 128,-1,8
 246 734 246 734 327 768.5 c 128,-1,9
 408 803 408 803 500 803 c 256,10,11
 592 803 592 803 673 768.5 c 128,-1,12
 754 734 754 734 815.5 672.5 c 128,-1,13
 877 611 877 611 911.5 530.5 c 128,-1,14
 946 450 946 450 946 357 c 256,15,16
 946 264 946 264 911.5 183.5 c 128,-1,17
 877 103 877 103 815.5 41.5 c 128,-1,18
 754 -20 754 -20 673 -54.5 c 128,-1,19
 592 -89 592 -89 500 -89 c 256,0,1
500 -59 m 256,20,21
 586 -59 586 -59 661.5 -26.5 c 128,-1,22
 737 6 737 6 794 63 c 128,-1,23
 851 120 851 120 883.5 195.5 c 128,-1,24
 916 271 916 271 916 357 c 256,25,26
 916 443 916 443 883.5 518.5 c 128,-1,27
 851 594 851 594 794 651 c 128,-1,28
 737 708 737 708 661.5 740.5 c 128,-1,29
 586 773 586 773 500 773 c 256,30,31
 414 773 414 773 338.5 740.5 c 128,-1,32
 263 708 263 708 206 651 c 128,-1,33
 149 594 149 594 116.5 518.5 c 128,-1,34
 84 443 84 443 84 357 c 256,35,36
 84 271 84 271 116.5 195.5 c 128,-1,37
 149 120 149 120 206 63 c 128,-1,38
 263 6 263 6 338.5 -26.5 c 128,-1,39
 414 -59 414 -59 500 -59 c 256,20,21
500 -30 m 256,40,41
 420 -30 420 -30 349.5 0 c 128,-1,42
 279 30 279 30 226 83 c 128,-1,43
 173 136 173 136 143 206.5 c 128,-1,44
 113 277 113 277 113 357 c 256,45,46
 113 437 113 437 143 507.5 c 128,-1,47
 173 578 173 578 226 631 c 128,-1,48
 279 684 279 684 349.5 714 c 128,-1,49
 420 744 420 744 500 744 c 256,50,51
 580 744 580 744 650.5 714 c 128,-1,52
 721 684 721 684 774 631 c 128,-1,53
 827 578 827 578 857 507.5 c 128,-1,54
 887 437 887 437 887 357 c 256,55,56
 887 277 887 277 857 206.5 c 128,-1,57
 827 136 827 136 774 83 c 128,-1,58
 721 30 721 30 650.5 0 c 128,-1,59
 580 -30 580 -30 500 -30 c 256,40,41
500 0 m 256,60,61
 574 0 574 0 638.5 28 c 128,-1,62
 703 56 703 56 752 105 c 128,-1,63
 801 154 801 154 829 218.5 c 128,-1,64
 857 283 857 283 857 357 c 256,65,66
 857 431 857 431 829 495.5 c 128,-1,67
 801 560 801 560 752 609 c 128,-1,68
 703 658 703 658 638.5 686 c 128,-1,69
 574 714 574 714 500 714 c 256,70,71
 426 714 426 714 361.5 686 c 128,-1,72
 297 658 297 658 248 609 c 128,-1,73
 199 560 199 560 171 495.5 c 128,-1,74
 143 431 143 431 143 357 c 256,75,76
 143 283 143 283 171 218.5 c 128,-1,77
 199 154 199 154 248 105 c 128,-1,78
 297 56 297 56 361.5 28 c 128,-1,79
 426 0 426 0 500 0 c 256,60,61
622 135 m 0,80,81
 485 135 485 135 485 359 c 0,82,83
 485 580 485 580 622 580 c 0,84,85
 760 580 760 580 760 359 c 0,86,87
 760 135 760 135 622 135 c 0,80,81
355 144 m 1,88,-1
 355 420 l 2,89,90
 355 443 355 443 356.5 465.5 c 128,-1,91
 358 488 358 488 359 509 c 1,92,93
 356 506 356 506 351 501.5 c 128,-1,94
 346 497 346 497 342 493 c 0,95,96
 337 488 337 488 316.5 472.5 c 128,-1,97
 296 457 296 457 260 431 c 1,98,-1
 226 480 l 1,99,-1
 353 572 l 1,100,-1
 425 572 l 1,101,-1
 425 144 l 1,102,-1
 355 144 l 1,88,-1
622 194 m 0,103,104
 692 194 692 194 692 359 c 0,105,106
 692 522 692 522 622 522 c 0,107,108
 593 522 593 522 578.5 498.5 c 128,-1,109
 564 475 564 475 559 437.5 c 128,-1,110
 554 400 554 400 554 358 c 0,111,112
 554 315 554 315 559 277.5 c 128,-1,113
 564 240 564 240 579 217 c 128,-1,114
 594 194 594 194 622 194 c 0,103,104
EndSplineSet
EndChar
StartChar: zero.blackCircled
Encoding: 9471 9471 459
Width: 1000
Flags: W
LayerCount: 2
Fore
SplineSet
500 -55 m 0,0,1
 415 -55 415 -55 340 -23 c 128,-1,2
 265 9 265 9 208.5 65.5 c 128,-1,3
 152 122 152 122 120 197 c 128,-1,4
 88 272 88 272 88 357 c 256,5,6
 88 442 88 442 120 516.5 c 128,-1,7
 152 591 152 591 208.5 648 c 128,-1,8
 265 705 265 705 340 737 c 128,-1,9
 415 769 415 769 500 769 c 0,10,11
 586 769 586 769 660.5 737 c 128,-1,12
 735 705 735 705 791.5 648 c 128,-1,13
 848 591 848 591 880 516.5 c 128,-1,14
 912 442 912 442 912 357 c 256,15,16
 912 272 912 272 880 197 c 128,-1,17
 848 122 848 122 791.5 65.5 c 128,-1,18
 735 9 735 9 660.5 -23 c 128,-1,19
 586 -55 586 -55 500 -55 c 0,0,1
505 135 m 0,20,21
 661 135 661 135 661 358 c 0,22,23
 661 579 661 579 505 579 c 0,24,25
 350 579 350 579 350 358 c 0,26,27
 350 135 350 135 505 135 c 0,20,21
505 193 m 0,28,29
 420 193 420 193 420 357 c 256,30,31
 420 521 420 521 505 521 c 0,32,33
 591 521 591 521 591 358 c 0,34,35
 591 193 591 193 505 193 c 0,28,29
EndSplineSet
EndChar
StartChar: conjunction
Encoding: 9740 9740 571
Width: 594
Flags: W
LayerCount: 2
Fore
SplineSet
283 54 m 0,0,1
 220 54 220 54 167 85.5 c 128,-1,2
 114 117 114 117 82.5 170 c 128,-1,3
 51 223 51 223 51 286 c 0,4,5
 51 350 51 350 82.5 402.5 c 128,-1,6
 114 455 114 455 167 486.5 c 128,-1,7
 220 518 220 518 283 518 c 0,8,9
 331 518 331 518 383 495 c 1,10,-1
 487 678 l 1,11,-1
 543 647 l 1,12,-1
 436 460 l 1,13,14
 472 428 472 428 493.5 383 c 128,-1,15
 515 338 515 338 515 286 c 0,16,17
 515 223 515 223 483.5 170 c 128,-1,18
 452 117 452 117 399.5 85.5 c 128,-1,19
 347 54 347 54 283 54 c 0,0,1
283 123 m 256,20,21
 328 123 328 123 365 145 c 128,-1,22
 402 167 402 167 424 204 c 128,-1,23
 446 241 446 241 446 286 c 256,24,25
 446 331 446 331 423.5 368 c 128,-1,26
 401 405 401 405 364 427 c 128,-1,27
 327 449 327 449 283 449 c 256,28,29
 239 449 239 449 201.5 427 c 128,-1,30
 164 405 164 405 142 368 c 128,-1,31
 120 331 120 331 120 286 c 256,32,33
 120 241 120 241 142 204 c 128,-1,34
 164 167 164 167 201 145 c 128,-1,35
 238 123 238 123 283 123 c 256,20,21
EndSplineSet
EndChar
StartChar: saltire
Encoding: 9747 9747 573
Width: 596
Flags: W
LayerCount: 2
Fore
SplineSet
51 0 m 1,0,-1
 263 366 l 1,1,-1
 55 726 l 1,2,-1
 124 726 l 1,3,-1
 298 426 l 1,4,-1
 472 726 l 1,5,-1
 541 726 l 1,6,-1
 333 366 l 1,7,-1
 545 0 l 1,8,-1
 476 0 l 1,9,-1
 298 307 l 1,10,-1
 120 0 l 1,11,-1
 51 0 l 1,0,-1
EndSplineSet
EndChar
StartChar: ankh
Encoding: 9765 9765 575
Width: 522
Flags: W
LayerCount: 2
Fore
SplineSet
240 0 m 1,0,-1
 240 262 l 1,1,-1
 51 262 l 1,2,-1
 51 303 l 1,3,-1
 240 303 l 1,4,-1
 240 320 l 1,5,6
 218 329 218 329 196.5 354 c 128,-1,7
 175 379 175 379 157 412 c 128,-1,8
 139 445 139 445 128 479 c 128,-1,9
 117 513 117 513 117 538 c 0,10,11
 117 613 117 613 156.5 656 c 128,-1,12
 196 699 196 699 261 699 c 256,13,14
 326 699 326 699 365.5 656 c 128,-1,15
 405 613 405 613 405 538 c 0,16,17
 405 513 405 513 394 479.5 c 128,-1,18
 383 446 383 446 365 412.5 c 128,-1,19
 347 379 347 379 325.5 354 c 128,-1,20
 304 329 304 329 282 320 c 1,21,-1
 282 303 l 1,22,-1
 471 303 l 1,23,-1
 471 262 l 1,24,-1
 282 262 l 1,25,-1
 282 0 l 1,26,-1
 240 0 l 1,0,-1
261 357 m 256,27,28
 278 357 278 357 296 375.5 c 128,-1,29
 314 394 314 394 329 423 c 128,-1,30
 344 452 344 452 353.5 483 c 128,-1,31
 363 514 363 514 363 539 c 0,32,33
 363 598 363 598 336 630 c 128,-1,34
 309 662 309 662 261 662 c 0,35,36
 212 662 212 662 185.5 630 c 128,-1,37
 159 598 159 598 159 539 c 0,38,39
 159 515 159 515 168.5 484 c 128,-1,40
 178 453 178 453 193 424 c 128,-1,41
 208 395 208 395 226 376 c 128,-1,42
 244 357 244 357 261 357 c 256,27,28
EndSplineSet
EndChar
StartChar: orthodoxCross
Encoding: 9766 9766 577
Width: 483
Flags: W
LayerCount: 2
Fore
SplineSet
199 0 m 1,0,-1
 199 207 l 1,1,-1
 76 293 l 1,2,-1
 120 357 l 1,3,-1
 199 302 l 1,4,-1
 199 454 l 1,5,-1
 51 454 l 1,6,-1
 51 531 l 1,7,-1
 199 531 l 1,8,-1
 199 591 l 1,9,-1
 110 591 l 1,10,-1
 110 668 l 1,11,-1
 199 668 l 1,12,-1
 199 756 l 1,13,-1
 284 756 l 1,14,-1
 284 668 l 1,15,-1
 373 668 l 1,16,-1
 373 591 l 1,17,-1
 284 591 l 1,18,-1
 284 531 l 1,19,-1
 432 531 l 1,20,-1
 432 454 l 1,21,-1
 284 454 l 1,22,-1
 284 243 l 1,23,-1
 408 157 l 1,24,-1
 364 93 l 1,25,-1
 284 148 l 1,26,-1
 284 0 l 1,27,-1
 199 0 l 1,0,-1
EndSplineSet
EndChar
StartChar: constantineCross
Encoding: 9767 9767 578
Width: 737
Flags: W
LayerCount: 2
Fore
SplineSet
51 0 m 1,0,-1
 230 159 l 1,1,-1
 51 298 l 1,2,-1
 159 298 l 1,3,-1
 239 241 l 1,4,-1
 239 714 l 1,5,-1
 418 714 l 2,6,7
 555 714 555 714 620.5 671 c 128,-1,8
 686 628 686 628 686 534 c 0,9,10
 686 434 686 434 615.5 386 c 128,-1,11
 545 338 545 338 401 338 c 2,12,-1
 329 338 l 1,13,-1
 329 241 l 1,14,-1
 410 298 l 1,15,-1
 518 298 l 1,16,-1
 338 159 l 1,17,-1
 518 0 l 1,18,-1
 410 0 l 1,19,-1
 329 77 l 1,20,-1
 329 0 l 1,21,-1
 239 0 l 1,22,-1
 239 76 l 1,23,-1
 159 0 l 1,24,-1
 51 0 l 1,0,-1
329 415 m 1,25,-1
 391 415 l 2,26,27
 453 415 453 415 498.5 422.5 c 128,-1,28
 544 430 544 430 568.5 455 c 128,-1,29
 593 480 593 480 593 530 c 0,30,31
 593 585 593 585 551 611 c 128,-1,32
 509 637 509 637 410 637 c 2,33,-1
 329 637 l 1,34,-1
 329 415 l 1,25,-1
EndSplineSet
EndChar
StartChar: starAndCrescent
Encoding: 9770 9770 587
Width: 820
Flags: W
LayerCount: 2
Fore
SplineSet
413 -6 m 0,0,1
 317 -6 317 -6 233.5 42 c 128,-1,2
 150 90 150 90 100 174 c 0,3,4
 51 257 51 257 51 356 c 0,5,6
 51 422 51 422 73.5 481.5 c 128,-1,7
 96 541 96 541 137 590 c 128,-1,8
 178 639 178 639 233 670 c 0,9,10
 317 718 317 718 413 718 c 0,11,12
 494 718 494 718 565.5 685 c 128,-1,13
 637 652 637 652 688 590 c 1,14,15
 605 658 605 658 498 658 c 0,16,17
 417 658 417 658 347 618 c 128,-1,18
 277 578 277 578 236 508 c 0,19,20
 196 440 196 440 196 356 c 0,21,22
 196 293 196 293 219.5 238.5 c 128,-1,23
 243 184 243 184 285 142.5 c 128,-1,24
 327 101 327 101 381.5 77.5 c 128,-1,25
 436 54 436 54 498 54 c 0,26,27
 604 54 604 54 688 121 c 1,28,29
 636 60 636 60 565 27 c 128,-1,30
 494 -6 494 -6 413 -6 c 0,0,1
528 232 m 1,31,-1
 564 341 l 1,32,-1
 477 398 l 1,33,-1
 585 398 l 1,34,-1
 623 516 l 1,35,-1
 662 398 l 1,36,-1
 769 398 l 1,37,-1
 681 341 l 1,38,-1
 718 232 l 1,39,-1
 623 301 l 1,40,-1
 528 232 l 1,31,-1
EndSplineSet
EndChar
StartChar: adiShakti
Encoding: 9772 9772 589
Width: 672
Flags: W
LayerCount: 2
Fore
SplineSet
336 0 m 0,0,1
 316 0 316 0 301 15.5 c 128,-1,2
 286 31 286 31 286 54 c 0,3,4
 286 78 286 78 299 103 c 256,5,6
 312 128 312 128 312 154 c 0,7,8
 312 175 312 175 289 195 c 1,9,10
 278 184 278 184 266 168.5 c 128,-1,11
 254 153 254 153 245.5 137.5 c 128,-1,12
 237 122 237 122 237 111 c 2,13,-1
 238 106 l 1,14,15
 245 94 245 94 245 82 c 0,16,17
 245 69 245 69 236 58 c 128,-1,18
 227 47 227 47 209 47 c 0,19,20
 192 47 192 47 184 57.5 c 128,-1,21
 176 68 176 68 176 84 c 0,22,23
 176 106 176 106 201.5 141.5 c 128,-1,24
 227 177 227 177 264 207 c 1,25,26
 243 215 243 215 223 215 c 0,27,28
 185 215 185 215 161 190.5 c 128,-1,29
 137 166 137 166 135 128 c 1,30,31
 92 190 92 190 71.5 260.5 c 128,-1,32
 51 331 51 331 51 409 c 0,33,34
 51 457 51 457 66 501 c 128,-1,35
 81 545 81 545 106 579 c 128,-1,36
 131 613 131 613 161 631 c 1,37,38
 138 591 138 591 128.5 550.5 c 128,-1,39
 119 510 119 510 119 459 c 0,40,41
 119 401 119 401 143 354 c 128,-1,42
 167 307 167 307 210.5 278 c 128,-1,43
 254 249 254 249 312 245 c 1,44,-1
 312 299 l 1,45,46
 273 305 273 305 255 313 c 1,47,48
 260 321 260 321 263.5 327 c 128,-1,49
 267 333 267 333 269 338 c 1,50,51
 225 358 225 358 198 399.5 c 128,-1,52
 171 441 171 441 171 492 c 0,53,54
 171 549 171 549 205.5 593.5 c 128,-1,55
 240 638 240 638 292 653 c 1,56,57
 288 673 288 673 281 681 c 128,-1,58
 274 689 274 689 258 689 c 1,59,-1
 258 708 l 1,60,61
 279 708 279 708 299 725 c 256,62,63
 319 742 319 742 333 742 c 256,64,65
 347 742 347 742 370 725 c 256,66,67
 393 708 393 708 414 708 c 1,68,-1
 414 689 l 1,69,70
 398 689 398 689 391 681 c 128,-1,71
 384 673 384 673 380 653 c 1,72,73
 433 638 433 638 467 593.5 c 128,-1,74
 501 549 501 549 501 492 c 0,75,76
 501 441 501 441 474 400 c 128,-1,77
 447 359 447 359 403 338 c 1,78,-1
 417 313 l 1,79,80
 401 305 401 305 360 299 c 1,81,-1
 360 245 l 1,82,83
 418 249 418 249 461 278 c 128,-1,84
 504 307 504 307 528.5 354 c 128,-1,85
 553 401 553 401 553 459 c 0,86,87
 553 510 553 510 543.5 550.5 c 128,-1,88
 534 591 534 591 511 631 c 1,89,90
 541 612 541 612 566 578 c 128,-1,91
 591 544 591 544 606 500.5 c 128,-1,92
 621 457 621 457 621 409 c 0,93,94
 621 331 621 331 601 260.5 c 128,-1,95
 581 190 581 190 537 128 c 1,96,97
 535 166 535 166 511 190.5 c 128,-1,98
 487 215 487 215 449 215 c 0,99,100
 429 215 429 215 408 207 c 1,101,102
 445 178 445 178 470.5 142.5 c 128,-1,103
 496 107 496 107 496 84 c 0,104,105
 496 68 496 68 488 57.5 c 128,-1,106
 480 47 480 47 463 47 c 0,107,108
 445 47 445 47 436 58 c 128,-1,109
 427 69 427 69 427 82 c 0,110,111
 427 93 427 93 431 101 c 0,112,113
 435 106 435 106 435 111 c 0,114,115
 435 122 435 122 426.5 137.5 c 128,-1,116
 418 153 418 153 406 168.5 c 128,-1,117
 394 184 394 184 383 195 c 1,118,119
 360 177 360 177 360 154 c 0,120,121
 360 128 360 128 373 103 c 256,122,123
 386 78 386 78 386 54 c 0,124,125
 386 32 386 32 371.5 16 c 128,-1,126
 357 0 357 0 336 0 c 0,0,1
286 378 m 1,127,128
 306 436 306 436 306 511 c 0,129,130
 306 565 306 565 300 610 c 1,131,132
 261 598 261 598 237.5 565.5 c 128,-1,133
 214 533 214 533 214 492 c 0,134,135
 214 455 214 455 233 424.5 c 128,-1,136
 252 394 252 394 286 378 c 1,127,128
386 378 m 1,137,138
 420 393 420 393 439 424 c 128,-1,139
 458 455 458 455 458 492 c 0,140,141
 458 533 458 533 434.5 565.5 c 128,-1,142
 411 598 411 598 372 610 c 1,143,144
 366 570 366 570 366 511 c 0,145,146
 366 433 366 433 386 378 c 1,137,138
EndSplineSet
EndChar
StartChar: peace
Encoding: 9774 9774 591
Width: 796
Flags: W
LayerCount: 2
Fore
SplineSet
398 6 m 256,0,1
 326 6 326 6 263.5 33 c 128,-1,2
 201 60 201 60 153 107.5 c 128,-1,3
 105 155 105 155 78 218 c 128,-1,4
 51 281 51 281 51 353 c 256,5,6
 51 425 51 425 78 487.5 c 128,-1,7
 105 550 105 550 152.5 598 c 128,-1,8
 200 646 200 646 263 673 c 128,-1,9
 326 700 326 700 398 700 c 256,10,11
 470 700 470 700 533 673 c 128,-1,12
 596 646 596 646 643.5 598.5 c 128,-1,13
 691 551 691 551 718 488 c 128,-1,14
 745 425 745 425 745 353 c 256,15,16
 745 281 745 281 718 218 c 128,-1,17
 691 155 691 155 643.5 107.5 c 128,-1,18
 596 60 596 60 533 33 c 128,-1,19
 470 6 470 6 398 6 c 256,0,1
163 179 m 1,20,-1
 371 394 l 1,21,-1
 371 644 l 1,22,23
 297 637 297 637 236.5 596 c 128,-1,24
 176 555 176 555 140.5 491.5 c 128,-1,25
 105 428 105 428 105 353 c 0,26,27
 105 258 105 258 163 179 c 1,20,-1
633 179 m 1,28,29
 691 258 691 258 691 353 c 0,30,31
 691 427 691 427 656 490.5 c 128,-1,32
 621 554 621 554 561 595.5 c 128,-1,33
 501 637 501 637 425 644 c 1,34,-1
 425 394 l 1,35,-1
 633 179 l 1,28,29
371 61 m 1,36,-1
 371 318 l 1,37,-1
 198 139 l 1,38,39
 273 70 273 70 371 61 c 1,36,-1
425 61 m 1,40,41
 520 68 520 68 598 139 c 1,42,-1
 425 318 l 1,43,-1
 425 61 l 1,40,41
EndSplineSet
EndChar
StartChar: firstQuarterMoon
Encoding: 9789 9789 597
Width: 561
Flags: W
LayerCount: 2
Fore
SplineSet
154 7 m 0,0,1
 97 7 97 7 51 20 c 1,2,-1
 51 53 l 1,3,4
 139 53 139 53 204.5 91 c 128,-1,5
 270 129 270 129 306 197 c 128,-1,6
 342 265 342 265 342 354 c 256,7,8
 342 443 342 443 306 511 c 128,-1,9
 270 579 270 579 205 617 c 128,-1,10
 140 655 140 655 51 655 c 1,11,-1
 51 688 l 1,12,13
 97 701 97 701 154 701 c 0,14,15
 259 701 259 701 339 657.5 c 128,-1,16
 419 614 419 614 464.5 536 c 128,-1,17
 510 458 510 458 510 354 c 0,18,19
 510 252 510 252 464.5 173.5 c 128,-1,20
 419 95 419 95 339 51 c 128,-1,21
 259 7 259 7 154 7 c 0,0,1
155 37 m 1,22,23
 221 37 221 37 278 62 c 128,-1,24
 335 87 335 87 377 130.5 c 128,-1,25
 419 174 419 174 442.5 231.5 c 128,-1,26
 466 289 466 289 466 354 c 0,27,28
 466 420 466 420 442.5 477.5 c 128,-1,29
 419 535 419 535 377 578.5 c 128,-1,30
 335 622 335 622 278 646.5 c 128,-1,31
 221 671 221 671 155 671 c 1,32,33
 225 656 225 656 277 610.5 c 128,-1,34
 329 565 329 565 357.5 499 c 128,-1,35
 386 433 386 433 386 354 c 0,36,37
 386 276 386 276 357.5 209.5 c 128,-1,38
 329 143 329 143 277 98 c 128,-1,39
 225 53 225 53 155 37 c 1,22,23
EndSplineSet
EndChar
StartChar: earth
Encoding: 9793 9793 601
Width: 518
Flags: W
LayerCount: 2
Fore
SplineSet
259 0 m 0,0,1
 203 0 203 0 155.5 27.5 c 128,-1,2
 108 55 108 55 79.5 102 c 128,-1,3
 51 149 51 149 51 205 c 0,4,5
 51 258 51 258 75 302.5 c 128,-1,6
 99 347 99 347 140 376.5 c 128,-1,7
 181 406 181 406 232 412 c 1,8,-1
 232 500 l 1,9,-1
 114 500 l 1,10,-1
 114 547 l 1,11,-1
 232 547 l 1,12,-1
 232 655 l 1,13,-1
 286 655 l 1,14,-1
 286 547 l 1,15,-1
 397 547 l 1,16,-1
 397 500 l 1,17,-1
 286 500 l 1,18,-1
 286 412 l 1,19,20
 338 406 338 406 378.5 376.5 c 128,-1,21
 419 347 419 347 443 302.5 c 128,-1,22
 467 258 467 258 467 205 c 0,23,24
 467 149 467 149 438.5 102 c 128,-1,25
 410 55 410 55 363 27.5 c 128,-1,26
 316 0 316 0 259 0 c 0,0,1
259 50 m 256,27,28
 302 50 302 50 338 71.5 c 128,-1,29
 374 93 374 93 395.5 128 c 128,-1,30
 417 163 417 163 417 205 c 0,31,32
 417 248 417 248 395.5 284 c 128,-1,33
 374 320 374 320 338 341.5 c 128,-1,34
 302 363 302 363 259 363 c 0,35,36
 217 363 217 363 181 341.5 c 128,-1,37
 145 320 145 320 123 284 c 128,-1,38
 101 248 101 248 101 205 c 0,39,40
 101 164 101 164 122.5 128.5 c 128,-1,41
 144 93 144 93 180 71.5 c 128,-1,42
 216 50 216 50 259 50 c 256,27,28
EndSplineSet
EndChar
StartChar: jupiter
Encoding: 9795 9795 603
Width: 679
Flags: W
LayerCount: 2
Fore
SplineSet
558 0 m 1,0,-1
 558 186 l 1,1,-1
 56 186 l 1,2,-1
 56 250 l 1,3,-1
 104 250 l 2,4,5
 189 250 189 250 250.5 281 c 128,-1,6
 312 312 312 312 345.5 366.5 c 128,-1,7
 379 421 379 421 379 489 c 0,8,9
 379 564 379 564 342.5 603 c 128,-1,10
 306 642 306 642 250 642 c 0,11,12
 195 642 195 642 158 604.5 c 128,-1,13
 121 567 121 567 121 501 c 1,14,-1
 51 501 l 1,15,16
 51 561 51 561 75 607 c 128,-1,17
 99 653 99 653 144 679.5 c 128,-1,18
 189 706 189 706 250 706 c 0,19,20
 344 706 344 706 396.5 648 c 128,-1,21
 449 590 449 590 449 495 c 0,22,23
 449 452 449 452 436 406.5 c 128,-1,24
 423 361 423 361 393.5 320.5 c 128,-1,25
 364 280 364 280 312 250 c 1,26,-1
 558 250 l 1,27,-1
 558 694 l 1,28,-1
 628 694 l 1,29,-1
 628 0 l 1,30,-1
 558 0 l 1,0,-1
EndSplineSet
EndChar
StartChar: saturn
Encoding: 9796 9796 604
Width: 602
Flags: W
LayerCount: 2
Fore
SplineSet
127 0 m 1,0,-1
 127 608 l 1,1,-1
 51 608 l 1,2,-1
 51 662 l 1,3,-1
 127 662 l 1,4,-1
 127 760 l 1,5,-1
 197 760 l 1,6,-1
 197 662 l 1,7,-1
 382 662 l 1,8,-1
 382 608 l 1,9,-1
 197 608 l 1,10,-1
 197 517 l 2,11,12
 197 495 197 495 195.5 477 c 128,-1,13
 194 459 194 459 192 443 c 1,14,-1
 198 443 l 1,15,16
 223 483 223 483 267 504.5 c 128,-1,17
 311 526 311 526 366 526 c 0,18,19
 463 526 463 526 507 477.5 c 128,-1,20
 551 429 551 429 551 338 c 0,21,22
 551 291 551 291 521 222 c 0,23,24
 490 153 490 153 490 122 c 256,25,26
 490 91 490 91 502 56.5 c 128,-1,27
 514 22 514 22 528 0 c 1,28,-1
 452 0 l 1,29,30
 438 22 438 22 427.5 58 c 128,-1,31
 417 94 417 94 417 126 c 0,32,33
 417 165 417 165 447 234 c 0,34,35
 478 306 478 306 478 338 c 0,36,37
 478 406 478 406 447 435.5 c 128,-1,38
 416 465 416 465 354 465 c 0,39,40
 275 465 275 465 236 415.5 c 128,-1,41
 197 366 197 366 197 258 c 2,42,-1
 197 0 l 1,43,-1
 127 0 l 1,0,-1
EndSplineSet
EndChar
